<svg width="34" height="40" viewBox="0 0 34 40" fill="none" xmlns="http://www.w3.org/2000/svg">
<path fill-rule="evenodd" clip-rule="evenodd" d="M13.2384 14.8413C12.3725 14.8413 11.5392 15.1792 10.9094 15.7801C10.5965 16.0797 10.3488 16.4406 10.1798 16.84C10.0109 17.2393 9.92255 17.6694 9.92255 18.1053C9.92255 18.5411 10.0089 18.9712 10.1798 19.3705C10.3488 19.7699 10.5965 20.1309 10.9094 20.4304L16.5197 25.9465C16.6445 26.0694 16.8115 26.1366 16.9843 26.1366C17.1571 26.1366 17.3241 26.0675 17.4489 25.9465L23.0592 20.4304C23.3702 20.1309 23.6179 19.7699 23.7869 19.3705C23.9558 18.9712 24.0422 18.5411 24.0422 18.1053C24.0422 17.6713 23.9539 17.2393 23.7849 16.84C23.616 16.4406 23.3664 16.0797 23.0553 15.7801C22.4275 15.1773 21.5942 14.8413 20.7264 14.8413C19.8585 14.8413 19.0272 15.1773 18.3974 15.7801L18.384 15.7917L16.9805 17.2105L15.5769 15.7917L15.5635 15.7782C14.9357 15.1753 14.1024 14.8393 13.2365 14.8393L13.2384 14.8413Z" fill="#6CACF6"/>
<path d="M3.50604 25.0266C3.50604 25.0266 4.1646 24.5159 5.70828 25.0266C7.25196 25.5373 11.764 29.1124 11.764 29.1124L8.18892 29.6231L3.50604 25.0266Z" fill="#0B56A3"/>
<path d="M18.7432 32.6029C15.435 32.6164 11.8427 32.7009 8.74571 31.3588C7.64939 30.8845 7.07723 29.6404 8.30411 28.8724C9.78059 27.9508 13.0638 28.8378 13.8049 28.7706C15.0664 28.6573 16.3105 28.0583 17.5355 27.7549C19.1099 27.3652 20.7342 27.1117 22.3604 27.2423C25.1636 27.4669 26.8878 29.9303 29.0881 31.3492C30.2843 32.121 31.4996 32.8621 32.7227 33.5898C33.2411 33.8989 33.4312 34.5556 33.1604 35.0932C32.6459 36.1223 31.8241 37.7658 31.2462 38.9236C30.9064 39.6013 30.0174 39.7741 29.451 39.2692C27.7384 37.7447 25.7224 36.0513 23.5336 36.3642C19.9547 36.8749 16.132 38.2977 12.4936 37.09C9.61163 36.1338 6.67019 34.1293 4.69643 31.7505C1.80107 28.2599 -0.155408 25.7063 1.03499 24.7693C2.22539 23.8324 3.24875 24.5985 4.09931 25.2801C4.94987 25.9617 9.63275 29.9629 9.63275 29.9629" fill="#0F74DB"/>
<path d="M15.8402 33.1137C15.1586 33.1137 14.4712 33.1022 13.7877 33.0599C12.0789 32.9563 10.299 32.7873 8.95312 31.9694C8.04496 31.4183 7.40752 30.3911 7.40176 29.4715C7.39792 28.7649 7.75121 28.1524 8.40017 27.7473C8.62481 27.6071 8.92048 27.6763 9.06064 27.9009C9.2008 28.1255 9.13169 28.4212 8.90705 28.5614C8.53649 28.7918 8.35792 29.0875 8.35984 29.4657C8.36368 30.0494 8.83217 30.7732 9.44849 31.1476C10.6062 31.8523 12.2536 32.0039 13.8414 32.0999C15.0203 32.171 16.228 32.1537 17.3973 32.1364C17.8446 32.1307 18.292 32.123 18.7374 32.1211C19.0024 32.1211 19.2155 32.3342 19.2174 32.5991C19.2174 32.8641 19.0043 33.0791 18.7394 33.0811C18.2958 33.0811 17.8523 33.0887 17.4088 33.0964C16.8904 33.1041 16.3643 33.1118 15.8344 33.1118L15.8402 33.1137Z" fill="#0B56A3"/>
<path d="M30.4592 15.1425C30.4592 15.1425 29.8006 15.6533 28.2569 15.1425C26.7132 14.6318 22.2012 11.0568 22.2012 11.0568L25.7763 10.5461L30.4592 15.1425Z" fill="#0B56A3"/>
<path d="M15.222 7.56622C18.5302 7.55278 22.1225 7.4683 25.2195 8.81038C26.3158 9.28462 26.888 10.5288 25.6611 11.2968C24.1846 12.2184 20.9014 11.3313 20.1603 11.3985C18.8988 11.5118 17.6547 12.1109 16.4297 12.4142C14.8553 12.804 13.231 13.0574 11.6048 12.9269C8.80156 12.7022 7.0774 10.2389 4.87708 8.81998C3.68092 8.04814 2.46556 7.30702 1.24252 6.57934C0.724121 6.27022 0.534041 5.61358 0.804761 5.07598C1.31932 4.04686 2.14108 2.40334 2.719 1.24558C3.05884 0.567819 3.9478 0.395019 4.5142 0.899979C6.22684 2.42446 8.24284 4.1179 10.4316 3.80494C14.0105 3.29422 17.8332 1.8715 21.4716 3.07918C24.3536 4.03534 27.295 6.03982 29.2688 8.4187C32.1641 11.9093 34.1206 14.4629 32.9302 15.3998C31.7398 16.3368 30.7164 15.5707 29.8659 14.8891C29.0153 14.2075 24.3324 10.2062 24.3324 10.2062" fill="#0F74DB"/>
<path d="M25.3098 12.4948C25.1504 12.4948 24.993 12.4142 24.9027 12.2683C24.7626 12.0436 24.8317 11.7479 25.0563 11.6078C25.4269 11.3774 25.6055 11.0817 25.6035 10.7035C25.5997 10.1198 25.1312 9.39594 24.5149 9.02154C23.2592 8.2593 21.3719 8.1441 20.1219 8.06922C18.9431 7.99818 17.7335 8.01546 16.5642 8.03274C16.1187 8.0385 15.6714 8.04618 15.2259 8.0481H15.224C14.9591 8.0481 14.7459 7.83498 14.744 7.57002C14.744 7.30506 14.9571 7.09002 15.2221 7.0881C15.6656 7.0881 16.1072 7.08042 16.5507 7.07274C17.7373 7.05546 18.9661 7.03818 20.1795 7.11114C21.8883 7.21482 23.6682 7.38378 25.0141 8.2017C25.9223 8.75274 26.5597 9.77994 26.5655 10.6996C26.5693 11.4062 26.216 12.0187 25.5671 12.4238C25.4883 12.4737 25.4 12.4967 25.3136 12.4967L25.3098 12.4948Z" fill="#0B56A3"/>
</svg>
