<svg width="21" height="15" viewBox="0 0 21 15" fill="none" xmlns="http://www.w3.org/2000/svg">
<path d="M18.99 0.507812H2C0.89543 0.507812 0 1.40324 0 2.50781V12.2198C0 13.3244 0.89543 14.2198 2 14.2198H18.99C20.0946 14.2198 20.99 13.3244 20.99 12.2198V2.50781C20.99 1.40324 20.0946 0.507812 18.99 0.507812Z" fill="#199D00"/>
<path fill-rule="evenodd" clip-rule="evenodd" d="M5.22641 4.35807C5.19941 4.72507 5.16641 5.37007 5.47841 5.43707C5.85541 5.47307 5.64741 4.79907 5.78441 4.67707C5.81041 4.61707 5.85741 4.61606 5.86141 4.69306V5.26507C5.85869 5.32929 5.87862 5.39242 5.91774 5.44342C5.95686 5.49442 6.01268 5.53005 6.07541 5.54407C6.17541 5.53607 6.24041 5.54406 6.27541 5.63606C6.29074 5.96606 6.30606 6.29607 6.3214 6.62607C6.3214 6.62607 6.5504 6.69206 6.5614 6.06906C6.53758 5.8225 6.52956 5.57466 6.5374 5.32707C6.5374 5.25707 6.6284 5.25307 6.6904 5.28707C6.7904 5.35707 6.8324 5.44207 6.9904 5.40807C7.2234 5.34407 7.3634 5.23007 7.3674 5.05207C7.36109 4.8773 7.32525 4.70487 7.2614 4.54207C7.2714 4.51107 7.21641 4.43106 7.22641 4.40006C7.26841 4.46606 7.33241 4.46006 7.34641 4.40006C7.32067 4.27543 7.24935 4.16489 7.14641 4.09007C7.06341 4.01807 6.94641 4.03207 6.89841 4.18407C6.89269 4.38472 6.96023 4.58059 7.08841 4.73506C7.12824 4.82094 7.14478 4.91578 7.1364 5.01007C7.10543 5.02851 7.06876 5.03494 7.03336 5.02812C6.99796 5.02129 6.9663 5.00171 6.9444 4.97307C6.9444 4.97307 6.75841 4.83406 6.75841 4.80306C6.80265 4.65944 6.797 4.50508 6.7424 4.36507C6.72074 4.27595 6.67862 4.19309 6.6194 4.12306C6.5734 4.07406 6.51041 4.07406 6.48041 4.12306C6.41507 4.31328 6.42074 4.52071 6.4964 4.70706C6.5394 4.83306 6.6044 4.90707 6.5744 4.90707C6.5484 4.97807 6.4964 4.96107 6.4574 4.87907C6.41185 4.7041 6.38966 4.52386 6.3914 4.34307C6.3754 4.20207 6.35641 3.90107 6.26441 3.82407C6.20741 3.74707 6.12341 3.78407 6.09441 3.85507C6.08617 3.99175 6.08919 4.12888 6.10341 4.26507C6.15812 4.48089 6.19655 4.7005 6.2184 4.92207C6.2274 5.23307 6.03841 5.05707 6.04741 4.90307C6.08807 4.7066 6.08601 4.50368 6.0414 4.30807C6.0104 4.22807 5.97441 4.20807 5.90041 4.22207C5.84141 4.22207 5.68941 4.38407 5.64641 4.66007C5.62421 4.74839 5.60685 4.83785 5.59441 4.92806C5.57341 5.07006 5.4804 5.17007 5.4144 4.90807C5.3564 4.71807 5.32141 4.24807 5.22641 4.35807Z" fill="white"/>
<path fill-rule="evenodd" clip-rule="evenodd" d="M6.28181 5.69705C5.94881 5.86005 5.6268 6.01105 5.2998 6.16905C5.3626 6.00507 5.46748 5.86052 5.60388 5.74992C5.74028 5.63933 5.90339 5.56661 6.07681 5.53906C6.27881 5.54506 6.22981 5.61705 6.28181 5.69705Z" fill="white"/>
<path fill-rule="evenodd" clip-rule="evenodd" d="M5.97968 6.11251C5.46268 7.44651 7.19168 7.63251 7.38468 6.16651C7.40268 6.10651 7.47569 6.04651 7.48469 6.14451C7.44469 7.47151 6.14669 7.56251 5.92669 7.14451C5.87446 7.00098 5.84838 6.84924 5.84969 6.69651C5.81669 6.43551 5.68069 6.53651 5.65869 6.79651C5.64259 6.90337 5.63723 7.01158 5.64269 7.11951C5.71169 8.16751 7.38269 7.71951 7.65469 6.85151C7.79869 6.37251 7.63069 6.01851 7.70869 6.02051C7.87469 6.19951 8.10869 6.04451 8.15669 5.98251C8.16288 5.97338 8.17101 5.96573 8.18051 5.96011C8.19 5.95448 8.20062 5.95102 8.2116 5.94997C8.22259 5.94892 8.23367 5.9503 8.24406 5.95403C8.25444 5.95775 8.26388 5.96372 8.27169 5.97151C8.30445 5.99414 8.34183 6.00922 8.38113 6.01565C8.42042 6.02208 8.46066 6.01972 8.49893 6.00872C8.53719 5.99771 8.57253 5.97836 8.60241 5.95204C8.63229 5.92571 8.65595 5.89309 8.67169 5.85651C8.70168 5.69133 8.72006 5.52426 8.72669 5.35651C8.62069 5.38951 8.54268 5.41151 8.53568 5.45651L8.5137 5.59851C8.5047 5.64451 8.41369 5.64551 8.41369 5.58751C8.37369 5.40551 8.20769 5.38151 8.10769 5.66451C8.04069 5.71951 7.91769 5.73051 7.90769 5.64851C7.92369 5.45951 7.8477 5.43351 7.6947 5.52251C7.6457 5.14751 7.59469 4.78851 7.54669 4.41251C7.61069 4.41251 7.66869 4.45851 7.72669 4.38451C7.67249 4.15899 7.5798 3.94451 7.45269 3.75051C7.41669 3.70651 7.38569 3.73451 7.33769 3.74551C7.31397 3.75199 7.29177 3.76308 7.27235 3.77815C7.25293 3.79323 7.23666 3.81198 7.2245 3.83335C7.21233 3.85471 7.2045 3.87826 7.20144 3.90265C7.19839 3.92705 7.20017 3.95181 7.20669 3.97551C7.30169 4.55151 7.36369 4.99051 7.45869 5.56651C7.47369 5.63351 7.41668 5.72351 7.34368 5.71451C7.21968 5.63051 7.18869 5.46151 6.97769 5.46851C6.89241 5.4798 6.81281 5.5175 6.75004 5.57632C6.68727 5.63514 6.64449 5.71214 6.62769 5.79651C6.59766 5.92038 6.59766 6.04964 6.62769 6.17351C6.66949 6.22296 6.7258 6.25797 6.78863 6.27359C6.85146 6.28921 6.91761 6.28463 6.97769 6.26051C7.07069 6.22251 7.14768 6.12951 7.17768 6.15151C7.20768 6.17351 7.18269 6.48451 6.74069 6.71951C6.47269 6.83951 6.2597 6.86751 6.1407 6.64851C6.0787 6.51151 6.15568 5.99251 5.97968 6.11251Z" fill="white"/>
<path fill-rule="evenodd" clip-rule="evenodd" d="M8.00476 4.89192C8.22114 4.70901 8.42185 4.50831 8.60476 4.29192C8.57876 4.26992 8.55676 4.25393 8.53076 4.23193C8.52477 4.22814 8.51983 4.2229 8.51641 4.21669C8.513 4.21048 8.5112 4.20351 8.5112 4.19642C8.5112 4.18933 8.513 4.18236 8.51641 4.17616C8.51983 4.16995 8.52477 4.16471 8.53076 4.16092C8.55328 4.14354 8.57182 4.12155 8.58517 4.09643C8.59852 4.0713 8.60638 4.04362 8.60818 4.01522C8.60998 3.98683 8.60568 3.95838 8.59561 3.93177C8.58553 3.90516 8.56989 3.88101 8.54974 3.86092C8.50852 3.84063 8.46321 3.83008 8.41726 3.83008C8.37132 3.83008 8.32598 3.84063 8.28476 3.86092C8.24189 3.89701 8.21419 3.94791 8.20715 4.00349C8.20011 4.05908 8.21425 4.11529 8.24676 4.16092C8.31276 4.19192 8.37774 4.26092 8.33474 4.29492C8.13474 4.50992 7.58175 4.88092 7.64575 4.89492C7.76492 4.91138 7.88587 4.91037 8.00476 4.89192Z" fill="white"/>
<path fill-rule="evenodd" clip-rule="evenodd" d="M5.3603 6.48141C5.2779 6.60785 5.22597 6.7517 5.20861 6.90163C5.19126 7.05156 5.20895 7.20347 5.2603 7.3454C5.28562 7.37476 5.31844 7.39668 5.35525 7.40883C5.39206 7.42099 5.43148 7.42291 5.4693 7.4144C5.5853 7.3644 5.6363 7.1294 5.6083 7.0434C5.5693 6.9834 5.5393 6.9734 5.5003 7.0244C5.4183 7.1904 5.3843 7.0764 5.3773 6.9834C5.36771 6.82803 5.37542 6.67206 5.4003 6.51839C5.4263 6.38839 5.4053 6.42941 5.3603 6.48141Z" fill="white"/>
<path fill-rule="evenodd" clip-rule="evenodd" d="M12.4696 6.33753C12.2906 5.95353 12.0436 5.57354 11.9696 5.42854C11.8956 5.28354 11.2976 4.42154 11.2096 4.32854C11.0176 4.09954 11.5226 4.42854 11.1456 3.96954C11.0016 3.84654 10.9936 3.83853 10.8746 3.73853C10.8146 3.69553 10.6676 3.61754 10.6416 3.74754C10.6293 3.8379 10.6337 3.92976 10.6546 4.01853C10.694 4.10206 10.7452 4.17951 10.8066 4.24854C11.4358 5.08139 11.9881 5.96971 12.4566 6.90253C12.5356 6.85854 12.5176 6.40153 12.4696 6.33753Z" fill="white"/>
<path fill-rule="evenodd" clip-rule="evenodd" d="M11.6154 7.56386C11.5804 7.60286 11.7024 7.77186 11.8604 7.77186C12.0182 7.74616 12.1668 7.68021 12.2916 7.58036C12.4165 7.48052 12.5136 7.35015 12.5734 7.20186C12.6606 7.07039 12.7161 6.92045 12.7354 6.76387C12.7625 6.0198 12.7028 5.27509 12.5574 4.54486C12.549 4.49361 12.5514 4.44115 12.5644 4.39087C12.5814 4.36987 12.6394 4.39086 12.6704 4.34086C12.7014 4.29086 12.5504 3.91187 12.4564 3.76487C12.4224 3.69887 12.4114 3.65486 12.3564 3.77286C12.2893 3.90163 12.2572 4.04578 12.2634 4.19086C12.3894 5.06386 12.4284 5.82886 12.5104 6.70286C12.5243 6.79303 12.502 6.88504 12.4484 6.95887C12.2165 7.21698 11.9326 7.42315 11.6154 7.56386Z" fill="white"/>
<path fill-rule="evenodd" clip-rule="evenodd" d="M14.8036 7.5393C14.6136 7.6493 14.6136 7.7753 14.7676 7.7803C14.9205 7.78621 15.0726 7.7549 15.2107 7.68905C15.3488 7.62321 15.4689 7.5248 15.5606 7.40229C15.6362 7.24966 15.68 7.08333 15.6896 6.9133C15.7262 6.17981 15.6776 5.44457 15.5446 4.7223C15.5289 4.64829 15.5202 4.57296 15.5186 4.4973C15.5356 4.4533 15.6186 4.4973 15.6526 4.4513C15.6866 4.4053 15.4296 4.0603 15.3346 3.9133C15.3016 3.8473 15.2896 3.8033 15.2346 3.9213C15.173 4.05109 15.1538 4.19697 15.1796 4.3383C15.3214 5.16512 15.4103 6.00015 15.4456 6.8383C15.4382 6.91459 15.4207 6.98958 15.3936 7.06131C15.3184 7.17067 15.2312 7.27128 15.1336 7.36129C15.0466 7.43029 14.8676 7.4913 14.8036 7.5393Z" fill="white"/>
<path fill-rule="evenodd" clip-rule="evenodd" d="M15.0165 6.73309C15.0165 6.51109 15.0165 6.32009 15.0165 6.15409C15.0146 6.00973 14.9826 5.86736 14.9225 5.73609C14.8927 5.61804 14.8773 5.49683 14.8766 5.37509C14.8516 5.24109 14.8575 5.04008 14.8185 4.88108C14.8 4.7888 14.789 4.69516 14.7856 4.60109C14.8016 4.55709 14.8605 4.60109 14.8855 4.55109C14.8522 4.30282 14.767 4.06433 14.6355 3.85109C14.5995 3.78609 14.5355 3.80809 14.4555 3.91309C14.3815 3.98209 14.4095 4.14009 14.4375 4.29009C14.6437 5.21913 14.7443 6.16848 14.7375 7.12009C14.7285 7.20309 15.0185 6.88409 15.0165 6.73309Z" fill="white"/>
<path fill-rule="evenodd" clip-rule="evenodd" d="M13.7526 5.49173C13.6336 5.49173 13.3836 5.25973 13.3106 5.12473C13.2989 5.09225 13.2941 5.05768 13.2965 5.02324C13.2989 4.9888 13.3085 4.95526 13.3246 4.92473C13.3686 4.89573 13.4366 4.86373 13.4876 4.89473C13.4876 4.89473 13.5406 4.96872 13.5306 4.97772C13.5956 5.00872 13.6236 4.99072 13.6306 4.96472C13.6306 4.91772 13.6116 4.89072 13.6106 4.83972C13.6132 4.81225 13.624 4.78621 13.6416 4.76494C13.6592 4.74367 13.6827 4.72815 13.7092 4.7204C13.7357 4.71265 13.7639 4.71302 13.7902 4.72145C13.8165 4.72989 13.8396 4.74601 13.8566 4.76773C13.8986 4.84304 13.9212 4.92753 13.9226 5.01372C13.9226 5.05372 13.8576 5.00672 13.8226 5.01372C13.7876 5.02072 13.7776 5.06472 13.7746 5.10272C13.7696 5.20872 13.7546 5.36973 13.7526 5.49173Z" fill="white"/>
<path fill-rule="evenodd" clip-rule="evenodd" d="M11.8117 6.97675C11.8258 6.63807 11.8208 6.29886 11.7967 5.96075C11.7847 5.54075 11.7157 4.72875 11.6837 4.59375C11.6467 4.33775 11.7887 4.62175 11.7687 4.47275C11.7038 4.22755 11.5826 4.00087 11.4147 3.81075C11.3617 3.73475 11.3627 3.71875 11.2797 3.82875C11.2248 3.99602 11.2287 4.177 11.2907 4.34176C11.4042 4.83278 11.4787 5.33199 11.5137 5.83475C11.5491 6.334 11.5534 6.83496 11.5267 7.33475C11.6167 7.34375 11.7607 7.19475 11.8117 6.97675Z" fill="white"/>
<path fill-rule="evenodd" clip-rule="evenodd" d="M15.4191 6.49947C15.2081 6.14647 14.891 5.76347 14.806 5.62147C14.721 5.47947 14.006 4.55346 13.912 4.46046C13.649 4.18446 14.032 4.41546 13.862 4.20246C13.7695 4.09191 13.6656 3.99137 13.552 3.90247C13.49 3.86247 13.4521 3.78646 13.4321 3.91646C13.4214 4.0308 13.4183 4.14573 13.4231 4.26047C13.4373 4.33925 13.4718 4.41298 13.5231 4.47446C14.2301 5.27709 14.8627 6.14232 15.413 7.05947C15.495 7.01247 15.4691 6.56147 15.4191 6.49947Z" fill="white"/>
<path fill-rule="evenodd" clip-rule="evenodd" d="M6.84583 5.71866C6.83083 5.74566 6.79682 5.77965 6.80782 5.81865C6.8164 5.83236 6.8286 5.84344 6.84306 5.85068C6.85753 5.85791 6.8737 5.86101 6.88982 5.85965C6.92382 5.85965 6.97181 5.86766 6.98181 5.84766C6.99331 5.83402 7.00095 5.81756 7.00394 5.79997C7.00693 5.78239 7.00517 5.76432 6.99883 5.74765C6.99359 5.73277 6.98454 5.71952 6.97258 5.70924C6.96062 5.69896 6.94617 5.69201 6.93068 5.68907C6.91518 5.68613 6.89919 5.68733 6.88429 5.69252C6.8694 5.69771 6.85614 5.70673 6.84583 5.71866Z" fill="#1BA400"/>
<path fill-rule="evenodd" clip-rule="evenodd" d="M13.5018 10.1511C13.7828 10.1611 13.9678 10.1641 14.2178 10.1931C14.2178 10.1931 14.4338 10.1721 14.5108 10.1601C14.8368 10.1291 14.8508 10.6251 14.8508 10.6251C14.8508 10.9161 14.7348 10.9311 14.5908 10.9621C14.5088 10.9721 14.4658 10.9131 14.4228 10.8491C14.3529 10.8726 14.2781 10.8774 14.2057 10.8631C14.0887 10.8561 13.9708 10.8561 13.8538 10.8491C13.7368 10.8421 13.6628 10.8621 13.5378 10.8491C13.5118 10.8901 13.4788 10.9491 13.4028 10.9281C13.3268 10.9071 13.2638 10.7431 13.2858 10.6081C13.3318 10.5081 13.3188 10.5421 13.3138 10.4991C12.1628 10.4701 11.0007 10.4181 9.87175 10.4331C8.98875 10.4331 8.11576 10.4741 7.24376 10.5101C7.04298 10.5362 6.83883 10.5094 6.65164 10.4322C6.46445 10.355 6.30074 10.2302 6.17676 10.0701C6.19876 10.0701 7.36475 10.1361 7.70575 10.1141C8.33675 10.1071 8.91176 10.0551 9.55376 10.0371C10.8188 10.0591 12.0718 10.0591 13.3368 10.1471C13.3059 10.1285 13.2814 10.1009 13.2666 10.0679C13.2518 10.035 13.2475 9.99836 13.2541 9.96289C13.2607 9.92743 13.2781 9.89486 13.3037 9.86951C13.3294 9.84416 13.3622 9.82726 13.3978 9.82108C13.4138 9.81008 13.4218 9.92105 13.4498 9.92105C13.5998 9.90705 13.5348 10.1091 13.5018 10.1511Z" fill="white"/>
<path fill-rule="evenodd" clip-rule="evenodd" d="M8.51829 4.13089C8.32629 4.67889 8.62829 5.27789 8.83729 5.21889C8.98829 5.28189 9.08428 4.99489 9.14628 4.67989C9.18828 4.59189 9.22029 4.57989 9.24629 4.62789C9.24029 5.04589 9.27628 5.13789 9.38328 5.26489C9.4453 5.32028 9.52515 5.35156 9.60829 5.35303C9.69143 5.3545 9.77235 5.32606 9.83629 5.27289L10.0233 5.08689C10.0432 5.06602 10.0704 5.05356 10.0992 5.05207C10.128 5.05058 10.1563 5.06018 10.1783 5.07889C10.2353 5.13089 10.2273 5.22089 10.3493 5.27889C10.413 5.30015 10.4813 5.30404 10.547 5.29015C10.6127 5.27627 10.6736 5.24511 10.7233 5.19989C10.7913 5.08289 10.8083 5.04189 10.8403 4.99989C10.8893 4.93489 10.9723 4.96389 10.9723 4.98389C10.9643 5.01989 10.9153 5.05689 10.9493 5.12189C11.0073 5.16589 11.0213 5.13789 11.0553 5.12789C11.1773 5.06989 11.2683 4.80489 11.2683 4.80489C11.2733 4.70489 11.2183 4.71389 11.1823 4.73489C11.1463 4.75589 11.1323 4.77289 11.0823 4.80089C11.0223 4.80989 10.9073 4.84889 10.8503 4.76089C10.8106 4.64241 10.7772 4.52191 10.7503 4.39989C10.7503 4.39189 10.6733 4.23089 10.7453 4.22089C10.7813 4.22789 10.8593 4.24789 10.8713 4.18289C10.9093 4.11889 10.7903 3.93989 10.7083 3.84789C10.6923 3.82879 10.6724 3.81329 10.6499 3.80241C10.6275 3.79154 10.603 3.78552 10.5781 3.78477C10.5532 3.78401 10.5283 3.78854 10.5053 3.79804C10.4822 3.80753 10.4614 3.8218 10.4443 3.83989C10.3783 3.90089 10.3873 3.96889 10.3743 4.03389C10.3632 4.07967 10.363 4.12743 10.3738 4.17329C10.3845 4.21916 10.406 4.26185 10.4363 4.29789C10.5477 4.45369 10.6001 4.64401 10.5843 4.83489C10.5637 4.86729 10.5349 4.89362 10.5008 4.91119C10.4667 4.92877 10.4286 4.93695 10.3903 4.93489C10.3393 4.92389 10.2553 4.90189 10.2113 4.57289C10.1773 4.32389 10.2193 3.97289 10.1113 3.81289C10.0733 3.71289 10.0453 3.61989 9.95228 3.78789C9.9125 3.84043 9.88668 3.90221 9.87724 3.96744C9.8678 4.03267 9.87502 4.09922 9.89827 4.16089C9.96997 4.34568 9.99072 4.54635 9.95829 4.74189C9.92592 4.79766 9.88875 4.85052 9.84727 4.89989C9.81819 4.93274 9.77833 4.95412 9.73488 4.96018C9.69142 4.96623 9.64722 4.95655 9.61027 4.93289C9.57183 4.91413 9.53876 4.88595 9.51411 4.85099C9.48946 4.81603 9.47404 4.7754 9.46928 4.73289C9.48752 4.51877 9.48013 4.30325 9.44728 4.09089C9.44045 4.07224 9.42896 4.05566 9.41389 4.04273C9.39882 4.02979 9.38069 4.02094 9.36122 4.01703C9.34175 4.01312 9.32158 4.01427 9.30269 4.02037C9.28379 4.02647 9.26678 4.03733 9.25328 4.05189C9.0708 4.25534 8.94889 4.50577 8.90129 4.77489C8.84729 4.95089 8.78927 4.89989 8.74827 4.82889C8.64527 4.73789 8.63829 4.01089 8.51829 4.13089Z" fill="white"/>
<path fill-rule="evenodd" clip-rule="evenodd" d="M9.17851 5.04562C9.26551 4.98462 9.22551 4.94563 9.35551 5.07063C9.5217 5.36455 9.61849 5.69257 9.6385 6.02963C9.6315 6.10863 9.6865 6.15863 9.7125 6.14063C9.7275 5.95563 10.1775 5.69763 10.5895 5.66063C10.6525 5.64663 10.6215 5.52563 10.6325 5.46063C10.6212 5.40657 10.6219 5.35067 10.6346 5.29692C10.6473 5.24317 10.6717 5.19288 10.7061 5.14963C10.7405 5.10638 10.7839 5.07123 10.8334 5.04668C10.8829 5.02213 10.9371 5.00878 10.9923 5.00758C11.0476 5.00639 11.1024 5.01738 11.1529 5.03976C11.2034 5.06215 11.2483 5.09538 11.2845 5.1371C11.3207 5.17882 11.3473 5.22801 11.3623 5.28116C11.3773 5.33431 11.3805 5.39013 11.3715 5.44463C11.3395 5.90263 10.8635 5.97963 10.5955 6.01663C10.5545 6.03263 10.5375 6.05162 10.5955 6.07362L11.7175 6.07863L11.7745 6.11163C11.7815 6.13863 11.7575 6.11162 11.7135 6.18962C11.652 6.29828 11.6135 6.41845 11.6005 6.54263C11.2637 6.64222 10.9181 6.70919 10.5685 6.74263C10.4465 6.80463 10.3855 6.88663 10.4105 6.97963C10.4515 7.07963 10.7225 7.18462 10.7225 7.18962C10.7745 7.22162 10.8345 7.29662 10.7075 7.45062C10.4855 7.46271 10.2644 7.41465 10.0674 7.31151C9.87047 7.20837 9.70501 7.05398 9.58851 6.86462C9.54451 6.83062 9.4965 6.86463 9.4665 6.90863C9.2756 7.20156 9.00055 7.42989 8.6775 7.56363C8.57933 7.5892 8.47588 7.58622 8.37934 7.55504C8.2828 7.52386 8.19716 7.46578 8.13249 7.38762C8.06249 7.30662 8.0645 7.21763 8.0395 7.19763C7.9225 7.24963 6.9115 7.67962 7.0395 7.47862C7.36649 7.20849 7.71725 6.96852 8.0875 6.76163C8.1145 6.67463 8.16351 6.37963 8.31251 6.28363C8.32151 6.28363 8.28848 6.45663 8.29148 6.52963C8.29448 6.60263 8.29149 6.61263 8.30049 6.59763C8.4933 6.45928 8.66711 6.29622 8.81748 6.11263C8.86248 6.04963 8.83048 5.88963 8.83048 5.88463C8.74448 5.66363 8.62448 5.64563 8.58048 5.53563C8.54048 5.38963 8.55849 5.22363 8.64149 5.17763C8.65808 5.16215 8.67766 5.15022 8.69902 5.14256C8.72037 5.1349 8.74308 5.13168 8.76573 5.13309C8.78837 5.13449 8.81048 5.14049 8.83073 5.15073C8.85098 5.16096 8.86894 5.17522 8.88349 5.19263C8.98318 5.29265 9.05254 5.41885 9.08351 5.55663C9.06751 5.60463 8.96249 5.52563 8.92649 5.54863C8.98712 5.6155 9.02799 5.69789 9.0445 5.78662C9.10042 5.95395 9.09366 6.1359 9.02549 6.29863C8.87636 6.60189 8.6357 6.85061 8.3375 7.00963C8.33321 7.04154 8.33795 7.07402 8.35121 7.10336C8.36447 7.13271 8.3857 7.15776 8.41249 7.17563C8.45744 7.19589 8.50618 7.20636 8.55549 7.20636C8.6048 7.20636 8.65355 7.19589 8.6985 7.17563C8.99437 7.01145 9.23355 6.76147 9.3845 6.45863C9.40987 6.22954 9.38425 5.99767 9.30949 5.77963C9.22049 5.57463 9.11549 5.27963 9.11549 5.27963C9.11249 5.15363 9.12251 5.10962 9.17851 5.04562Z" fill="white"/>
<path fill-rule="evenodd" clip-rule="evenodd" d="M6.54409 4.16333C6.67309 4.22533 6.9161 4.19833 6.9061 3.99033C6.9061 3.97233 6.90609 3.90933 6.90009 3.89033C6.87309 3.82933 6.8001 3.84433 6.7851 3.90733C6.7801 3.92833 6.79409 3.96133 6.77509 3.97233C6.75609 3.98333 6.72309 3.97233 6.72509 3.91933C6.72254 3.90094 6.71493 3.88363 6.7031 3.86933C6.69489 3.86376 6.68497 3.86128 6.6751 3.86233C6.6571 3.86233 6.6571 3.86733 6.6471 3.88333C6.64163 3.89881 6.63825 3.91495 6.63709 3.93133C6.63709 3.95133 6.6271 3.95933 6.6121 3.96233C6.5971 3.96533 6.59909 3.96233 6.58509 3.95533C6.57109 3.94833 6.5671 3.94333 6.5671 3.92833C6.56719 3.91101 6.56449 3.89379 6.5591 3.87733C6.55071 3.86815 6.53939 3.86214 6.52709 3.86033C6.45609 3.86033 6.45209 3.94033 6.45609 3.97133C6.45109 3.97633 6.44809 4.12333 6.54409 4.16333Z" fill="white"/>
<path fill-rule="evenodd" clip-rule="evenodd" d="M9.91031 5.55981C10.0393 5.62081 10.3473 5.58581 10.2723 5.38681C10.2723 5.36781 10.2723 5.30581 10.2653 5.28681C10.2393 5.22581 10.1653 5.24081 10.1503 5.30381C10.1453 5.32481 10.1593 5.35882 10.1403 5.36882C10.1213 5.37882 10.0883 5.36881 10.0903 5.31581C10.0878 5.29742 10.0801 5.2801 10.0683 5.2658C10.0601 5.26024 10.0502 5.25777 10.0403 5.25881C10.0223 5.25881 10.0223 5.26381 10.0123 5.27981C10.0068 5.29527 10.0034 5.31143 10.0023 5.32781C10.0023 5.34881 9.9923 5.35581 9.9773 5.35881C9.9623 5.36181 9.96432 5.35882 9.95032 5.35182C9.93632 5.34482 9.93232 5.33982 9.93232 5.32382C9.93236 5.3065 9.92966 5.28928 9.92432 5.27281C9.91629 5.26369 9.90532 5.25768 9.89332 5.25581C9.82232 5.25581 9.81733 5.33682 9.82133 5.36682C9.81633 5.37282 9.81331 5.5168 9.90931 5.5568L9.91031 5.55981Z" fill="white"/>
<path fill-rule="evenodd" clip-rule="evenodd" d="M11.8732 4.98168C12.0022 5.04368 12.2452 5.0167 12.2352 4.8087C12.2352 4.7907 12.2352 4.72769 12.2292 4.70869C12.2032 4.64769 12.1292 4.66269 12.1142 4.72569C12.1092 4.74669 12.1232 4.77969 12.1042 4.79069C12.0852 4.80169 12.0522 4.7907 12.0542 4.7377C12.0515 4.71966 12.0439 4.70271 12.0322 4.68869C12.024 4.68312 12.0141 4.68065 12.0042 4.6817C11.9862 4.6817 11.9862 4.68669 11.9762 4.70269C11.9705 4.71812 11.9672 4.7343 11.9662 4.7507C11.9662 4.7717 11.9562 4.77869 11.9412 4.78169C11.9262 4.78469 11.9282 4.7817 11.9142 4.7747C11.9002 4.7677 11.8962 4.76269 11.8962 4.74769C11.8963 4.73004 11.8936 4.71248 11.8882 4.69569C11.8797 4.68669 11.8684 4.68073 11.8562 4.67869C11.7852 4.67869 11.7812 4.7597 11.7852 4.7897C11.7802 4.7977 11.7772 4.94268 11.8732 4.98168Z" fill="white"/>
<path fill-rule="evenodd" clip-rule="evenodd" d="M12.7903 6.59885C12.7135 6.70916 12.6663 6.83731 12.6532 6.97107C12.64 7.10483 12.6614 7.2397 12.7153 7.36284C12.7668 7.49882 12.866 7.61147 12.9943 7.67984C13.015 7.69783 13.0392 7.71137 13.0654 7.71959C13.0916 7.72781 13.1193 7.73055 13.1466 7.72765C13.1738 7.72474 13.2003 7.71624 13.2241 7.70268C13.248 7.68913 13.2688 7.6708 13.2853 7.64885C13.4173 7.51185 13.4193 7.16084 13.4853 7.09184C13.4897 7.06988 13.5003 7.04963 13.5158 7.03352C13.5314 7.0174 13.5513 7.00609 13.5731 7.00093C13.5949 6.99577 13.6177 6.99698 13.6388 7.00441C13.66 7.01184 13.6785 7.02518 13.6923 7.04285C13.7404 7.11179 13.805 7.16751 13.8803 7.20485C13.9343 7.25932 14.0062 7.29238 14.0827 7.2979C14.1592 7.30341 14.2351 7.28101 14.2963 7.23485C14.4015 7.1754 14.4807 7.07873 14.5183 6.96384C14.5647 6.48383 14.5697 6.00072 14.5333 5.51984C14.5333 5.48284 14.4053 4.86885 14.4053 4.86285C14.4053 4.85685 14.3893 4.54984 14.3753 4.47684C14.3753 4.44684 14.3663 4.43885 14.3973 4.44185C14.4138 4.45855 14.4336 4.4718 14.4553 4.48084C14.4883 4.48684 14.5183 4.43084 14.4983 4.38084L14.1903 3.81284C14.1653 3.78884 14.1333 3.76185 14.0903 3.81985C14.0663 3.84092 14.047 3.86692 14.0339 3.89608C14.0208 3.92524 14.0141 3.95687 14.0143 3.98885C14.0233 4.12385 14.0473 4.26084 14.0563 4.39584L14.1793 5.08784C14.2183 5.58084 14.2273 5.98784 14.2663 6.47784C14.2613 6.68684 14.1963 6.86884 14.1353 6.89484C14.1353 6.89484 14.0423 6.94885 13.9803 6.88885C13.895 6.79676 13.8193 6.69624 13.7543 6.58884C13.7415 6.57187 13.725 6.55809 13.706 6.54861C13.687 6.53912 13.666 6.53418 13.6448 6.53418C13.6235 6.53418 13.6026 6.53912 13.5836 6.54861C13.5646 6.55809 13.548 6.57187 13.5353 6.58884C13.3736 6.81301 13.2434 7.0583 13.1483 7.31784C13.1163 7.36784 13.0263 7.41184 12.9273 7.31784C12.795 7.10306 12.7463 6.8472 12.7903 6.59885Z" fill="white"/>
<path fill-rule="evenodd" clip-rule="evenodd" d="M11.9395 3.87719C12.0012 3.92249 12.0496 3.9835 12.0796 4.05384C12.1097 4.12419 12.1204 4.20132 12.1105 4.27719C12.0875 4.41919 12.0255 4.57119 11.9815 4.55119C11.9375 4.53119 12.0145 4.41019 11.9685 4.28119C11.9425 4.19719 11.7845 4.04419 11.8015 3.99819C11.7655 3.90219 11.8655 3.86519 11.9395 3.87719Z" fill="white"/>
<path fill-rule="evenodd" clip-rule="evenodd" d="M13.2668 6.77434C13.2774 6.56771 13.2694 6.36054 13.2428 6.15535C13.2358 5.99035 13.0558 4.72735 13.0198 4.60235C12.9758 4.36535 13.1948 4.57035 13.1708 4.43335C13.0948 4.25935 12.9068 4.00734 12.8478 3.85634C12.8118 3.79134 12.8268 3.73435 12.7478 3.83935C12.6785 4.02744 12.6538 4.22908 12.6758 4.42834C12.8991 5.33072 13.0179 6.25581 13.0298 7.18535C13.1188 7.18235 13.2228 6.98234 13.2668 6.77434Z" fill="white"/>
<path fill-rule="evenodd" clip-rule="evenodd" d="M14.9955 4.22213C15.1005 4.27413 15.1625 4.56814 15.1515 4.65214C15.1305 4.80514 15.0745 4.97113 15.0345 4.95213C14.9945 4.93313 15.0425 4.72513 15.0225 4.66013C14.9995 4.56913 14.8555 4.40313 14.8705 4.35413C14.8634 4.33637 14.8615 4.31694 14.865 4.29813C14.8686 4.27933 14.8775 4.26194 14.8907 4.24804C14.9038 4.23414 14.9207 4.22431 14.9393 4.21972C14.9579 4.21513 14.9774 4.21596 14.9955 4.22213Z" fill="white"/>
<path fill-rule="evenodd" clip-rule="evenodd" d="M8.02006 6.03859C8.12006 6.07759 8.18007 6.29359 8.16907 6.35459C8.14907 6.46759 8.09507 6.5896 8.05707 6.5736C8.01907 6.5576 8.06605 6.4066 8.04505 6.3586C8.03605 6.2426 7.89705 6.18359 7.89905 6.13359C7.87405 6.04259 7.95806 6.02159 8.02006 6.03859Z" fill="white"/>
<path fill-rule="evenodd" clip-rule="evenodd" d="M10.2183 6.32232C10.3483 6.33032 10.4183 6.43232 10.2913 6.47532C10.1643 6.51832 10.0553 6.54831 10.0543 6.72231C10.0993 6.96531 9.99329 6.88132 9.93029 6.84832C9.84691 6.8007 9.77549 6.73469 9.72142 6.65533C9.66736 6.57597 9.6321 6.48534 9.61831 6.39031C9.61747 6.37338 9.62031 6.35646 9.62667 6.34074C9.63302 6.32501 9.64274 6.31087 9.65511 6.29926C9.66748 6.28766 9.6822 6.27888 9.69829 6.27354C9.71439 6.26819 9.73146 6.26641 9.74831 6.26832C9.90358 6.2969 10.0606 6.31494 10.2183 6.32232Z" fill="#1B9D00"/>
<path fill-rule="evenodd" clip-rule="evenodd" d="M5.61565 3.82143C5.76465 3.86643 5.77365 4.08543 5.76265 4.14943C5.74265 4.26643 5.69065 4.39243 5.65265 4.37543C5.61465 4.35843 5.65265 4.20243 5.63165 4.15343C5.60965 4.08443 5.48365 3.95343 5.49765 3.92043C5.47265 3.84143 5.55765 3.80743 5.61565 3.82143Z" fill="white"/>
<path fill-rule="evenodd" clip-rule="evenodd" d="M8.23096 4.72547C8.17456 4.76245 8.13424 4.8194 8.11811 4.88488C8.10197 4.95036 8.11122 5.01952 8.14398 5.07847C8.16514 5.10628 8.19429 5.12693 8.22754 5.13766C8.2608 5.14839 8.29654 5.14867 8.32996 5.13847C8.44196 5.15247 8.50797 4.92848 8.50797 4.92848C8.50797 4.92848 8.50796 4.86548 8.37796 4.98448C8.32196 4.99448 8.31497 4.97447 8.30097 4.94247C8.2874 4.88384 8.29337 4.8224 8.31797 4.76748C8.33797 4.71148 8.29496 4.68747 8.23096 4.72547Z" fill="white"/>
<path fill-rule="evenodd" clip-rule="evenodd" d="M9.0062 3.75769C8.95801 3.79142 8.91752 3.83497 8.88736 3.88547C8.8572 3.93596 8.83807 3.99227 8.83121 4.05069C8.83121 4.12769 8.8132 4.1277 8.8642 4.1767C8.9152 4.2257 8.9372 4.22469 9.0112 4.18569C9.02914 4.17464 9.04469 4.16009 9.05689 4.14291C9.06909 4.12573 9.0777 4.10627 9.08222 4.08569C9.09922 3.99869 8.9902 4.12669 8.9762 4.02969C8.9622 3.93269 9.0222 3.9027 9.0882 3.8147C9.0892 3.7477 9.0872 3.70569 9.0062 3.75769Z" fill="white"/>
<path fill-rule="evenodd" clip-rule="evenodd" d="M9.61003 3.86987C9.58289 3.98138 9.56647 4.09523 9.56102 4.20987C9.54102 4.29487 9.65002 4.33087 9.70002 4.22187C9.74883 4.10408 9.77559 3.97833 9.779 3.85087C9.753 3.72187 9.66503 3.72587 9.61003 3.86987Z" fill="white"/>
<path fill-rule="evenodd" clip-rule="evenodd" d="M13.4462 5.83205C13.4612 5.81705 14.0602 5.39204 14.0602 5.39204C14.1212 5.37004 14.1082 5.61105 14.0802 5.61005C13.8946 5.79024 13.6808 5.93887 13.4472 6.05005C13.4132 6.07105 13.3872 5.88405 13.4462 5.83205Z" fill="white"/>
<path fill-rule="evenodd" clip-rule="evenodd" d="M13.9721 5.76671C14.0781 5.81971 14.1201 6.12772 14.1081 6.21172C14.1081 6.37472 14.0081 6.50571 13.9661 6.48471C13.9241 6.46371 13.9661 6.28471 13.9491 6.21671C13.9261 6.12571 13.8361 5.95472 13.8491 5.90572C13.8404 5.88805 13.8372 5.86823 13.8397 5.84873C13.8423 5.82922 13.8505 5.8109 13.8634 5.79607C13.8763 5.78123 13.8934 5.77053 13.9123 5.76531C13.9313 5.76008 13.9514 5.76057 13.9701 5.76671H13.9721Z" fill="white"/>
<path fill-rule="evenodd" clip-rule="evenodd" d="M10.7671 6.95618C10.8174 6.89876 10.8756 6.84892 10.9401 6.80819C10.9592 6.80093 10.9798 6.79896 10.9999 6.80248C11.02 6.806 11.0387 6.81489 11.0541 6.82819C11.0641 6.88819 11.0172 6.94319 11.0322 7.02219C11.0452 7.05419 11.0542 7.08919 11.1132 7.07619C11.1934 7.01702 11.2916 6.98736 11.3911 6.99219C11.4641 6.99219 11.4671 7.12019 11.4211 7.12119C11.2905 7.1531 11.1632 7.19764 11.0412 7.25419C11.024 7.26483 11.0037 7.26925 10.9837 7.2667C10.9636 7.26415 10.9451 7.25479 10.9311 7.24019C10.92 7.22394 10.9133 7.2051 10.9115 7.18549C10.9098 7.16588 10.9131 7.14616 10.9211 7.12819C10.9211 7.06519 10.9002 7.02819 10.8472 7.03719C10.7942 7.04619 10.7731 7.0732 10.7531 7.0272C10.7331 6.9812 10.7421 6.97518 10.7671 6.95618Z" fill="white"/>
<path fill-rule="evenodd" clip-rule="evenodd" d="M14.5199 7.10041C14.5284 7.10763 14.5352 7.11661 14.5398 7.12671C14.5445 7.13681 14.5469 7.14779 14.5469 7.15891C14.5469 7.17003 14.5445 7.18101 14.5398 7.1911C14.5352 7.2012 14.5284 7.21018 14.5199 7.21741C14.4779 7.25641 14.448 7.27742 14.406 7.31742C14.386 7.35142 14.3739 7.40241 14.4339 7.41741C14.5459 7.44841 14.805 7.28141 14.805 7.27741C14.8178 7.26654 14.827 7.25197 14.8313 7.23569C14.8356 7.21941 14.8348 7.2022 14.8289 7.1864C14.8049 7.1584 14.749 7.17541 14.712 7.17041C14.694 7.17041 14.636 7.16142 14.664 7.11042C14.6839 7.0825 14.6997 7.05185 14.711 7.01941C14.728 6.98041 14.711 6.95541 14.65 6.93441C14.5967 6.92551 14.5422 6.92551 14.4889 6.93441C14.4509 6.94241 14.437 6.95941 14.43 7.00641C14.433 7.07641 14.4759 7.07241 14.5199 7.10041Z" fill="white"/>
<path fill-rule="evenodd" clip-rule="evenodd" d="M10.8369 5.59969C10.8204 5.62825 10.7644 5.62709 10.7125 5.59704C10.6606 5.567 10.6317 5.51909 10.6482 5.49052C10.6647 5.46196 10.7201 5.46399 10.7721 5.49404C10.824 5.52408 10.8529 5.57199 10.8369 5.59969Z" fill="#259F00"/>
<path fill-rule="evenodd" clip-rule="evenodd" d="M8.39654 4.16867C8.37671 4.16953 8.35712 4.16396 8.34072 4.15278C8.32432 4.14161 8.31199 4.12544 8.30554 4.10667C8.28654 4.06467 8.29654 4.02467 8.32754 4.01767C8.34737 4.0168 8.36693 4.02238 8.38333 4.03355C8.39973 4.04472 8.41209 4.0609 8.41854 4.07967C8.43754 4.12067 8.42754 4.16067 8.39654 4.16867Z" fill="#259F00"/>
<path fill-rule="evenodd" clip-rule="evenodd" d="M13.1471 10.5352C13.4341 10.5492 13.703 10.5352 13.99 10.5522C14.042 10.5962 14.0051 10.7052 13.9701 10.6972L13.7301 10.6902C13.7301 10.5982 13.4941 10.6142 13.5011 10.6902C13.379 10.6971 13.2566 10.6941 13.1351 10.6812C13.0981 10.6352 13.1031 10.5542 13.1471 10.5352Z" fill="#209000"/>
</svg>
