<svg width="297" height="265" viewBox="0 0 297 265" fill="none" xmlns="http://www.w3.org/2000/svg">
<path d="M0.0191029 228.266L1.9501 246.324C2.05375 247.292 2.51181 248.188 3.23619 248.839C3.96057 249.49 4.90012 249.85 5.8741 249.851C6.92091 249.851 7.92485 249.435 8.66505 248.694C9.40526 247.954 9.8211 246.95 9.8211 245.904V224.52H3.3861C2.91102 224.52 2.44126 224.619 2.00732 224.813C1.57338 225.006 1.18498 225.289 0.867349 225.642C0.549716 225.995 0.309957 226.411 0.163647 226.863C0.017336 227.315 -0.0312523 227.793 0.0191029 228.266Z" fill="#003367"/>
<path d="M62.7845 172.529H13.2085C12.3102 172.529 11.4487 172.886 10.8135 173.521C10.1784 174.157 9.82151 175.018 9.82151 175.916V245.998C9.82098 246.989 9.43864 247.941 8.75399 248.657C8.06935 249.373 7.1351 249.798 6.14551 249.842L6.40851 249.851H62.7845C63.6828 249.851 64.5443 249.494 65.1795 248.859C65.8147 248.224 66.1715 247.363 66.1715 246.464V175.916C66.1715 175.472 66.0839 175.031 65.9137 174.62C65.7435 174.209 65.494 173.836 65.1795 173.521C64.865 173.207 64.4916 172.957 64.0807 172.787C63.6697 172.617 63.2293 172.529 62.7845 172.529Z" fill="#0B56A3"/>
<path d="M56.6875 216.424H19.3045C18.9517 216.415 18.6165 216.268 18.3703 216.015C18.1241 215.762 17.9863 215.423 17.9863 215.07C17.9863 214.717 18.1241 214.378 18.3703 214.125C18.6165 213.872 18.9517 213.725 19.3045 213.715H56.6875C56.8685 213.71 57.0486 213.742 57.2173 213.808C57.3859 213.874 57.5396 213.973 57.6694 214.099C57.7991 214.225 57.9022 214.376 57.9726 214.543C58.043 214.71 58.0793 214.889 58.0793 215.07C58.0793 215.251 58.043 215.43 57.9726 215.597C57.9022 215.764 57.7991 215.915 57.6694 216.041C57.5396 216.167 57.3859 216.266 57.2173 216.332C57.0486 216.398 56.8685 216.429 56.6875 216.424Z" fill="white"/>
<path d="M56.6869 224.989H19.3039C19.1229 224.994 18.9428 224.962 18.7742 224.896C18.6056 224.831 18.4518 224.732 18.3221 224.605C18.1923 224.479 18.0892 224.328 18.0188 224.161C17.9484 223.995 17.9121 223.815 17.9121 223.634C17.9121 223.453 17.9484 223.274 18.0188 223.107C18.0892 222.94 18.1923 222.79 18.3221 222.663C18.4518 222.537 18.6056 222.438 18.7742 222.372C18.9428 222.306 19.1229 222.275 19.3039 222.28H56.6869C56.8679 222.275 57.048 222.306 57.2166 222.372C57.3853 222.438 57.539 222.537 57.6688 222.663C57.7985 222.79 57.9016 222.94 57.972 223.107C58.0424 223.274 58.0787 223.453 58.0787 223.634C58.0787 223.815 58.0424 223.995 57.972 224.161C57.9016 224.328 57.7985 224.479 57.6688 224.605C57.539 224.732 57.3853 224.831 57.2166 224.896C57.048 224.962 56.8679 224.994 56.6869 224.989Z" fill="white"/>
<path d="M39.3987 234.477H19.2987C18.9458 234.467 18.6106 234.32 18.3644 234.067C18.1182 233.814 17.9805 233.475 17.9805 233.122C17.9805 232.769 18.1182 232.43 18.3644 232.177C18.6106 231.924 18.9458 231.777 19.2987 231.768H39.3987C39.7515 231.777 40.0867 231.924 40.3329 232.177C40.5791 232.43 40.7169 232.769 40.7169 233.122C40.7169 233.475 40.5791 233.814 40.3329 234.067C40.0867 234.32 39.7515 234.467 39.3987 234.477Z" fill="white"/>
<path d="M56.6869 207.866H19.3039C19.1229 207.871 18.9428 207.839 18.7742 207.773C18.6056 207.708 18.4518 207.609 18.3221 207.482C18.1923 207.356 18.0892 207.205 18.0188 207.038C17.9484 206.871 17.9121 206.692 17.9121 206.511C17.9121 206.33 17.9484 206.151 18.0188 205.984C18.0892 205.817 18.1923 205.666 18.3221 205.54C18.4518 205.414 18.6056 205.315 18.7742 205.249C18.9428 205.183 19.1229 205.152 19.3039 205.157H56.6869C56.8679 205.152 57.048 205.183 57.2166 205.249C57.3853 205.315 57.539 205.414 57.6688 205.54C57.7985 205.666 57.9016 205.817 57.972 205.984C58.0424 206.151 58.0787 206.33 58.0787 206.511C58.0787 206.692 58.0424 206.871 57.972 207.038C57.9016 207.205 57.7985 207.356 57.6688 207.482C57.539 207.609 57.3853 207.708 57.2166 207.773C57.048 207.839 56.8679 207.871 56.6869 207.866Z" fill="white"/>
<path d="M37.9956 205.152H19.3026C18.9497 205.162 18.6145 205.309 18.3683 205.562C18.1221 205.815 17.9844 206.154 17.9844 206.507C17.9844 206.86 18.1221 207.199 18.3683 207.452C18.6145 207.705 18.9497 207.852 19.3026 207.861H37.9956V205.152Z" fill="white"/>
<path d="M37.9956 213.717H19.3026C18.9497 213.726 18.6145 213.873 18.3683 214.126C18.1221 214.379 17.9844 214.718 17.9844 215.071C17.9844 215.424 18.1221 215.763 18.3683 216.016C18.6145 216.269 18.9497 216.416 19.3026 216.426H37.9956V213.717Z" fill="white"/>
<path d="M37.9956 222.281H19.3026C18.9497 222.291 18.6145 222.438 18.3683 222.691C18.1221 222.944 17.9844 223.283 17.9844 223.636C17.9844 223.989 18.1221 224.328 18.3683 224.581C18.6145 224.834 18.9497 224.981 19.3026 224.99H37.9956V222.281Z" fill="white"/>
<path d="M37.9956 231.768H19.3026C18.9497 231.777 18.6145 231.924 18.3683 232.177C18.1221 232.43 17.9844 232.769 17.9844 233.122C17.9844 233.475 18.1221 233.814 18.3683 234.067C18.6145 234.32 18.9497 234.467 19.3026 234.477H37.9956V231.768Z" fill="white"/>
<path d="M24.5586 194.012H28.0181C29.9668 194.012 31.1221 193.053 31.1221 191.441V191.428C31.1221 190.216 30.3223 189.327 29.002 189.175V189.149C29.9478 189.016 30.6587 188.096 30.6587 187.15V187.137C30.6587 185.766 29.5986 184.852 28.0308 184.852H24.5586V194.012ZM27.7705 185.861C28.875 185.861 29.5034 186.356 29.5034 187.258V187.271C29.5034 188.261 28.7671 188.8 27.415 188.8H25.7012V185.861H27.7705ZM27.7388 189.784C29.1987 189.784 29.9478 190.324 29.9478 191.384V191.396C29.9478 192.45 29.2178 193.002 27.8467 193.002H25.7012V189.784H27.7388ZM32.8677 186.293C33.2549 186.293 33.5596 185.982 33.5596 185.601C33.5596 185.214 33.2549 184.909 32.8677 184.909C32.4868 184.909 32.1758 185.214 32.1758 185.601C32.1758 185.982 32.4868 186.293 32.8677 186.293ZM32.3154 194.012H33.4199V187.41H32.3154V194.012ZM34.9814 194.012H36.0859V184.852H34.9814V194.012ZM37.6348 194.012H38.7393V184.852H37.6348V194.012ZM42.5732 194.139C44.0459 194.139 45.1377 193.326 45.1377 192.171V192.165C45.1377 191.225 44.6553 190.698 43.3223 190.375L42.2749 190.121C41.5449 189.943 41.2466 189.632 41.2466 189.181V189.175C41.2466 188.591 41.7417 188.204 42.5415 188.204C43.3604 188.204 43.8491 188.629 43.938 189.27L43.9443 189.314H44.998L44.9917 189.232C44.9092 188.127 43.9888 187.283 42.5415 187.283C41.1133 187.283 40.1167 188.089 40.1167 189.226V189.232C40.1167 190.184 40.7197 190.762 41.9639 191.06L43.0112 191.314C43.7603 191.498 44.0078 191.765 44.0078 192.241V192.247C44.0078 192.844 43.4746 193.218 42.5796 193.218C41.6782 193.218 41.1895 192.831 41.0562 192.171L41.0435 192.107H39.939L39.9453 192.165C40.0786 193.345 41.0181 194.139 42.5732 194.139Z" fill="white"/>
<path d="M71.2389 81.6693H22.8819C22.4478 81.6693 22.0188 81.5771 21.6231 81.3987C21.2275 81.2203 20.8743 80.9598 20.587 80.6345C20.2997 80.3092 20.0848 79.9265 19.9567 79.5118C19.8286 79.0971 19.7901 78.6599 19.8439 78.2293L25.2009 35.3783C25.2935 34.6381 25.6532 33.9572 26.2124 33.4635C26.7716 32.9698 27.4919 32.6973 28.2379 32.6973H65.8819C66.6282 32.6971 67.3488 32.9696 67.9082 33.4635C68.4677 33.9574 68.8275 34.6387 68.9199 35.3793L74.2759 78.2303C74.3296 78.6609 74.2912 79.098 74.1631 79.5126C74.035 79.9272 73.8203 80.3098 73.5331 80.6351C73.2459 80.9604 72.8928 81.221 72.4973 81.3994C72.1018 81.5779 71.6728 81.6692 71.2389 81.6693Z" fill="#0B56A3"/>
<path d="M66.3842 77.3829H56.3183C55.9935 77.3829 55.682 77.2539 55.4524 77.0242C55.2228 76.7946 55.0938 76.4831 55.0938 76.1584C55.0938 75.8336 55.2228 75.5222 55.4524 75.2925C55.682 75.0629 55.9935 74.9339 56.3183 74.9339H66.3842C66.4709 74.9338 66.5566 74.9153 66.6356 74.8797C66.7146 74.8441 66.7851 74.792 66.8425 74.7271C66.8999 74.6621 66.9428 74.5857 66.9685 74.503C66.9941 74.4202 67.0019 74.3329 66.9912 74.2469L65.8153 64.8249C65.7747 64.5026 65.8638 64.1775 66.0629 63.9209C66.2621 63.6644 66.555 63.4974 66.8773 63.4569C67.1995 63.4163 67.5246 63.5054 67.7812 63.7045C68.0377 63.9037 68.2047 64.1966 68.2452 64.5189L69.4222 73.9399C69.476 74.3704 69.4376 74.8074 69.3096 75.2219C69.1816 75.6365 68.9669 76.0191 68.6798 76.3444C68.3927 76.6696 68.0398 76.9302 67.6444 77.1087C67.249 77.2872 66.8201 77.3797 66.3863 77.3799L66.3842 77.3829Z" fill="white"/>
<path d="M47.0595 10.9395C43.3804 10.9395 39.852 12.401 37.2505 15.0025C34.649 17.604 33.1875 21.1324 33.1875 24.8115V32.6925H37.4725V24.8115C37.4725 22.2688 38.4826 19.8303 40.2805 18.0324C42.0784 16.2345 44.5169 15.2245 47.0595 15.2245C49.6021 15.2245 52.0406 16.2345 53.8385 18.0324C55.6364 19.8303 56.6465 22.2688 56.6465 24.8115V32.6925H60.9315V24.8115C60.9315 22.9898 60.5727 21.1859 59.8756 19.5029C59.1784 17.8198 58.1566 16.2906 56.8685 15.0025C55.5804 13.7143 54.0511 12.6925 52.3681 11.9954C50.6851 11.2983 48.8812 10.9395 47.0595 10.9395Z" fill="#4A3F35"/>
<path d="M89.047 54.6952C89.047 55.507 88.7245 56.2856 88.1504 56.8596C87.5764 57.4337 86.7978 57.7562 85.986 57.7562H43.68C43.222 57.7562 42.926 57.0882 43.136 56.5272L43.727 54.9462C44.212 53.6193 44.1618 52.1557 43.587 50.8652C43.0198 49.5895 42.9639 48.1448 43.431 46.8292L43.849 45.6782C44.2774 44.4968 44.2774 43.2025 43.849 42.0212L43.34 40.6212C42.9114 39.4398 42.9114 38.1455 43.34 36.9642L43.84 35.5862C44.2746 34.39 44.2678 33.0779 43.821 31.8862L43.136 30.0552C42.926 29.4942 43.222 28.8262 43.68 28.8262H85.98C86.7918 28.8262 87.5704 29.1487 88.1444 29.7227C88.7185 30.2968 89.041 31.0753 89.041 31.8872L89.047 54.6952Z" fill="#F79E3A"/>
<path d="M59.0355 46.5596C58.0174 47.5777 58.0174 49.2283 59.0355 50.2464C60.0536 51.2645 61.7042 51.2645 62.7223 50.2464L72.532 40.4367C73.5501 39.4186 73.5501 37.768 72.532 36.7499C71.5139 35.7318 69.8633 35.7318 68.8452 36.7499L59.0355 46.5596Z" fill="white"/>
<path d="M58.5971 40.6121C60.0098 40.6121 61.1551 39.4668 61.1551 38.0541C61.1551 36.6413 60.0098 35.4961 58.5971 35.4961C57.1843 35.4961 56.0391 36.6413 56.0391 38.0541C56.0391 39.4668 57.1843 40.6121 58.5971 40.6121Z" fill="white"/>
<path d="M73.475 51.0848C74.8877 51.0848 76.033 49.9395 76.033 48.5268C76.033 47.114 74.8877 45.9688 73.475 45.9688C72.0622 45.9688 70.917 47.114 70.917 48.5268C70.917 49.9395 72.0622 51.0848 73.475 51.0848Z" fill="white"/>
<path d="M47.0589 28.8262H43.6799C43.2219 28.8262 42.9259 29.4942 43.1359 30.0552L43.8209 31.8862C44.2678 33.0779 44.2745 34.39 43.8399 35.5862L43.3399 36.9642C42.9114 38.1455 42.9114 39.4398 43.3399 40.6212L43.8489 42.0212C44.2774 43.2025 44.2774 44.4968 43.8489 45.6782L43.4309 46.8292C42.9639 48.1448 43.0197 49.5895 43.5869 50.8652C44.1617 52.1557 44.2119 53.6193 43.7269 54.9462L43.1359 56.5272C42.9259 57.0882 43.2219 57.7562 43.6799 57.7562H47.0589V28.8262Z" fill="#F79E3A"/>
<path d="M223.074 208.684C223.063 204.032 224.433 199.482 227.008 195.609C229.584 191.735 233.251 188.713 237.545 186.924C241.839 185.135 246.567 184.66 251.132 185.558C255.696 186.457 259.891 188.69 263.186 191.973C266.481 195.256 268.728 199.444 269.643 204.004C270.558 208.565 270.099 213.295 268.326 217.596C266.552 221.896 263.542 225.573 259.678 228.163C255.814 230.752 251.268 232.138 246.616 232.143C240.385 232.151 234.405 229.684 229.991 225.285C225.576 220.887 223.089 214.916 223.074 208.684ZM237.563 220.855C237.563 221.876 238.087 222.29 239.55 221.711C241.675 220.911 243.8 220.111 245.925 219.255C246.143 219.159 246.378 219.11 246.615 219.11C246.853 219.11 247.088 219.159 247.305 219.255C249.43 220.111 251.555 220.911 253.68 221.739C255.088 222.263 255.722 221.739 255.639 220.359L255.225 213.515C255.203 213.278 255.228 213.039 255.299 212.811C255.37 212.584 255.486 212.373 255.639 212.19C257.129 210.424 258.592 208.63 260.027 206.836C260.965 205.704 260.717 204.959 259.309 204.601L252.63 202.89C252.402 202.849 252.185 202.758 251.995 202.625C251.805 202.491 251.647 202.318 251.53 202.117C250.288 200.13 249.019 198.143 247.749 196.183C247.031 195.083 246.203 195.083 245.514 196.183C244.214 198.17 242.92 200.157 241.65 202.172C241.551 202.355 241.413 202.513 241.246 202.637C241.079 202.761 240.888 202.848 240.684 202.89L233.95 204.629C232.515 204.988 232.266 205.788 233.177 206.92C234.695 208.714 236.158 210.535 237.677 212.44C237.804 212.575 237.899 212.735 237.955 212.911C238.012 213.086 238.029 213.272 238.004 213.455C237.866 215.663 237.729 217.981 237.563 220.855Z" fill="#F79E3A"/>
<path d="M282.77 209.097C282.571 209.346 282.312 209.539 282.017 209.66C281.722 209.781 281.402 209.825 281.086 209.787H274.601C274.333 209.759 274.087 209.629 273.912 209.425C273.737 209.22 273.648 208.956 273.663 208.687C273.655 208.547 273.676 208.408 273.726 208.277C273.776 208.146 273.853 208.027 273.952 207.928C274.051 207.829 274.17 207.752 274.301 207.702C274.432 207.652 274.572 207.63 274.712 207.638H281.694C282.194 207.638 282.467 208.024 282.77 208.356V209.097Z" fill="#F79E3A"/>
<path d="M246.201 244.837C245.95 244.665 245.751 244.427 245.625 244.15C245.498 243.873 245.449 243.567 245.483 243.264C245.483 241.222 245.483 239.18 245.483 237.137C245.483 236.254 245.925 235.702 246.615 235.729C247.305 235.756 247.691 236.253 247.715 237.109V243.457C247.714 243.725 247.651 243.989 247.531 244.228C247.412 244.468 247.238 244.676 247.025 244.837H246.201Z" fill="#F79E3A"/>
<path d="M245.488 177.055V173.829C245.468 173.668 245.483 173.504 245.53 173.349C245.578 173.193 245.658 173.05 245.764 172.927C245.871 172.804 246.003 172.706 246.15 172.637C246.297 172.569 246.458 172.532 246.62 172.529C247.282 172.529 247.72 172.998 247.72 173.799V180.367C247.72 181.167 247.278 181.609 246.588 181.581C245.898 181.553 245.512 181.112 245.512 180.281L245.488 177.055Z" fill="#F79E3A"/>
<path d="M215.042 207.553H218.216C219.044 207.553 219.486 207.967 219.516 208.629C219.546 209.291 219.074 209.761 218.216 209.788H211.816C210.96 209.788 210.464 209.346 210.464 208.656C210.464 207.966 210.988 207.556 211.816 207.556L215.042 207.553Z" fill="#F79E3A"/>
<path d="M216.255 190.054C216.55 190.048 216.84 190.135 217.083 190.302L222.603 193.502C222.755 193.566 222.892 193.662 223.005 193.783C223.117 193.904 223.203 194.048 223.255 194.205C223.307 194.362 223.325 194.528 223.308 194.692C223.291 194.857 223.239 195.016 223.155 195.158C222.796 195.738 222.217 195.82 221.499 195.434L215.842 192.124C215.602 192.021 215.405 191.839 215.284 191.607C215.164 191.376 215.127 191.11 215.18 190.854C215.238 190.616 215.377 190.406 215.573 190.26C215.77 190.114 216.011 190.041 216.256 190.054H216.255Z" fill="#F79E3A"/>
<path d="M232.484 185.363C232.279 185.361 232.078 185.304 231.903 185.197C231.728 185.09 231.585 184.937 231.49 184.756C230.39 182.824 229.255 180.892 228.178 178.956C228.089 178.828 228.028 178.683 227.999 178.53C227.971 178.377 227.975 178.22 228.011 178.069C228.048 177.918 228.116 177.776 228.211 177.653C228.306 177.53 228.427 177.429 228.564 177.356C228.696 177.282 228.843 177.236 228.994 177.223C229.145 177.21 229.297 177.228 229.44 177.278C229.584 177.327 229.715 177.406 229.825 177.51C229.936 177.614 230.023 177.74 230.082 177.88L233.395 183.622C233.864 184.507 233.423 185.363 232.484 185.363Z" fill="#F79E3A"/>
<path d="M270.985 195.686C270.747 195.697 270.513 195.623 270.326 195.476C270.139 195.329 270.01 195.12 269.964 194.886C269.872 194.637 269.882 194.361 269.99 194.118C270.098 193.876 270.297 193.685 270.544 193.586L273.464 191.877L276.224 190.277C276.349 190.194 276.49 190.137 276.638 190.11C276.786 190.083 276.938 190.086 277.084 190.12C277.231 190.154 277.369 190.218 277.49 190.308C277.61 190.397 277.712 190.51 277.787 190.641C277.862 190.771 277.91 190.915 277.928 191.064C277.945 191.214 277.932 191.365 277.888 191.509C277.845 191.653 277.772 191.787 277.675 191.902C277.578 192.017 277.459 192.11 277.324 192.177L271.454 195.548C271.318 195.648 271.153 195.697 270.985 195.686Z" fill="#F79E3A"/>
<path d="M233.616 232.971C233.61 233.234 233.533 233.492 233.395 233.716L230.056 239.456C229.978 239.644 229.848 239.806 229.683 239.925C229.517 240.044 229.322 240.114 229.119 240.129C228.915 240.143 228.712 240.101 228.532 240.006C228.351 239.912 228.2 239.769 228.096 239.594C227.976 239.419 227.912 239.212 227.912 239C227.912 238.789 227.976 238.582 228.096 238.407L231.408 232.607C231.522 232.366 231.718 232.173 231.96 232.062C232.202 231.951 232.476 231.929 232.733 232C232.967 232.042 233.18 232.16 233.34 232.335C233.5 232.511 233.597 232.734 233.616 232.971Z" fill="#F79E3A"/>
<path d="M223.322 222.902C223.295 223.083 223.226 223.254 223.121 223.403C223.015 223.552 222.876 223.673 222.715 223.758L216.781 227.148C216.659 227.221 216.523 227.268 216.382 227.286C216.241 227.304 216.098 227.294 215.961 227.255C215.824 227.216 215.696 227.15 215.586 227.061C215.475 226.971 215.384 226.86 215.318 226.734C215.231 226.615 215.171 226.479 215.144 226.334C215.116 226.189 215.121 226.04 215.158 225.898C215.195 225.755 215.263 225.622 215.357 225.509C215.452 225.396 215.57 225.306 215.704 225.244L221.776 221.822C221.949 221.745 222.14 221.714 222.329 221.732C222.518 221.749 222.699 221.816 222.855 221.925C223.01 222.034 223.135 222.181 223.217 222.352C223.299 222.523 223.335 222.713 223.322 222.902Z" fill="#F79E3A"/>
<path d="M278.022 226.429C277.995 226.595 277.928 226.752 277.827 226.887C277.726 227.021 277.594 227.13 277.443 227.203C277.291 227.276 277.124 227.312 276.956 227.306C276.788 227.301 276.623 227.256 276.476 227.174L270.459 223.696C270.329 223.628 270.214 223.533 270.121 223.419C270.027 223.305 269.959 223.173 269.918 223.031C269.877 222.89 269.866 222.741 269.885 222.595C269.903 222.449 269.951 222.308 270.025 222.181C270.1 222.054 270.199 221.943 270.318 221.856C270.436 221.768 270.571 221.706 270.715 221.672C270.858 221.638 271.007 221.633 271.152 221.659C271.297 221.684 271.436 221.739 271.559 221.819C273.518 222.919 275.478 224.082 277.438 225.214C277.644 225.337 277.809 225.517 277.912 225.733C278.015 225.949 278.052 226.191 278.018 226.428L278.022 226.429Z" fill="#F79E3A"/>
<path d="M265.216 239.042C265.203 239.273 265.12 239.496 264.977 239.678C264.833 239.861 264.638 239.995 264.416 240.063C264.188 240.151 263.935 240.151 263.707 240.065C263.478 239.978 263.29 239.811 263.177 239.594L261.767 237.165L259.867 233.881C259.398 233.081 259.508 232.473 260.115 232.115C260.722 231.757 261.302 232.115 261.743 232.75L264.943 238.27C265.1 238.499 265.196 238.765 265.219 239.043L265.216 239.042Z" fill="#F79E3A"/>
<path d="M265.245 178.325C265.196 178.562 265.103 178.786 264.969 178.987L261.74 184.507C261.298 185.252 260.719 185.445 260.112 185.114C259.505 184.783 259.422 184.148 259.864 183.403L263.148 177.883C263.252 177.641 263.444 177.447 263.685 177.339C263.926 177.232 264.198 177.219 264.448 177.303C264.67 177.372 264.865 177.506 265.007 177.689C265.15 177.872 265.233 178.094 265.245 178.325Z" fill="#F79E3A"/>
<path d="M140.381 35.6515C140.012 35.8699 139.581 35.9619 139.155 35.9137C138.728 35.8655 138.329 35.6796 138.018 35.3843L130.91 28.8268C130.812 28.7385 130.696 28.6748 130.569 28.6408C130.442 28.6068 130.309 28.6035 130.18 28.6313L120.742 30.7551C120.324 30.8514 119.887 30.8112 119.494 30.6404C119.102 30.4696 118.774 30.1772 118.56 29.8063C118.346 29.4354 118.257 29.0056 118.305 28.5801C118.353 28.1546 118.537 27.7559 118.829 27.4426L125.389 20.3322C125.477 20.2349 125.541 20.118 125.575 19.9911C125.609 19.8642 125.612 19.7311 125.584 19.6027L123.459 10.1651C123.356 9.74796 123.393 9.30864 123.565 8.91478C123.736 8.52093 124.033 8.19438 124.408 7.98541C124.777 7.76718 125.208 7.67522 125.634 7.72342C126.061 7.77163 126.46 7.95739 126.771 8.25261L133.881 14.8127C133.978 14.9009 134.095 14.9647 134.222 14.9987C134.349 15.0327 134.482 15.0359 134.61 15.0082L144.048 12.8826C144.465 12.7863 144.902 12.8266 145.295 12.9974C145.688 13.1682 146.015 13.4605 146.229 13.8314C146.444 14.2023 146.533 14.6321 146.485 15.0576C146.436 15.4832 146.252 15.8819 145.96 16.1951L139.403 23.3032C139.315 23.4005 139.251 23.5174 139.217 23.6443C139.183 23.7711 139.18 23.9043 139.207 24.0327L141.334 33.4698C141.436 33.8876 141.399 34.3276 141.227 34.7218C141.054 35.1161 140.757 35.4428 140.381 35.6515ZM125.003 9.01512C124.851 9.10001 124.731 9.23184 124.662 9.39072C124.592 9.5496 124.575 9.72691 124.615 9.89589L126.741 19.3321C126.812 19.6468 126.806 19.974 126.722 20.2857C126.639 20.5973 126.481 20.884 126.262 21.1211L119.703 28.2315C119.586 28.359 119.513 28.5205 119.494 28.6924C119.475 28.8643 119.511 29.0378 119.598 29.1876C119.684 29.3374 119.816 29.4557 119.975 29.5253C120.133 29.595 120.309 29.6123 120.478 29.5748L129.916 27.4492C130.231 27.3783 130.558 27.3849 130.869 27.4686C131.181 27.5522 131.467 27.7102 131.704 27.9292L138.816 34.486C138.943 34.603 139.104 34.6762 139.276 34.6951C139.448 34.7139 139.622 34.6775 139.772 34.591C139.921 34.5045 140.04 34.3725 140.109 34.2142C140.179 34.0558 140.196 33.8794 140.159 33.7105L138.033 24.2729C137.962 23.9581 137.968 23.6307 138.052 23.319C138.136 23.0072 138.294 22.7205 138.513 22.4834L145.072 15.373C145.189 15.2456 145.262 15.0841 145.281 14.9122C145.3 14.7402 145.264 14.5667 145.177 14.4169C145.091 14.2672 144.959 14.1488 144.8 14.0792C144.642 14.0096 144.466 13.9923 144.297 14.0298L134.856 16.156C134.541 16.2272 134.214 16.2208 133.902 16.1372C133.59 16.0537 133.304 15.8956 133.067 15.6765L125.959 9.11989C125.834 8.99891 125.672 8.92298 125.499 8.90402C125.326 8.88506 125.151 8.92413 125.003 9.01512Z" fill="#344DA2"/>
<path d="M64.1959 134.656C64.1134 134.977 63.9285 135.263 63.6693 135.469C63.4101 135.676 63.0907 135.792 62.7594 135.801L55.2966 136.099C55.1954 136.104 55.0968 136.133 55.0091 136.184C54.9213 136.235 54.8468 136.306 54.7919 136.391L50.7997 142.703C50.624 142.983 50.3633 143.199 50.0558 143.319C49.7483 143.44 49.4102 143.459 49.0911 143.374C48.772 143.288 48.4888 143.102 48.2829 142.844C48.077 142.586 47.9593 142.268 47.9471 141.938L47.6483 134.475C47.6433 134.374 47.6143 134.276 47.5637 134.188C47.513 134.1 47.4422 134.026 47.357 133.971L41.0447 129.979C40.7606 129.807 40.5409 129.546 40.4194 129.237C40.2979 128.928 40.2814 128.588 40.3724 128.269C40.455 127.948 40.6399 127.663 40.8991 127.457C41.1582 127.251 41.4775 127.134 41.8086 127.126L49.2714 126.827C49.3726 126.822 49.4712 126.793 49.5589 126.742C49.6467 126.692 49.7211 126.621 49.7761 126.536L53.7682 120.223C53.944 119.943 54.2047 119.727 54.5122 119.607C54.8197 119.486 55.1578 119.467 55.4769 119.553C55.7959 119.638 56.0792 119.824 56.2851 120.082C56.491 120.34 56.6086 120.658 56.6208 120.988L56.9197 128.451C56.9246 128.552 56.9537 128.651 57.0043 128.738C57.055 128.826 57.1258 128.901 57.2109 128.956L63.5233 132.948C63.8072 133.119 64.0268 133.38 64.1484 133.688C64.2699 133.997 64.2866 134.337 64.1959 134.656ZM41.2592 128.507C41.2225 128.636 41.2289 128.773 41.2774 128.898C41.3258 129.023 41.4138 129.129 41.5278 129.2L47.8404 133.191C48.0514 133.324 48.2269 133.506 48.3518 133.722C48.4767 133.938 48.5471 134.181 48.5571 134.43L48.854 141.892C48.8591 142.027 48.907 142.155 48.9907 142.26C49.0743 142.365 49.1894 142.441 49.319 142.475C49.4486 142.51 49.5859 142.502 49.7109 142.453C49.8358 142.405 49.9418 142.317 50.0132 142.203L54.0035 135.89C54.1365 135.68 54.3188 135.505 54.5345 135.38C54.7503 135.256 54.993 135.185 55.2419 135.176L62.7047 134.877C62.8388 134.872 62.9678 134.824 63.0727 134.74C63.1776 134.656 63.2529 134.541 63.2877 134.412C63.3224 134.282 63.3147 134.145 63.2658 134.02C63.2168 133.895 63.1291 133.789 63.0155 133.718L56.7032 129.725C56.4926 129.592 56.3176 129.41 56.193 129.194C56.0685 128.979 55.9983 128.736 55.9884 128.487L55.6896 121.024C55.6845 120.89 55.6367 120.761 55.553 120.656C55.4693 120.551 55.3542 120.476 55.2246 120.441C55.095 120.406 54.9577 120.414 54.8328 120.463C54.7078 120.512 54.6019 120.6 54.5304 120.713L50.5416 127.029C50.4085 127.239 50.2263 127.414 50.0105 127.539C49.7948 127.663 49.552 127.734 49.3031 127.743L41.8384 128.042C41.704 128.044 41.5742 128.091 41.4694 128.175C41.3645 128.259 41.2906 128.376 41.2592 128.507Z" fill="#344DA2"/>
<path d="M201.79 25.7206V27.6856C201.79 27.8285 201.818 27.97 201.873 28.102C201.927 28.234 202.008 28.3539 202.109 28.4549C202.21 28.556 202.33 28.6361 202.462 28.6908C202.594 28.7455 202.735 28.7736 202.878 28.7736H230.291C230.723 28.7736 231.138 28.9452 231.444 29.2506C231.749 29.556 231.921 29.9704 231.922 30.4026V37.3926C231.921 37.8248 231.748 38.2389 231.443 38.5444C231.137 38.85 230.723 39.0223 230.291 39.0236H202.878C202.589 39.0236 202.313 39.1382 202.109 39.3423C201.905 39.5463 201.79 39.823 201.79 40.1116V42.0696C201.79 42.3776 201.704 42.6794 201.54 42.9402C201.376 43.2009 201.141 43.41 200.864 43.543C200.586 43.6761 200.276 43.7278 199.97 43.6922C199.664 43.6565 199.375 43.535 199.135 43.3416L188.98 35.1666C188.79 35.0138 188.637 34.8202 188.531 34.6003C188.426 34.3803 188.371 34.1395 188.371 33.8956C188.371 33.6517 188.426 33.4109 188.531 33.1909C188.637 32.971 188.79 32.7775 188.98 32.6246L199.135 24.4486C199.375 24.2553 199.664 24.1338 199.97 24.0981C200.276 24.0624 200.586 24.114 200.863 24.247C201.141 24.3799 201.375 24.5888 201.539 24.8494C201.703 25.11 201.79 25.4127 201.79 25.7206Z" fill="#F79E3A"/>
<path d="M274.677 43.9023H210.524C207.763 43.9023 205.524 46.1409 205.524 48.9023V76.5233C205.524 79.2848 207.763 81.5233 210.524 81.5233H274.677C277.439 81.5233 279.677 79.2848 279.677 76.5233V48.9023C279.677 46.1409 277.439 43.9023 274.677 43.9023Z" fill="#344DA2"/>
<path d="M225.081 76.1986H220.801C220.145 76.2064 219.507 75.9797 219.004 75.5593C218.5 75.1389 218.163 74.5525 218.053 73.9056C217.853 72.6772 217.273 71.5424 216.394 70.6617C215.515 69.781 214.381 69.1989 213.153 68.9976C212.504 68.889 211.915 68.5518 211.494 68.0471C211.072 67.5424 210.844 66.9033 210.853 66.2456V59.1806C210.844 58.5239 211.07 57.8856 211.49 57.3808C211.91 56.876 212.496 56.5379 213.144 56.4276C214.371 56.227 215.504 55.6462 216.383 54.767C217.262 53.8878 217.843 52.7547 218.044 51.5276C218.154 50.8804 218.492 50.2938 218.997 49.8738C219.501 49.4537 220.139 49.2277 220.796 49.2366H225.076C225.426 49.2366 225.763 49.3759 226.011 49.6238C226.259 49.8717 226.398 50.208 226.398 50.5586C226.398 50.9092 226.259 51.2455 226.011 51.4934C225.763 51.7413 225.426 51.8806 225.076 51.8806H220.8C220.772 51.879 220.744 51.8848 220.719 51.8974C220.694 51.91 220.672 51.9291 220.657 51.9526C220.368 53.7279 219.529 55.3676 218.257 56.6394C216.985 57.9113 215.345 58.7509 213.57 59.0396C213.546 59.0551 213.527 59.0764 213.515 59.1015C213.502 59.1266 213.496 59.1545 213.498 59.1826V66.2456C213.496 66.2737 213.502 66.3017 213.514 66.3268C213.527 66.3519 213.546 66.3732 213.57 66.3886C215.345 66.6787 216.984 67.5196 218.255 68.7923C219.526 70.065 220.365 71.7051 220.653 73.4806C220.668 73.5043 220.689 73.5235 220.714 73.5363C220.74 73.5491 220.768 73.5551 220.796 73.5536H225.076C225.426 73.5536 225.763 73.6929 226.011 73.9408C226.259 74.1887 226.398 74.525 226.398 74.8756C226.398 75.2262 226.259 75.5624 226.011 75.8104C225.763 76.0583 225.426 76.1976 225.076 76.1976L225.081 76.1986Z" fill="white"/>
<path d="M264.407 76.1976H260.122C259.771 76.1976 259.435 76.0583 259.187 75.8104C258.939 75.5625 258.8 75.2262 258.8 74.8756C258.8 74.525 258.939 74.1888 259.187 73.9408C259.435 73.6929 259.771 73.5536 260.122 73.5536H264.407C264.435 73.5551 264.463 73.5492 264.488 73.5364C264.513 73.5235 264.535 73.5043 264.55 73.4806C264.837 71.7043 265.677 70.0635 266.948 68.7903C268.22 67.5172 269.86 66.6763 271.636 66.3866C271.66 66.3714 271.679 66.3501 271.692 66.325C271.705 66.2999 271.71 66.2718 271.709 66.2436V59.1796C271.71 59.1516 271.704 59.1236 271.692 59.0985C271.679 59.0735 271.66 59.0521 271.637 59.0366C269.862 58.7481 268.222 57.9087 266.95 56.6373C265.679 55.3658 264.839 53.7266 264.55 51.9516C264.535 51.9277 264.514 51.9083 264.488 51.8955C264.463 51.8826 264.435 51.8768 264.407 51.8786H260.122C259.771 51.8786 259.435 51.7393 259.187 51.4914C258.939 51.2435 258.8 50.9072 258.8 50.5566C258.8 50.206 258.939 49.8698 259.187 49.6218C259.435 49.3739 259.771 49.2346 260.122 49.2346H264.407C265.064 49.2258 265.702 49.4519 266.207 49.8721C266.711 50.2924 267.049 50.8791 267.16 51.5266C267.36 52.7538 267.941 53.887 268.82 54.7662C269.699 55.6454 270.833 56.2262 272.06 56.4266C272.707 56.537 273.294 56.875 273.714 57.3798C274.134 57.8846 274.36 58.523 274.351 59.1796V66.2446C274.36 66.9012 274.134 67.5394 273.714 68.0442C273.294 68.549 272.707 68.8871 272.06 68.9976C270.832 69.1988 269.698 69.7811 268.818 70.662C267.939 71.5429 267.359 72.678 267.16 73.9066C267.049 74.5539 266.711 75.1405 266.206 75.5605C265.702 75.9806 265.063 76.2065 264.407 76.1976Z" fill="white"/>
<path d="M242.723 71.8686C247.733 71.8686 251.794 67.8073 251.794 62.7976C251.794 57.7878 247.733 53.7266 242.723 53.7266C237.714 53.7266 233.652 57.7878 233.652 62.7976C233.652 67.8073 237.714 71.8686 242.723 71.8686Z" fill="white"/>
<path d="M283.155 97.9688V96.0038C283.155 95.861 283.127 95.7195 283.073 95.5875C283.018 95.4555 282.938 95.3355 282.837 95.2345C282.736 95.1335 282.616 95.0533 282.484 94.9987C282.352 94.944 282.21 94.9158 282.067 94.9158H254.654C254.222 94.9158 253.808 94.7443 253.502 94.4388C253.196 94.1334 253.024 93.7191 253.023 93.2868V86.2968C253.025 85.8647 253.197 85.4506 253.502 85.145C253.808 84.8394 254.222 84.6672 254.654 84.6658H282.067C282.356 84.6658 282.633 84.5512 282.837 84.3472C283.041 84.1431 283.155 83.8664 283.155 83.5778V81.6198C283.155 81.3119 283.242 81.01 283.406 80.7493C283.569 80.4885 283.804 80.2795 284.082 80.1464C284.359 80.0134 284.669 79.9616 284.975 79.9973C285.281 80.0329 285.571 80.1545 285.81 80.3478L295.965 88.5228C296.155 88.6757 296.309 88.8692 296.414 89.0892C296.52 89.3092 296.574 89.5499 296.574 89.7938C296.574 90.0378 296.52 90.2785 296.414 90.4985C296.309 90.7185 296.155 90.912 295.965 91.0648L285.81 99.2408C285.571 99.4342 285.281 99.5557 284.975 99.5914C284.67 99.6271 284.36 99.5754 284.082 99.4425C283.804 99.3095 283.57 99.1007 283.406 98.8401C283.242 98.5795 283.155 98.2768 283.155 97.9688Z" fill="#F79E3A"/>
<path d="M134.777 145.708V137.278L125.547 122.978C125.122 122.345 124.896 121.6 124.895 120.837C124.895 120.434 124.977 120.036 125.135 119.665C125.293 119.295 125.525 118.96 125.816 118.681C126.107 118.403 126.451 118.185 126.828 118.043C127.204 117.9 127.606 117.836 128.009 117.852C129.375 117.852 130.109 118.352 130.95 119.809L137.891 131.224H138.039L145.011 119.824C145.811 118.433 146.629 117.867 147.891 117.867C148.291 117.846 148.693 117.905 149.07 118.043C149.447 118.181 149.792 118.393 150.085 118.668C150.378 118.943 150.612 119.274 150.773 119.642C150.934 120.01 151.019 120.407 151.023 120.808C151.015 121.58 150.781 122.333 150.352 122.974L141.122 137.294V145.725C141.139 146.153 141.069 146.581 140.917 146.981C140.765 147.382 140.533 147.747 140.236 148.056C139.939 148.365 139.582 148.61 139.188 148.777C138.793 148.944 138.369 149.03 137.94 149.029C137.512 149.028 137.088 148.94 136.694 148.77C136.3 148.601 135.945 148.354 135.65 148.043C135.354 147.733 135.125 147.366 134.975 146.964C134.825 146.563 134.758 146.135 134.778 145.707L134.777 145.708Z" fill="#344DA2"/>
<path d="M148.838 142.133C148.838 138.033 151.995 135.659 157.625 135.321L163.305 134.983V133.493C163.305 131.393 161.834 130.17 159.52 130.17C157.674 130.17 156.511 130.785 155.145 132.545C154.848 132.909 154.472 133.2 154.046 133.396C153.619 133.593 153.153 133.689 152.684 133.677C152.362 133.698 152.038 133.653 151.734 133.544C151.43 133.436 151.151 133.266 150.915 133.046C150.679 132.826 150.49 132.56 150.36 132.264C150.23 131.968 150.163 131.649 150.161 131.326C150.162 130.845 150.269 130.37 150.475 129.935C151.527 127.246 155.146 125.584 159.81 125.584C165.594 125.584 169.354 128.569 169.354 133.11V145.961C169.398 146.368 169.351 146.779 169.218 147.166C169.085 147.553 168.868 147.906 168.583 148.2C168.298 148.493 167.952 148.721 167.57 148.866C167.187 149.011 166.777 149.069 166.369 149.038C165.992 149.071 165.613 149.024 165.255 148.901C164.898 148.778 164.57 148.581 164.293 148.324C164.016 148.067 163.795 147.754 163.647 147.407C163.498 147.059 163.423 146.684 163.428 146.306V145.161H163.299C162.594 146.352 161.583 147.333 160.371 148.001C159.159 148.669 157.79 149.001 156.407 148.961C152.099 148.964 148.838 146.188 148.838 142.133ZM163.305 140.348V138.706L158.554 139.006C156.254 139.172 154.954 140.237 154.954 141.8C154.954 143.363 156.345 144.532 158.406 144.532C161.096 144.526 163.305 142.784 163.305 140.348Z" fill="#344DA2"/>
<path d="M173.44 145.858V121.058C173.421 120.642 173.487 120.227 173.634 119.838C173.78 119.449 174.004 119.093 174.291 118.793C174.579 118.492 174.924 118.253 175.307 118.089C175.689 117.926 176.101 117.842 176.517 117.842C176.932 117.842 177.344 117.926 177.727 118.089C178.109 118.253 178.454 118.492 178.742 118.793C179.029 119.093 179.253 119.449 179.4 119.838C179.546 120.227 179.612 120.642 179.594 121.058V145.858C179.608 146.271 179.54 146.683 179.392 147.07C179.244 147.456 179.02 147.809 178.733 148.106C178.445 148.404 178.101 148.641 177.72 148.803C177.34 148.964 176.93 149.048 176.517 149.048C176.103 149.048 175.693 148.964 175.313 148.803C174.932 148.641 174.588 148.404 174.3 148.106C174.013 147.809 173.789 147.456 173.641 147.07C173.493 146.683 173.425 146.271 173.44 145.858Z" fill="#344DA2"/>
<path d="M183.87 145.858V121.058C183.852 120.642 183.918 120.227 184.064 119.838C184.211 119.449 184.434 119.093 184.722 118.793C185.009 118.492 185.355 118.253 185.737 118.089C186.12 117.926 186.531 117.842 186.947 117.842C187.363 117.842 187.775 117.926 188.157 118.089C188.54 118.253 188.885 118.492 189.173 118.793C189.46 119.093 189.684 119.449 189.83 119.838C189.977 120.227 190.043 120.642 190.024 121.058V145.858C190.039 146.271 189.971 146.683 189.823 147.07C189.675 147.456 189.45 147.809 189.163 148.106C188.876 148.404 188.532 148.641 188.151 148.803C187.77 148.964 187.361 149.048 186.947 149.048C186.534 149.048 186.124 148.964 185.743 148.803C185.363 148.641 185.018 148.404 184.731 148.106C184.444 147.809 184.22 147.456 184.072 147.07C183.924 146.683 183.855 146.271 183.87 145.858Z" fill="#344DA2"/>
<path d="M193.272 142.133C193.272 138.033 196.423 135.659 202.059 135.321L207.733 134.983V133.493C207.733 131.393 206.262 130.17 203.949 130.17C202.103 130.17 200.949 130.785 199.58 132.545C199.284 132.909 198.908 133.2 198.481 133.396C198.055 133.593 197.589 133.689 197.119 133.677C196.794 133.704 196.466 133.664 196.156 133.558C195.847 133.453 195.563 133.284 195.321 133.063C195.08 132.842 194.887 132.574 194.755 132.275C194.623 131.976 194.554 131.653 194.552 131.326C194.553 130.844 194.662 130.369 194.872 129.935C195.918 127.246 199.536 125.584 204.207 125.584C209.985 125.584 213.751 128.569 213.751 133.11V145.961C213.795 146.368 213.749 146.779 213.616 147.166C213.483 147.553 213.266 147.906 212.981 148.2C212.696 148.493 212.35 148.721 211.967 148.866C211.584 149.011 211.174 149.069 210.766 149.038C210.39 149.07 210.01 149.022 209.653 148.899C209.295 148.776 208.967 148.58 208.69 148.323C208.412 148.065 208.191 147.753 208.041 147.406C207.891 147.059 207.815 146.684 207.818 146.306V145.161H207.695C206.986 146.35 205.974 147.329 204.761 147.997C203.548 148.665 202.179 148.997 200.795 148.961C196.527 148.964 193.272 146.188 193.272 142.133ZM207.733 140.348V138.706L202.982 139.006C200.693 139.172 199.388 140.237 199.388 141.8C199.388 143.363 200.773 144.532 202.834 144.532C205.542 144.526 207.733 142.784 207.733 140.348Z" fill="#344DA2"/>
<path d="M117.042 128.159C116.676 127.178 116.035 126.323 115.196 125.698L114.014 125.024L109.014 122.132L102.125 118.124L92.9308 112.801C91.8418 112.169 90.6056 111.836 89.3467 111.834C88.0878 111.832 86.8506 112.162 85.7599 112.791C84.6692 113.42 83.7634 114.325 83.1338 115.415C82.5043 116.505 82.1731 117.742 82.1738 119.001V122.693C82.2693 121.591 82.6987 120.544 83.4048 119.693C84.1774 118.854 85.1819 118.263 86.2908 117.996C87.3997 117.729 88.5629 117.797 89.6328 118.193L91.0848 119.024L113.817 132.135L115.085 132.886C115.12 132.898 115.154 132.915 115.185 132.935C115.316 133.037 115.425 133.165 115.505 133.31C115.569 133.408 115.608 133.521 115.617 133.638C115.627 133.756 115.607 133.873 115.56 133.981C116.322 133.243 116.864 132.308 117.125 131.28C117.387 130.252 117.358 129.171 117.042 128.159Z" fill="#344DA2"/>
<path d="M88.4831 148.35V119.004C88.4934 118.858 88.5424 118.718 88.6251 118.598C88.6974 118.476 88.801 118.376 88.9251 118.309C89.0564 118.234 89.2052 118.196 89.3561 118.198H89.6561C88.5865 117.804 87.424 117.737 86.3163 118.006C85.2086 118.274 84.2057 118.866 83.4351 119.706C82.729 120.557 82.2996 121.604 82.2041 122.706V148.35C82.2003 149.607 82.5284 150.843 83.1552 151.933C83.7821 153.023 84.6855 153.928 85.7742 154.557C86.8629 155.186 88.0983 155.517 89.3557 155.515C90.613 155.514 91.8478 155.181 92.9351 154.55L95.7401 152.923C94.8365 153.26 93.8583 153.348 92.9091 153.175C91.7786 152.92 90.7518 152.328 89.9642 151.478C89.1766 150.627 88.6651 149.558 88.4971 148.412L88.4831 148.35Z" fill="#EB003B"/>
<path d="M118.327 127.476L115.25 125.676C116.09 126.301 116.731 127.156 117.096 128.137C117.409 129.157 117.431 130.244 117.159 131.276C116.888 132.308 116.333 133.243 115.558 133.977C115.495 134.121 115.391 134.243 115.258 134.328H115.221L113.806 135.208L91.1405 148.288L89.7625 149.088C89.6499 149.149 89.5249 149.184 89.3969 149.191C89.2688 149.197 89.141 149.175 89.0228 149.125C88.9046 149.075 88.799 149 88.714 148.904C88.629 148.808 88.5666 148.694 88.5315 148.571C88.5286 148.548 88.5286 148.525 88.5315 148.503C88.716 149.638 89.2359 150.692 90.0242 151.53C90.8126 152.367 91.8334 152.95 92.9555 153.203C93.9046 153.376 94.8828 153.289 95.7865 152.951L97.3865 152.028L102.524 149.062L108.838 145.419L118.388 139.881C119.477 139.253 120.382 138.349 121.01 137.261C121.639 136.173 121.97 134.938 121.97 133.681C121.97 132.424 121.639 131.189 121.01 130.101C120.382 129.012 119.477 128.109 118.388 127.481L118.327 127.476Z" fill="#F79E3B"/>
<path d="M117.67 264.152C117.405 264.153 117.143 264.095 116.904 263.983C116.664 263.87 116.453 263.705 116.286 263.5L107.986 253.35C107.822 253.169 107.696 252.957 107.617 252.726C107.538 252.495 107.506 252.25 107.525 252.007C107.543 251.764 107.61 251.526 107.723 251.31C107.836 251.093 107.992 250.902 108.181 250.748C108.37 250.593 108.588 250.479 108.823 250.411C109.057 250.344 109.303 250.325 109.545 250.356C109.788 250.386 110.021 250.466 110.231 250.589C110.442 250.713 110.625 250.878 110.77 251.075L117.691 259.523L130.591 243.836C130.735 243.637 130.919 243.47 131.131 243.346C131.343 243.221 131.577 243.14 131.821 243.11C132.065 243.079 132.313 243.099 132.549 243.167C132.785 243.236 133.004 243.352 133.193 243.509C133.382 243.666 133.538 243.86 133.649 244.079C133.761 244.298 133.826 244.537 133.842 244.782C133.857 245.027 133.823 245.273 133.74 245.505C133.656 245.736 133.527 245.948 133.359 246.127L119.059 263.5C118.891 263.706 118.679 263.871 118.438 263.984C118.198 264.097 117.935 264.154 117.67 264.152Z" fill="#F79E3A"/>
<path d="M175.534 251.249H142.951C142.74 251.25 142.53 251.209 142.335 251.129C142.139 251.048 141.962 250.93 141.813 250.78C141.663 250.631 141.545 250.454 141.464 250.258C141.384 250.063 141.343 249.853 141.344 249.642V249.228C141.343 249.017 141.384 248.807 141.464 248.612C141.545 248.417 141.663 248.239 141.813 248.09C141.962 247.94 142.139 247.822 142.335 247.741C142.53 247.661 142.74 247.62 142.951 247.621H175.534C175.745 247.62 175.955 247.661 176.15 247.741C176.345 247.822 176.523 247.94 176.672 248.09C176.822 248.239 176.94 248.417 177.021 248.612C177.101 248.807 177.142 249.017 177.141 249.228V249.642C177.142 249.853 177.101 250.063 177.021 250.258C176.94 250.454 176.822 250.631 176.672 250.78C176.523 250.93 176.345 251.048 176.15 251.129C175.955 251.209 175.745 251.25 175.534 251.249Z" fill="#0B56A3"/>
<path d="M165.956 259.872H142.951C142.74 259.873 142.53 259.832 142.335 259.752C142.139 259.671 141.962 259.553 141.813 259.404C141.663 259.254 141.545 259.077 141.464 258.881C141.384 258.686 141.343 258.476 141.344 258.265V257.851C141.343 257.64 141.384 257.431 141.464 257.235C141.545 257.04 141.663 256.862 141.813 256.713C141.962 256.563 142.139 256.445 142.335 256.365C142.53 256.284 142.74 256.243 142.951 256.244H165.956C166.167 256.243 166.377 256.284 166.572 256.365C166.767 256.445 166.945 256.563 167.094 256.713C167.244 256.862 167.362 257.04 167.442 257.235C167.523 257.431 167.564 257.64 167.563 257.851V258.265C167.564 258.476 167.523 258.686 167.442 258.881C167.362 259.077 167.244 259.254 167.094 259.404C166.945 259.553 166.767 259.671 166.572 259.752C166.377 259.832 166.167 259.873 165.956 259.872Z" fill="#B1CDEF"/>
</svg>
