<svg width="280" height="229" viewBox="0 0 280 229" fill="none" xmlns="http://www.w3.org/2000/svg">
<path d="M110.878 171.208C111.061 171.263 111.254 171.276 111.442 171.245C111.63 171.214 111.809 171.14 111.964 171.029C112.154 170.893 112.303 170.707 112.393 170.491C112.482 170.275 112.51 170.038 112.472 169.807C112.434 169.577 112.332 169.361 112.178 169.185C112.024 169.009 111.824 168.88 111.6 168.812L110.506 168.479L109.428 168.144L108.374 167.807L107.339 167.47L106.859 167.309C106.597 167.223 106.314 167.226 106.053 167.318C105.793 167.41 105.57 167.585 105.42 167.816C105.269 168.047 105.199 168.322 105.221 168.597C105.242 168.872 105.354 169.132 105.539 169.337C105.684 169.498 105.868 169.617 106.074 169.684L106.555 169.845L107.606 170.188L108.676 170.53L109.766 170.871L110.878 171.208ZM68.488 14.0422C68.205 14.0079 67.9188 14.0725 67.678 14.2252C67.46 14.3635 67.2901 14.5658 67.1915 14.8044C67.093 15.043 67.0706 15.3062 67.1274 15.558C67.1842 15.8098 67.3175 16.0379 67.509 16.2111C67.7004 16.3842 67.9408 16.4939 68.197 16.5252C69.7889 16.7107 71.3628 17.0264 72.903 17.4692C73.1762 17.5459 73.4673 17.5276 73.7286 17.4173C73.99 17.3069 74.2061 17.1111 74.3416 16.8618C74.4771 16.6125 74.524 16.3246 74.4744 16.0453C74.4249 15.7659 74.282 15.5117 74.069 15.3242C73.93 15.2019 73.7653 15.1123 73.587 15.0622C71.9172 14.5855 70.2117 14.2441 68.487 14.0412M80.787 17.8582C80.566 17.7487 80.3176 17.7068 80.0729 17.738C79.8282 17.7691 79.5982 17.8718 79.4117 18.0332C79.2252 18.1946 79.0905 18.4075 79.0245 18.6452C78.9586 18.8829 78.9643 19.1348 79.041 19.3692C79.0924 19.5267 79.1746 19.6724 79.283 19.7978C79.3913 19.9231 79.5236 20.0256 79.672 20.0992C81.1311 20.8199 82.5525 21.6143 83.931 22.4792C84.1555 22.6206 84.4191 22.6872 84.6838 22.6692C84.9485 22.6512 85.2007 22.5497 85.404 22.3792C85.5543 22.2521 85.6725 22.0913 85.749 21.91C85.8254 21.7286 85.858 21.5317 85.8441 21.3354C85.8302 21.139 85.7701 20.9488 85.6688 20.78C85.5675 20.6113 85.4278 20.4688 85.261 20.3642C83.8104 19.4562 82.319 18.6229 80.787 17.8642M91.47 24.8642C91.261 24.6917 91.0017 24.5917 90.7311 24.579C90.4604 24.5664 90.1929 24.6418 89.9688 24.794C89.7446 24.9462 89.5758 25.167 89.4877 25.4232C89.3995 25.6794 89.3969 25.9573 89.48 26.2152C89.5533 26.44 89.6893 26.6391 89.872 26.7892C91.127 27.8212 92.346 28.9352 93.507 30.0712C93.6833 30.2441 93.9069 30.361 94.1496 30.4071C94.3922 30.4532 94.6431 30.4265 94.8705 30.3302C95.098 30.234 95.2919 30.0726 95.4277 29.8663C95.5636 29.66 95.6354 29.4182 95.634 29.1712C95.634 29.0057 95.6009 28.8418 95.5369 28.6892C95.4729 28.5366 95.3791 28.3982 95.261 28.2822C94.048 27.0962 92.781 25.9372 91.47 24.8592M100.383 33.9792C100.217 33.77 99.9893 33.6193 99.732 33.5488C99.4747 33.4784 99.2016 33.492 98.9525 33.5877C98.7035 33.6833 98.4915 33.8561 98.3475 34.0807C98.2035 34.3052 98.135 34.57 98.152 34.8362C98.1677 35.0874 98.2598 35.3278 98.416 35.5252C99.431 36.8122 100.384 38.1252 101.285 39.4942C101.431 39.716 101.644 39.8856 101.893 39.9787C102.141 40.0718 102.413 40.0835 102.669 40.0122C102.858 39.9585 103.032 39.861 103.177 39.7277C103.321 39.5943 103.433 39.4288 103.501 39.2446C103.57 39.0603 103.595 38.8624 103.573 38.6669C103.551 38.4714 103.484 38.2838 103.376 38.1192C102.434 36.6922 101.442 35.3182 100.383 33.9792ZM107.098 44.8702C106.982 44.6008 106.775 44.3808 106.513 44.2486C106.251 44.1164 105.951 44.0803 105.665 44.1468C105.379 44.2132 105.126 44.3779 104.949 44.6121C104.772 44.8463 104.684 45.1352 104.698 45.4282C104.705 45.5796 104.739 45.7286 104.798 45.8682L105.079 46.5272L105.315 47.1102L105.54 47.6922L105.752 48.2742L105.952 48.8562L106.14 49.4372L106.317 50.0182L106.428 50.4052C106.486 50.6162 106.599 50.8082 106.755 50.9621C106.911 51.116 107.104 51.2264 107.316 51.2822C107.529 51.3379 107.752 51.3365 107.965 51.2783C108.177 51.2201 108.37 51.107 108.524 50.9505C108.679 50.794 108.789 50.5995 108.845 50.3867C108.9 50.1739 108.898 49.9502 108.84 49.7382L108.716 49.3072L108.526 48.6852L108.326 48.0612L108.111 47.4382L107.884 46.8142L107.643 46.1912L107.391 45.5672L107.098 44.8702ZM110.143 57.4062C110.133 57.1902 110.068 56.9805 109.953 56.7973C109.839 56.6141 109.678 56.4637 109.488 56.3609C109.298 56.258 109.085 56.206 108.869 56.2101C108.652 56.2142 108.441 56.2742 108.255 56.3842C108.06 56.4995 107.899 56.6657 107.791 56.8651C107.683 57.0646 107.632 57.2896 107.642 57.5162L107.674 58.1042L107.693 58.6792L107.704 59.2532V59.8272L107.696 60.4012L107.679 60.9752L107.654 61.5482L107.619 62.1222L107.602 62.3562C107.58 62.6481 107.66 62.9386 107.83 63.1772C108 63.4158 108.248 63.5874 108.531 63.6622C108.814 63.737 109.114 63.7102 109.379 63.5865C109.645 63.4628 109.858 63.25 109.983 62.9852C110.045 62.8521 110.082 62.7093 110.095 62.5632L110.115 62.2922L110.151 61.6802L110.178 61.0672L110.196 60.4542L110.204 59.8402V59.2252L110.192 58.6092L110.17 57.9942L110.143 57.4062ZM108.843 70.1622C108.912 69.8853 108.884 69.5933 108.764 69.3345C108.644 69.0756 108.44 68.8654 108.184 68.7387C107.928 68.612 107.637 68.5764 107.359 68.6378C107.08 68.6992 106.831 68.8538 106.652 69.0762C106.539 69.2164 106.459 69.3796 106.416 69.5542L106.267 70.1322L106.114 70.7022L105.953 71.2732L105.785 71.8432L105.61 72.4122L105.428 72.9822L105.241 73.5522L105.008 74.2282C104.919 74.4781 104.911 74.7501 104.986 75.0046C105.062 75.2592 105.216 75.4832 105.427 75.6442C105.584 75.7634 105.766 75.8441 105.959 75.8796C106.153 75.9151 106.352 75.9046 106.541 75.8488C106.729 75.793 106.902 75.6935 107.045 75.5584C107.188 75.4233 107.298 75.2564 107.364 75.0712L107.613 74.3472L107.813 73.7532L108.003 73.1582L108.185 72.5582L108.361 71.9582L108.53 71.3582L108.691 70.7582L108.843 70.1622ZM104.457 82.1242C104.544 81.9416 104.586 81.7406 104.578 81.5384C104.571 81.3362 104.515 81.1388 104.414 80.9632C104.3 80.7656 104.135 80.6028 103.935 80.4925C103.735 80.3821 103.51 80.3284 103.282 80.337C103.054 80.3457 102.833 80.4164 102.642 80.5415C102.451 80.6667 102.299 80.8415 102.2 81.0472L101.723 82.0472L101.447 82.6102L100.882 83.7352C100.582 84.3132 100.282 84.8922 99.982 85.4642C99.8433 85.7228 99.7999 86.0219 99.8593 86.3093C99.9187 86.5967 100.077 86.8541 100.307 87.0365C100.537 87.219 100.823 87.3149 101.117 87.3075C101.41 87.3001 101.692 87.1899 101.912 86.9962C102.022 86.8988 102.114 86.7827 102.183 86.6532C102.5 86.0632 102.808 85.4682 103.114 84.8732L103.694 83.7192L103.978 83.1402L104.457 82.1242ZM98.428 93.2212C98.5708 92.9799 98.6285 92.6976 98.5918 92.4196C98.5551 92.1416 98.4261 91.8839 98.2255 91.688C98.025 91.492 97.7644 91.369 97.4856 91.3388C97.2068 91.3086 96.9259 91.3728 96.688 91.5212C96.5252 91.6244 96.3884 91.7637 96.288 91.9282C95.432 93.3482 94.553 94.7552 93.662 96.1542C93.522 96.3796 93.4572 96.6437 93.477 96.9083C93.4968 97.173 93.6001 97.4244 93.7721 97.6265C93.9442 97.8286 94.1759 97.9708 94.434 98.0325C94.6921 98.0943 94.9631 98.0725 95.208 97.9702C95.4399 97.8717 95.6363 97.705 95.771 97.4922C96.671 96.0782 97.562 94.6532 98.428 93.2182M91.669 103.801C91.8274 103.56 91.8975 103.271 91.8676 102.984C91.8377 102.697 91.7095 102.429 91.5048 102.225C91.3001 102.022 91.0313 101.895 90.744 101.867C90.4567 101.839 90.1685 101.91 89.928 102.07C89.7888 102.163 89.6695 102.283 89.577 102.422C88.6597 103.816 87.7407 105.209 86.82 106.6C86.665 106.837 86.595 107.12 86.6213 107.402C86.6476 107.684 86.7687 107.948 86.9648 108.153C87.1609 108.357 87.4205 108.489 87.7011 108.526C87.9818 108.564 88.2669 108.505 88.51 108.36C88.6706 108.263 88.8073 108.131 88.91 107.974C89.8273 106.582 90.746 105.19 91.666 103.799M84.854 114.256C84.9952 114.03 85.0602 113.764 85.0395 113.497C85.0188 113.231 84.9136 112.979 84.7391 112.776C84.5646 112.574 84.3301 112.433 84.0698 112.374C83.8094 112.314 83.5369 112.34 83.292 112.446C83.0608 112.546 82.8655 112.714 82.732 112.928C81.8373 114.354 80.9647 115.79 80.114 117.238C79.9741 117.476 79.9167 117.753 79.9507 118.027C79.9848 118.301 80.1085 118.556 80.3024 118.752C80.4964 118.948 80.7498 119.075 81.0232 119.112C81.2966 119.15 81.5746 119.095 81.814 118.958C82.0067 118.85 82.1669 118.692 82.278 118.501C83.118 117.073 83.978 115.658 84.858 114.257M78.783 125.014C78.9052 124.751 78.9318 124.453 78.8584 124.171C78.785 123.89 78.616 123.643 78.3805 123.473C78.145 123.303 77.8576 123.22 77.5676 123.238C77.2776 123.257 77.0031 123.376 76.791 123.574C76.6771 123.682 76.5842 123.81 76.517 123.952L76.049 124.952L75.82 125.452L75.598 125.952L75.381 126.452L75.171 126.952L74.966 127.452L74.766 127.952L74.504 128.641C74.4042 128.922 74.4077 129.229 74.514 129.508C74.6203 129.786 74.8225 130.018 75.0841 130.161C75.3458 130.304 75.6498 130.348 75.9415 130.287C76.2333 130.226 76.4937 130.063 76.676 129.827C76.7516 129.727 76.8119 129.615 76.855 129.497L77.098 128.86L77.285 128.384L77.485 127.906L77.685 127.427L77.892 126.946L78.105 126.465L78.325 125.981L78.55 125.495L78.783 125.014ZM75.028 136.491C75.0612 136.218 75.0038 135.942 74.8647 135.705C74.7255 135.468 74.5123 135.284 74.2579 135.18C74.0035 135.076 73.722 135.059 73.4568 135.13C73.1916 135.202 72.9573 135.359 72.79 135.577C72.6573 135.752 72.5732 135.959 72.546 136.177L72.52 136.369L72.462 136.857L72.413 137.345L72.374 137.831L72.344 138.317L72.324 138.802L72.314 139.286V139.77L72.324 140.251L72.344 140.732L72.376 141.213L72.396 141.451C72.4212 141.708 72.525 141.95 72.6933 142.146C72.8615 142.341 73.086 142.479 73.336 142.542C73.5306 142.591 73.734 142.592 73.9291 142.546C74.1243 142.499 74.3054 142.407 74.4573 142.276C74.6092 142.145 74.7275 141.98 74.8021 141.793C74.8767 141.607 74.9055 141.406 74.886 141.206L74.87 141.023L74.843 140.597L74.828 140.17L74.82 139.741V139.311L74.828 138.879L74.846 138.444L74.873 138.008L74.908 137.57L74.952 137.13L75.004 136.688L75.028 136.491ZM76.821 147.909C76.6875 147.656 76.4713 147.457 76.2085 147.344C75.9458 147.23 75.6522 147.211 75.3767 147.288C75.1012 147.365 74.8603 147.534 74.6943 147.767C74.5282 148 74.447 148.283 74.464 148.568C74.4755 148.743 74.5235 148.913 74.605 149.068L74.656 149.168L74.9 149.621L75.157 150.072L75.427 150.521L75.71 150.967L76.01 151.412L76.32 151.855L76.642 152.294L76.977 152.732L77.325 153.167L77.557 153.442C77.7343 153.65 77.9751 153.794 78.2423 153.852C78.5095 153.91 78.7884 153.879 79.036 153.763C79.211 153.682 79.3647 153.561 79.4853 153.41C79.6058 153.26 79.6897 153.083 79.7306 152.895C79.7715 152.706 79.7682 152.51 79.7209 152.323C79.6736 152.136 79.5836 151.963 79.458 151.816L79.258 151.581L78.942 151.187L78.642 150.793L78.351 150.393L78.074 149.998L77.811 149.598L77.559 149.198L77.318 148.798L77.091 148.398L76.875 147.998L76.821 147.909ZM84.734 156.703C84.5479 156.568 84.3282 156.487 84.099 156.468C83.8698 156.449 83.6397 156.493 83.434 156.596C83.2419 156.692 83.0778 156.837 82.9576 157.015C82.8373 157.193 82.7649 157.399 82.7473 157.613C82.7297 157.827 82.7676 158.042 82.8572 158.238C82.9468 158.433 83.0852 158.602 83.259 158.728L83.659 159.028L84.222 159.428L84.799 159.828L85.391 160.228L85.998 160.623L86.622 161.017L87.26 161.407L87.524 161.565C87.7666 161.706 88.0492 161.761 88.3268 161.722C88.6044 161.683 88.8608 161.552 89.0551 161.35C89.2494 161.148 89.3704 160.886 89.3986 160.607C89.4269 160.328 89.3608 160.048 89.211 159.811C89.1045 159.645 88.9599 159.506 88.789 159.406L88.553 159.265L87.942 158.89L87.348 158.515L86.769 158.139L86.207 157.761L85.66 157.383L85.129 157.003L84.734 156.703ZM95.334 162.815C95.0876 162.703 94.8114 162.673 94.5467 162.731C94.2821 162.788 94.0432 162.93 93.866 163.135C93.7392 163.282 93.6484 163.457 93.6007 163.645C93.5531 163.834 93.5499 164.03 93.5914 164.22C93.6329 164.41 93.718 164.587 93.84 164.739C93.9619 164.89 94.1174 165.01 94.294 165.091L95.355 165.572L96.192 165.939L97.044 166.304L97.913 166.667L98.956 167.088C99.2008 167.184 99.4696 167.201 99.7243 167.135C99.979 167.07 100.207 166.926 100.375 166.724C100.501 166.572 100.59 166.391 100.633 166.198C100.676 166.005 100.673 165.804 100.623 165.613C100.574 165.421 100.48 165.244 100.349 165.095C100.218 164.947 100.053 164.832 99.869 164.759L98.869 164.353L98.02 163.999L97.188 163.644L96.374 163.286L95.334 162.815Z" fill="#A9A7D3"/>
<path d="M219.878 218.208C220.061 218.263 220.254 218.276 220.442 218.245C220.63 218.214 220.809 218.14 220.964 218.029C221.154 217.893 221.303 217.707 221.393 217.491C221.482 217.275 221.51 217.038 221.472 216.807C221.434 216.577 221.332 216.361 221.178 216.185C221.024 216.009 220.824 215.88 220.6 215.812L219.506 215.479L218.428 215.144L217.374 214.807L216.339 214.47L215.859 214.309C215.597 214.223 215.314 214.226 215.053 214.318C214.793 214.41 214.57 214.585 214.42 214.816C214.269 215.047 214.199 215.322 214.221 215.597C214.242 215.872 214.354 216.132 214.539 216.337C214.684 216.498 214.868 216.617 215.074 216.684L215.555 216.845L216.606 217.188L217.676 217.53L218.766 217.871L219.878 218.208ZM177.488 61.0422C177.205 61.0079 176.919 61.0725 176.678 61.2252C176.46 61.3635 176.29 61.5658 176.192 61.8044C176.093 62.043 176.071 62.3062 176.127 62.558C176.184 62.8098 176.317 63.0379 176.509 63.2111C176.7 63.3842 176.941 63.4939 177.197 63.5252C178.789 63.7107 180.363 64.0264 181.903 64.4692C182.176 64.5459 182.467 64.5276 182.729 64.4173C182.99 64.3069 183.206 64.1111 183.342 63.8618C183.477 63.6125 183.524 63.3246 183.474 63.0453C183.425 62.7659 183.282 62.5117 183.069 62.3242C182.93 62.2019 182.765 62.1123 182.587 62.0622C180.917 61.5855 179.212 61.2441 177.487 61.0412M189.787 64.8582C189.566 64.7487 189.318 64.7068 189.073 64.738C188.828 64.7691 188.598 64.8718 188.412 65.0332C188.225 65.1946 188.09 65.4075 188.025 65.6452C187.959 65.8829 187.964 66.1348 188.041 66.3692C188.092 66.5267 188.175 66.6724 188.283 66.7978C188.391 66.9231 188.524 67.0256 188.672 67.0992C190.131 67.8199 191.553 68.6143 192.931 69.4792C193.156 69.6206 193.419 69.6872 193.684 69.6692C193.949 69.6512 194.201 69.5497 194.404 69.3792C194.554 69.2521 194.673 69.0913 194.749 68.91C194.825 68.7286 194.858 68.5317 194.844 68.3354C194.83 68.139 194.77 67.9488 194.669 67.78C194.567 67.6113 194.428 67.4688 194.261 67.3642C192.81 66.4562 191.319 65.6229 189.787 64.8642M200.47 71.8642C200.261 71.6917 200.002 71.5917 199.731 71.579C199.46 71.5664 199.193 71.6418 198.969 71.794C198.745 71.9462 198.576 72.167 198.488 72.4232C198.4 72.6794 198.397 72.9573 198.48 73.2152C198.553 73.44 198.689 73.6391 198.872 73.7892C200.127 74.8212 201.346 75.9352 202.507 77.0712C202.683 77.2441 202.907 77.361 203.15 77.4071C203.392 77.4532 203.643 77.4265 203.871 77.3302C204.098 77.234 204.292 77.0726 204.428 76.8663C204.564 76.66 204.635 76.4182 204.634 76.1712C204.634 76.0057 204.601 75.8418 204.537 75.6892C204.473 75.5366 204.379 75.3982 204.261 75.2822C203.048 74.0962 201.781 72.9372 200.47 71.8592M209.383 80.9792C209.217 80.77 208.989 80.6193 208.732 80.5488C208.475 80.4784 208.202 80.492 207.953 80.5877C207.703 80.6833 207.492 80.8561 207.348 81.0807C207.204 81.3052 207.135 81.57 207.152 81.8362C207.168 82.0874 207.26 82.3278 207.416 82.5252C208.431 83.8122 209.384 85.1252 210.285 86.4942C210.431 86.716 210.644 86.8856 210.893 86.9787C211.141 87.0718 211.413 87.0835 211.669 87.0122C211.858 86.9585 212.032 86.861 212.177 86.7277C212.321 86.5943 212.433 86.4288 212.501 86.2446C212.57 86.0603 212.595 85.8624 212.573 85.6669C212.551 85.4714 212.484 85.2838 212.376 85.1192C211.434 83.6922 210.442 82.3182 209.383 80.9792ZM216.098 91.8702C215.982 91.6008 215.775 91.3808 215.513 91.2486C215.251 91.1164 214.951 91.0803 214.665 91.1468C214.379 91.2132 214.126 91.3779 213.949 91.6121C213.772 91.8463 213.684 92.1352 213.698 92.4282C213.705 92.5796 213.739 92.7286 213.798 92.8682L214.079 93.5272L214.315 94.1102L214.54 94.6922L214.752 95.2742L214.952 95.8562L215.14 96.4372L215.317 97.0182L215.428 97.4052C215.486 97.6162 215.599 97.8082 215.755 97.9621C215.911 98.116 216.104 98.2264 216.316 98.2822C216.529 98.3379 216.752 98.3365 216.965 98.2783C217.177 98.2201 217.37 98.107 217.524 97.9505C217.679 97.794 217.789 97.5995 217.845 97.3867C217.9 97.1739 217.898 96.9502 217.84 96.7382L217.716 96.3072L217.526 95.6852L217.326 95.0612L217.111 94.4382L216.884 93.8142L216.643 93.1912L216.391 92.5672L216.098 91.8702ZM219.143 104.406C219.133 104.19 219.068 103.98 218.953 103.797C218.839 103.614 218.678 103.464 218.488 103.361C218.298 103.258 218.085 103.206 217.869 103.21C217.652 103.214 217.441 103.274 217.255 103.384C217.06 103.499 216.899 103.666 216.791 103.865C216.683 104.065 216.632 104.29 216.642 104.516L216.674 105.104L216.693 105.679L216.704 106.253V106.827L216.696 107.401L216.679 107.975L216.654 108.548L216.619 109.122L216.602 109.356C216.58 109.648 216.66 109.939 216.83 110.177C217 110.416 217.248 110.587 217.531 110.662C217.814 110.737 218.114 110.71 218.379 110.586C218.645 110.463 218.858 110.25 218.983 109.985C219.045 109.852 219.082 109.709 219.095 109.563L219.115 109.292L219.151 108.68L219.178 108.067L219.196 107.454L219.204 106.84V106.225L219.192 105.609L219.17 104.994L219.143 104.406ZM217.843 117.162C217.912 116.885 217.884 116.593 217.764 116.334C217.644 116.076 217.44 115.865 217.184 115.739C216.928 115.612 216.637 115.576 216.359 115.638C216.08 115.699 215.831 115.854 215.652 116.076C215.539 116.216 215.459 116.38 215.416 116.554L215.267 117.132L215.114 117.702L214.953 118.273L214.785 118.843L214.61 119.412L214.428 119.982L214.241 120.552L214.008 121.228C213.919 121.478 213.911 121.75 213.986 122.005C214.062 122.259 214.216 122.483 214.427 122.644C214.584 122.763 214.766 122.844 214.959 122.88C215.153 122.915 215.352 122.905 215.541 122.849C215.729 122.793 215.902 122.693 216.045 122.558C216.188 122.423 216.298 122.256 216.364 122.071L216.613 121.347L216.813 120.753L217.003 120.158L217.185 119.558L217.361 118.958L217.53 118.358L217.691 117.758L217.843 117.162ZM213.457 129.124C213.544 128.942 213.586 128.741 213.578 128.538C213.571 128.336 213.515 128.139 213.414 127.963C213.3 127.766 213.135 127.603 212.935 127.492C212.735 127.382 212.51 127.328 212.282 127.337C212.054 127.346 211.833 127.416 211.642 127.542C211.451 127.667 211.299 127.842 211.2 128.047L210.723 129.047L210.447 129.61L209.882 130.735C209.582 131.313 209.282 131.892 208.982 132.464C208.843 132.723 208.8 133.022 208.859 133.309C208.919 133.597 209.077 133.854 209.307 134.037C209.537 134.219 209.823 134.315 210.117 134.308C210.41 134.3 210.692 134.19 210.912 133.996C211.022 133.899 211.114 133.783 211.183 133.653C211.5 133.063 211.808 132.468 212.114 131.873L212.694 130.719L212.978 130.14L213.457 129.124ZM207.428 140.221C207.571 139.98 207.629 139.698 207.592 139.42C207.555 139.142 207.426 138.884 207.226 138.688C207.025 138.492 206.764 138.369 206.486 138.339C206.207 138.309 205.926 138.373 205.688 138.521C205.525 138.624 205.388 138.764 205.288 138.928C204.432 140.348 203.553 141.755 202.662 143.154C202.522 143.38 202.457 143.644 202.477 143.908C202.497 144.173 202.6 144.424 202.772 144.627C202.944 144.829 203.176 144.971 203.434 145.033C203.692 145.094 203.963 145.072 204.208 144.97C204.44 144.872 204.636 144.705 204.771 144.492C205.671 143.078 206.562 141.653 207.428 140.218M200.669 150.801C200.827 150.56 200.898 150.271 200.868 149.984C200.838 149.697 200.71 149.429 200.505 149.225C200.3 149.022 200.031 148.895 199.744 148.867C199.457 148.839 199.168 148.91 198.928 149.07C198.789 149.163 198.67 149.283 198.577 149.422C197.66 150.816 196.741 152.209 195.82 153.6C195.665 153.837 195.595 154.12 195.621 154.402C195.648 154.684 195.769 154.948 195.965 155.153C196.161 155.357 196.42 155.489 196.701 155.526C196.982 155.564 197.267 155.505 197.51 155.36C197.671 155.263 197.807 155.131 197.91 154.974C198.827 153.582 199.746 152.19 200.666 150.799M193.854 161.256C193.995 161.03 194.06 160.764 194.039 160.497C194.019 160.231 193.914 159.979 193.739 159.776C193.565 159.574 193.33 159.433 193.07 159.374C192.809 159.314 192.537 159.34 192.292 159.446C192.061 159.546 191.866 159.714 191.732 159.928C190.837 161.354 189.965 162.79 189.114 164.238C188.974 164.476 188.917 164.753 188.951 165.027C188.985 165.301 189.108 165.556 189.302 165.752C189.496 165.948 189.75 166.075 190.023 166.112C190.297 166.15 190.575 166.095 190.814 165.958C191.007 165.85 191.167 165.692 191.278 165.501C192.118 164.073 192.978 162.658 193.858 161.257M187.783 172.014C187.905 171.751 187.932 171.453 187.858 171.171C187.785 170.89 187.616 170.643 187.381 170.473C187.145 170.303 186.858 170.22 186.568 170.238C186.278 170.257 186.003 170.376 185.791 170.574C185.677 170.682 185.584 170.81 185.517 170.952L185.049 171.952L184.82 172.452L184.598 172.952L184.381 173.452L184.171 173.952L183.966 174.452L183.766 174.952L183.504 175.641C183.404 175.922 183.408 176.229 183.514 176.508C183.62 176.786 183.822 177.018 184.084 177.161C184.346 177.304 184.65 177.348 184.942 177.287C185.233 177.226 185.494 177.063 185.676 176.827C185.752 176.727 185.812 176.615 185.855 176.497L186.098 175.86L186.285 175.384L186.485 174.906L186.685 174.427L186.892 173.946L187.105 173.465L187.325 172.981L187.55 172.495L187.783 172.014ZM184.028 183.491C184.061 183.218 184.004 182.942 183.865 182.705C183.726 182.468 183.512 182.284 183.258 182.18C183.004 182.076 182.722 182.059 182.457 182.13C182.192 182.202 181.957 182.359 181.79 182.577C181.657 182.752 181.573 182.959 181.546 183.177L181.52 183.369L181.462 183.857L181.413 184.345L181.374 184.831L181.344 185.317L181.324 185.802L181.314 186.286V186.77L181.324 187.251L181.344 187.732L181.376 188.213L181.396 188.451C181.421 188.708 181.525 188.95 181.693 189.146C181.862 189.341 182.086 189.479 182.336 189.542C182.531 189.591 182.734 189.592 182.929 189.546C183.124 189.499 183.305 189.407 183.457 189.276C183.609 189.145 183.727 188.98 183.802 188.793C183.877 188.607 183.905 188.406 183.886 188.206L183.87 188.023L183.843 187.597L183.828 187.17L183.82 186.741V186.311L183.828 185.879L183.846 185.444L183.873 185.008L183.908 184.57L183.952 184.13L184.004 183.688L184.028 183.491ZM185.821 194.909C185.687 194.656 185.471 194.457 185.209 194.344C184.946 194.23 184.652 194.211 184.377 194.288C184.101 194.365 183.86 194.534 183.694 194.767C183.528 195 183.447 195.283 183.464 195.568C183.475 195.743 183.523 195.913 183.605 196.068L183.656 196.168L183.9 196.621L184.157 197.072L184.427 197.521L184.71 197.967L185.01 198.412L185.32 198.855L185.642 199.294L185.977 199.732L186.325 200.167L186.557 200.442C186.734 200.65 186.975 200.794 187.242 200.852C187.51 200.91 187.788 200.879 188.036 200.763C188.211 200.682 188.365 200.561 188.485 200.41C188.606 200.26 188.69 200.083 188.731 199.895C188.771 199.706 188.768 199.51 188.721 199.323C188.674 199.136 188.584 198.963 188.458 198.816L188.258 198.581L187.942 198.187L187.642 197.793L187.351 197.393L187.074 196.998L186.811 196.598L186.559 196.198L186.318 195.798L186.091 195.398L185.875 194.998L185.821 194.909ZM193.734 203.703C193.548 203.568 193.328 203.487 193.099 203.468C192.87 203.449 192.64 203.493 192.434 203.596C192.242 203.692 192.078 203.837 191.958 204.015C191.837 204.193 191.765 204.399 191.747 204.613C191.73 204.827 191.768 205.042 191.857 205.238C191.947 205.433 192.085 205.602 192.259 205.728L192.659 206.028L193.222 206.428L193.799 206.828L194.391 207.228L194.998 207.623L195.622 208.017L196.26 208.407L196.524 208.565C196.767 208.706 197.049 208.761 197.327 208.722C197.604 208.683 197.861 208.552 198.055 208.35C198.249 208.148 198.37 207.886 198.399 207.607C198.427 207.328 198.361 207.048 198.211 206.811C198.105 206.645 197.96 206.506 197.789 206.406L197.553 206.265L196.942 205.89L196.348 205.515L195.769 205.139L195.207 204.761L194.66 204.383L194.129 204.003L193.734 203.703ZM204.334 209.815C204.088 209.703 203.811 209.673 203.547 209.731C203.282 209.788 203.043 209.93 202.866 210.135C202.739 210.282 202.648 210.457 202.601 210.645C202.553 210.834 202.55 211.03 202.591 211.22C202.633 211.41 202.718 211.587 202.84 211.739C202.962 211.89 203.117 212.01 203.294 212.091L204.355 212.572L205.192 212.939L206.044 213.304L206.913 213.667L207.956 214.088C208.201 214.184 208.47 214.201 208.724 214.135C208.979 214.07 209.207 213.926 209.375 213.724C209.501 213.572 209.59 213.391 209.633 213.198C209.676 213.005 209.673 212.804 209.623 212.613C209.574 212.421 209.48 212.244 209.349 212.095C209.218 211.947 209.053 211.832 208.869 211.759L207.869 211.353L207.02 210.999L206.188 210.644L205.374 210.286L204.334 209.815Z" fill="#A9A7D3"/>
<g opacity="0.33">
<path fill-rule="evenodd" clip-rule="evenodd" d="M265.682 38.201C264.386 35.9316 262.851 33.8075 261.103 31.865L265.792 25.113C265.966 24.8606 266.039 24.5516 265.996 24.2477C265.953 23.9438 265.797 23.6672 265.56 23.473L259.551 18.589C259.314 18.3949 259.012 18.2974 258.706 18.3159C258.4 18.3345 258.113 18.4677 257.901 18.689L252.211 24.655C249.962 23.3522 247.582 22.2893 245.111 21.484L245.797 13.284C245.822 12.9786 245.73 12.6749 245.541 12.4339C245.352 12.1928 245.078 12.0322 244.776 11.984L237.13 10.759C236.827 10.7114 236.518 10.7791 236.263 10.9487C236.008 11.1183 235.826 11.3776 235.753 11.675L233.811 19.675C231.21 19.669 228.616 19.9402 226.073 20.484L222.573 13.042C222.442 12.764 222.211 12.5457 221.926 12.4309C221.641 12.3161 221.323 12.3133 221.036 12.423L213.803 15.185C213.516 15.2942 213.281 15.5074 213.145 15.7822C213.009 16.057 212.982 16.373 213.069 16.667L215.389 24.573C213.133 25.8656 211.021 27.3949 209.089 29.135L202.338 24.446C202.085 24.2714 201.776 24.1983 201.472 24.2413C201.168 24.2843 200.891 24.4402 200.697 24.678L195.814 30.687C195.619 30.9242 195.522 31.226 195.54 31.5321C195.559 31.8382 195.692 32.1261 195.914 32.338L201.88 38.028C200.577 40.277 199.514 42.6568 198.709 45.128L190.509 44.441C190.203 44.4161 189.899 44.5075 189.658 44.697C189.417 44.8866 189.257 45.1602 189.209 45.463L187.984 53.109C187.936 53.4116 188.003 53.7212 188.173 53.9762C188.343 54.2313 188.602 54.4133 188.9 54.486L196.9 56.428C196.894 59.0291 197.165 61.6234 197.709 64.167L190.267 67.667C189.989 67.7977 189.77 68.0288 189.655 68.3139C189.54 68.599 189.538 68.917 189.648 69.204L192.411 76.437C192.52 76.7235 192.733 76.9584 193.007 77.0946C193.282 77.2309 193.598 77.2585 193.892 77.172L201.787 74.85C203.073 77.0966 204.594 79.2004 206.324 81.126L201.654 87.907C201.48 88.1596 201.408 88.4681 201.452 88.7714C201.495 89.0746 201.651 89.3504 201.889 89.544L207.898 94.428C208.136 94.6223 208.439 94.7192 208.746 94.6991C209.053 94.6791 209.341 94.5437 209.552 94.32L215.21 88.341C217.459 89.6462 219.838 90.7114 222.31 91.519L221.656 99.737C221.631 100.043 221.722 100.346 221.912 100.587C222.101 100.829 222.375 100.989 222.678 101.037L230.324 102.262C230.627 102.31 230.937 102.242 231.193 102.071C231.448 101.901 231.63 101.64 231.702 101.342L233.609 93.342C236.21 93.3512 238.805 93.083 241.349 92.542L244.889 99.982C245.02 100.259 245.251 100.476 245.536 100.59C245.82 100.704 246.137 100.707 246.424 100.597L253.657 97.834C253.944 97.7247 254.179 97.5107 254.315 97.235C254.451 96.9594 254.478 96.6425 254.39 96.348L252.042 88.464C254.3 87.1742 256.415 85.6473 258.35 83.909L265.132 88.579C265.384 88.7524 265.693 88.8244 265.996 88.7809C266.299 88.7373 266.575 88.5814 266.769 88.344L271.652 82.335C271.846 82.0968 271.943 81.794 271.923 81.4873C271.903 81.1806 271.767 80.8929 271.544 80.682L265.565 75.024C266.87 72.7754 267.936 70.3957 268.743 67.924L276.962 68.579C277.267 68.6037 277.571 68.5122 277.812 68.3227C278.053 68.1333 278.214 67.8598 278.262 67.557L279.486 59.911C279.534 59.6077 279.466 59.2975 279.295 59.0421C279.125 58.7867 278.864 58.6049 278.566 58.533L270.566 56.626C270.575 54.025 270.306 51.4303 269.766 48.886L277.206 45.346C277.483 45.2147 277.7 44.9836 277.814 44.699C277.928 44.4144 277.93 44.0973 277.821 43.811L275.059 36.578C274.948 36.2905 274.733 36.0555 274.456 35.9205C274.179 35.7854 273.861 35.7602 273.567 35.85L265.682 38.201ZM218.368 54.05C218.691 52.0331 219.408 50.0996 220.478 48.3597C221.548 46.6199 222.95 45.1079 224.605 43.91C226.259 42.7121 228.133 41.8519 230.12 41.3783C232.107 40.9047 234.168 40.8272 236.185 41.15C238.202 41.4729 240.135 42.1899 241.875 43.26C243.615 44.3302 245.127 45.7326 246.325 47.3872C247.523 49.0418 248.383 50.9161 248.857 52.9032C249.33 54.8902 249.408 56.951 249.085 58.968C248.762 60.9852 248.045 62.919 246.975 64.6591C245.905 66.3991 244.502 67.9113 242.847 69.1092C241.193 70.3071 239.318 71.1673 237.331 71.6407C235.344 72.1141 233.283 72.1913 231.266 71.868C229.249 71.5453 227.315 70.8284 225.575 69.7584C223.835 68.6883 222.323 67.286 221.125 65.6315C219.928 63.977 219.067 62.1027 218.594 60.1157C218.12 58.1287 218.043 56.068 218.366 54.051" fill="#F79E3B"/>
</g>
<g opacity="0.33">
<path fill-rule="evenodd" clip-rule="evenodd" d="M101.731 179.755C101.468 178.218 101.041 176.713 100.457 175.266L104.466 172.437C104.616 172.331 104.72 172.173 104.757 171.993C104.795 171.814 104.764 171.627 104.67 171.47L102.297 167.504C102.203 167.346 102.053 167.231 101.878 167.179C101.702 167.128 101.513 167.144 101.35 167.226L96.9368 169.409C95.9413 168.219 94.8235 167.137 93.6018 166.181L95.662 161.716C95.739 161.55 95.7501 161.361 95.6934 161.187C95.6366 161.012 95.516 160.866 95.3558 160.777L91.318 158.529C91.158 158.441 90.9706 158.416 90.7929 158.459C90.6151 158.502 90.4601 158.61 90.3585 158.762L87.6359 162.854C86.1783 162.32 84.6679 161.942 83.1303 161.728L82.6837 156.838C82.667 156.656 82.5818 156.486 82.4452 156.363C82.3086 156.241 82.1308 156.174 81.9473 156.178L77.3266 156.251C77.1437 156.253 76.9686 156.325 76.8362 156.451C76.7039 156.577 76.624 156.749 76.6127 156.932L76.3002 161.84C74.7701 162.104 73.2725 162.53 71.8328 163.111L69.0044 159.102C68.8983 158.953 68.7399 158.849 68.5606 158.811C68.3813 158.773 68.1943 158.804 68.0369 158.898L64.0713 161.279C63.9142 161.373 63.7983 161.523 63.7468 161.698C63.6953 161.874 63.712 162.063 63.7936 162.227L65.977 166.639C64.787 167.635 63.705 168.753 62.7487 169.974L58.2844 167.913C58.1179 167.836 57.9283 167.825 57.7538 167.882C57.5792 167.938 57.4327 168.059 57.3438 168.22L55.0962 172.258C55.0076 172.418 54.9824 172.605 55.0255 172.783C55.0686 172.961 55.177 173.116 55.3291 173.217L59.4207 175.94C58.8865 177.398 58.5091 178.908 58.2948 180.446L53.4051 180.892C53.2222 180.908 53.0522 180.993 52.9294 181.13C52.8066 181.267 52.7402 181.445 52.7435 181.628L52.8165 186.249C52.8192 186.432 52.8908 186.607 53.0171 186.739C53.1433 186.872 53.3148 186.951 53.4974 186.963L58.4055 187.275C58.6682 188.798 59.0917 190.288 59.669 191.722L55.6709 194.564C55.5221 194.67 55.4188 194.828 55.3812 195.007C55.3437 195.186 55.3748 195.372 55.4683 195.529L57.841 199.495C57.9351 199.653 58.0853 199.769 58.2615 199.82C58.4377 199.871 58.6268 199.854 58.7907 199.772L63.1844 197.574C64.178 198.765 65.294 199.849 66.5142 200.808L64.4701 205.284C64.3937 205.45 64.383 205.639 64.4401 205.813C64.4972 205.987 64.6178 206.133 64.7779 206.221L68.8157 208.469C68.9759 208.558 69.1637 208.583 69.3416 208.539C69.5196 208.496 69.6746 208.387 69.7759 208.234L72.4777 204.138C73.9346 204.674 75.4444 205.053 76.9816 205.269L77.4497 210.161C77.4667 210.343 77.5519 210.512 77.6883 210.634C77.8246 210.756 78.002 210.822 78.1849 210.819L82.8055 210.746C82.9891 210.744 83.1648 210.672 83.2975 210.545C83.4301 210.418 83.5098 210.246 83.5205 210.062L83.8145 205.161C85.3446 204.899 86.8423 204.474 88.2824 203.894L91.133 207.897C91.2395 208.046 91.3979 208.149 91.5769 208.187C91.7558 208.224 91.9423 208.193 92.0993 208.099L96.0641 205.726C96.2217 205.632 96.338 205.482 96.3895 205.306C96.441 205.13 96.4238 204.941 96.3415 204.777L94.1428 200.383C95.3347 199.389 96.4187 198.273 97.377 197.052L101.853 199.097C102.02 199.174 102.209 199.184 102.383 199.127C102.557 199.07 102.702 198.95 102.791 198.789L105.039 194.752C105.127 194.591 105.152 194.404 105.109 194.226C105.065 194.048 104.957 193.893 104.804 193.791L100.708 191.09C101.244 189.632 101.623 188.122 101.839 186.585L106.735 186.118C106.917 186.101 107.086 186.016 107.208 185.88C107.33 185.743 107.396 185.566 107.393 185.383L107.32 180.762C107.317 180.579 107.245 180.403 107.119 180.271C106.992 180.138 106.819 180.058 106.636 180.047L101.731 179.755ZM71.9587 178.987C72.5514 177.921 73.3481 176.983 74.3035 176.226C75.2588 175.468 76.3539 174.907 77.5264 174.572C78.6989 174.238 79.9257 174.138 81.1368 174.278C82.3479 174.418 83.5196 174.795 84.5849 175.388C85.6504 175.981 86.5887 176.778 87.3462 177.733C88.1037 178.689 88.6656 179.784 88.9997 180.957C89.3338 182.129 89.4337 183.356 89.2936 184.567C89.1535 185.778 88.7762 186.95 88.1832 188.015C87.5905 189.081 86.7937 190.019 85.8384 190.777C84.8831 191.534 83.7879 192.096 82.6154 192.43C81.4429 192.764 80.2161 192.864 79.005 192.724C77.7939 192.584 76.6222 192.207 75.5569 191.614C74.4915 191.021 73.5533 190.225 72.7959 189.269C72.0384 188.314 71.4765 187.219 71.1424 186.046C70.8082 184.874 70.7083 183.647 70.8483 182.436C70.9883 181.225 71.3658 180.052 71.9587 178.987Z" fill="#F79E3B"/>
</g>
<path fill-rule="evenodd" clip-rule="evenodd" d="M143.45 228.784C85.4267 199.772 50.4848 145.776 50.3008 54.1336L143.789 18.3086L237.277 54.1336C237.093 145.967 202.014 199.981 143.789 228.957L143.45 228.784Z" fill="#000045"/>
<path fill-rule="evenodd" clip-rule="evenodd" d="M138.207 226.075C80.1835 197.067 45.2416 143.067 45.0586 51.4246L138.547 15.6016L232.035 51.4246C231.851 143.258 196.772 197.276 138.547 226.248L138.207 226.075Z" fill="#0B56A3"/>
<path fill-rule="evenodd" clip-rule="evenodd" d="M140.552 198.99C97.4715 177.453 71.5325 137.363 71.3945 69.3228L140.803 42.7227L210.215 69.3228C210.077 137.505 184.032 177.609 140.803 199.123L140.552 198.99Z" fill="#055DB7"/>
<path d="M128.983 116.592V109.623L121.353 97.8016C121.003 97.2778 120.815 96.6619 120.814 96.0316C120.815 95.6986 120.882 95.3692 121.013 95.063C121.144 94.7568 121.336 94.4802 121.576 94.2498C121.816 94.0194 122.101 93.84 122.412 93.7222C122.724 93.6045 123.056 93.5509 123.388 93.5646C123.912 93.5472 124.427 93.6938 124.863 93.9839C125.299 94.274 125.634 94.6931 125.819 95.1826L131.557 104.619H131.679L137.442 95.1986C137.633 94.7223 137.961 94.3138 138.385 94.0255C138.81 93.7372 139.311 93.5822 139.823 93.5806C140.155 93.5628 140.486 93.6122 140.798 93.7261C141.11 93.8399 141.395 94.0157 141.637 94.2429C141.879 94.4701 142.073 94.7439 142.206 95.0479C142.339 95.3519 142.409 95.6797 142.412 96.0116C142.406 96.6495 142.213 97.2716 141.858 97.8016L134.228 109.638V116.607C134.241 116.96 134.183 117.311 134.056 117.641C133.93 117.971 133.738 118.272 133.492 118.526C133.247 118.779 132.952 118.981 132.627 119.119C132.302 119.256 131.952 119.326 131.599 119.325C131.245 119.324 130.896 119.252 130.572 119.113C130.247 118.973 129.954 118.77 129.71 118.515C129.466 118.26 129.276 117.958 129.151 117.627C129.026 117.297 128.969 116.944 128.983 116.592Z" fill="white"/>
<path d="M140.606 113.636C140.606 110.248 143.215 108.285 147.87 108.005L152.565 107.725V106.498C152.565 104.758 151.349 103.751 149.437 103.751C148.715 103.731 148 103.902 147.365 104.247C146.73 104.592 146.197 105.098 145.82 105.714C145.575 106.015 145.264 106.256 144.912 106.418C144.559 106.58 144.174 106.66 143.785 106.65C143.519 106.667 143.252 106.63 143.001 106.54C142.749 106.451 142.519 106.311 142.324 106.129C142.128 105.947 141.972 105.727 141.865 105.482C141.758 105.238 141.702 104.974 141.7 104.707C141.701 104.309 141.79 103.917 141.959 103.557C142.829 101.334 145.82 99.957 149.675 99.957C154.456 99.957 157.564 102.424 157.564 106.178V116.798C157.601 117.134 157.563 117.475 157.454 117.795C157.344 118.115 157.165 118.407 156.929 118.65C156.693 118.893 156.407 119.08 156.09 119.2C155.774 119.319 155.435 119.368 155.097 119.341C154.786 119.368 154.472 119.329 154.177 119.228C153.881 119.126 153.61 118.964 153.381 118.751C153.152 118.538 152.97 118.28 152.847 117.993C152.724 117.705 152.662 117.396 152.666 117.083V116.138H152.556C151.974 117.124 151.138 117.935 150.136 118.488C149.133 119.041 148.001 119.315 146.856 119.281C143.302 119.282 140.606 116.988 140.606 113.636ZM152.564 112.161V110.798L148.637 111.042C146.737 111.179 145.661 112.059 145.661 113.351C145.661 114.643 146.811 115.609 148.515 115.609C150.738 115.614 152.564 114.175 152.564 112.161Z" fill="white"/>
<path d="M160.942 116.714V96.2154C160.927 95.8719 160.981 95.5289 161.102 95.207C161.223 94.8852 161.408 94.5911 161.646 94.3427C161.883 94.0942 162.169 93.8965 162.485 93.7614C162.801 93.6263 163.142 93.5566 163.485 93.5566C163.829 93.5566 164.17 93.6263 164.486 93.7614C164.802 93.8965 165.088 94.0942 165.325 94.3427C165.563 94.5911 165.748 94.8852 165.869 95.207C165.99 95.5289 166.044 95.8719 166.029 96.2154V116.715C166.041 117.057 165.984 117.397 165.861 117.716C165.738 118.035 165.553 118.326 165.316 118.571C165.078 118.817 164.794 119.012 164.48 119.146C164.165 119.279 163.827 119.348 163.485 119.348C163.144 119.348 162.806 119.279 162.491 119.146C162.177 119.012 161.893 118.817 161.655 118.571C161.418 118.326 161.232 118.035 161.11 117.716C160.987 117.397 160.93 117.056 160.942 116.714Z" fill="white"/>
<path d="M169.563 116.714V96.2154C169.548 95.8719 169.602 95.5289 169.723 95.207C169.844 94.8852 170.029 94.5911 170.267 94.3427C170.504 94.0942 170.79 93.8965 171.106 93.7614C171.422 93.6263 171.763 93.5566 172.107 93.5566C172.45 93.5566 172.791 93.6263 173.107 93.7614C173.423 93.8965 173.709 94.0942 173.946 94.3427C174.184 94.5911 174.369 94.8852 174.49 95.207C174.611 95.5289 174.665 95.8719 174.65 96.2154V116.715C174.662 117.057 174.605 117.397 174.482 117.716C174.36 118.035 174.174 118.326 173.937 118.571C173.699 118.817 173.415 119.012 173.101 119.146C172.786 119.279 172.448 119.348 172.107 119.348C171.765 119.348 171.427 119.279 171.112 119.146C170.798 119.012 170.514 118.817 170.276 118.571C170.039 118.326 169.854 118.035 169.731 117.716C169.608 117.397 169.551 117.056 169.563 116.714Z" fill="white"/>
<path d="M177.336 113.636C177.336 110.248 179.936 108.285 184.6 108.005L189.29 107.725V106.498C189.29 104.758 188.074 103.751 186.162 103.751C185.441 103.731 184.727 103.903 184.093 104.247C183.459 104.592 182.927 105.098 182.551 105.714C182.306 106.015 181.995 106.256 181.642 106.418C181.289 106.58 180.904 106.66 180.516 106.65C180.247 106.673 179.976 106.639 179.72 106.552C179.464 106.464 179.23 106.325 179.03 106.143C178.831 105.96 178.672 105.738 178.562 105.491C178.453 105.244 178.396 104.977 178.395 104.707C178.395 104.309 178.486 103.915 178.66 103.557C179.525 101.334 182.516 99.957 186.376 99.957C191.152 99.957 194.265 102.424 194.265 106.178V116.798C194.302 117.134 194.264 117.475 194.154 117.795C194.044 118.115 193.865 118.407 193.629 118.65C193.394 118.893 193.107 119.08 192.791 119.2C192.474 119.319 192.135 119.368 191.798 119.341C191.486 119.367 191.173 119.328 190.877 119.226C190.582 119.124 190.311 118.962 190.082 118.75C189.852 118.537 189.67 118.279 189.546 117.992C189.422 117.705 189.359 117.396 189.362 117.083V116.138H189.262C188.676 117.121 187.84 117.93 186.838 118.482C185.836 119.035 184.706 119.31 183.562 119.281C180.027 119.282 177.336 116.988 177.336 113.636ZM189.289 112.161V110.798L185.362 111.042C183.47 111.179 182.391 112.059 182.391 113.351C182.391 114.643 183.535 115.609 185.239 115.609C187.476 115.614 189.289 114.175 189.289 112.161Z" fill="white"/>
<path d="M114.323 102.081C114.021 101.269 113.491 100.563 112.797 100.046L111.82 99.4856L107.683 97.0996L101.991 93.7886L94.391 89.3886C93.4907 88.8666 92.4687 88.5911 91.428 88.5898C90.3874 88.5886 89.3647 88.8617 88.4632 89.3816C87.5617 89.9014 86.8131 90.6497 86.2929 91.5511C85.7726 92.4524 85.4992 93.4749 85.5 94.5156V97.5676C85.5783 96.656 85.9331 95.79 86.517 95.0856C87.156 94.3926 87.9865 93.9051 88.9031 93.6851C89.8197 93.465 90.781 93.5223 91.665 93.8496L92.865 94.5366L111.658 105.371L112.706 105.992C112.734 106.002 112.762 106.016 112.787 106.033C112.895 106.117 112.985 106.223 113.051 106.343C113.104 106.424 113.136 106.517 113.144 106.614C113.152 106.711 113.136 106.808 113.097 106.897C113.727 106.286 114.176 105.513 114.392 104.662C114.609 103.812 114.585 102.918 114.323 102.081Z" fill="white"/>
<path d="M90.7165 118.775V94.5165C90.7248 94.3961 90.7652 94.2801 90.8335 94.1805C90.8921 94.0806 90.9763 93.9981 91.0775 93.9415C91.1858 93.8797 91.3087 93.8479 91.4335 93.8495H91.6825C90.7983 93.5238 89.8372 93.4684 88.9214 93.6902C88.0057 93.9121 87.1765 94.4013 86.5395 95.0955C85.9548 95.8017 85.6002 96.6699 85.5235 97.5835V118.784C85.5197 119.823 85.7905 120.845 86.3084 121.747C86.8263 122.648 87.573 123.397 88.473 123.917C89.373 124.437 90.3944 124.711 91.434 124.71C92.4735 124.709 93.4944 124.434 94.3935 123.912L96.7185 122.564C95.9716 122.843 95.163 122.915 94.3785 122.773C93.444 122.562 92.5953 122.073 91.9443 121.37C91.2933 120.667 90.8704 119.783 90.7315 118.836L90.7165 118.775Z" fill="white"/>
<path d="M115.386 101.525L112.843 100.035C113.537 100.552 114.067 101.259 114.369 102.07C114.627 102.913 114.645 103.812 114.42 104.665C114.196 105.518 113.737 106.291 113.097 106.897C113.045 107.015 112.96 107.116 112.853 107.187H112.822L111.652 107.914L92.9088 118.725L91.7698 119.386C91.6767 119.437 91.5735 119.466 91.4678 119.471C91.362 119.476 91.2565 119.458 91.1588 119.417C91.0612 119.376 90.974 119.313 90.9038 119.234C90.8335 119.155 90.7819 119.061 90.7528 118.959C90.7504 118.941 90.7504 118.922 90.7528 118.903C90.9051 119.842 91.3347 120.713 91.9864 121.406C92.6381 122.098 93.4821 122.58 94.4098 122.789C95.1943 122.932 96.0029 122.86 96.7498 122.58L98.0718 121.817L102.319 119.365L107.538 116.354L115.432 111.776C116.332 111.257 117.079 110.51 117.599 109.611C118.118 108.711 118.392 107.691 118.392 106.652C118.392 105.613 118.118 104.592 117.599 103.693C117.079 102.793 116.332 102.046 115.432 101.527L115.386 101.525Z" fill="white"/>
<path d="M58.884 0.15625H2C0.89543 0.15625 0 1.05168 0 2.15625V29.0452C0 30.1498 0.89543 31.0452 2 31.0452H58.884C59.9886 31.0452 60.884 30.1498 60.884 29.0452V2.15625C60.884 1.05168 59.9886 0.15625 58.884 0.15625Z" fill="#344DA2"/>
<path d="M16.0572 26.6727H12.5432C12.004 26.6801 11.4798 26.4945 11.0654 26.1494C10.651 25.8043 10.3736 25.3224 10.2832 24.7907C10.1194 23.7817 9.64254 22.8497 8.92007 22.1265C8.1976 21.4033 7.26608 20.9255 6.25721 20.7607C5.72562 20.6702 5.24387 20.3927 4.89879 19.9783C4.55372 19.5639 4.36804 19.0399 4.37521 18.5007V12.7007C4.36779 12.1616 4.55326 11.6376 4.89817 11.2232C5.24308 10.8088 5.72472 10.5313 6.25621 10.4407C7.26463 10.2764 8.1959 9.79931 8.91836 9.07685C9.64082 8.35439 10.1179 7.42312 10.2822 6.4147C10.3728 5.8832 10.6503 5.40157 11.0647 5.05666C11.4791 4.71175 12.0031 4.52628 12.5422 4.5337H16.0552C16.2005 4.52929 16.3453 4.5541 16.4808 4.60667C16.6164 4.65924 16.74 4.73848 16.8443 4.83972C16.9487 4.94095 17.0317 5.06211 17.0883 5.19601C17.145 5.32991 17.1742 5.47381 17.1742 5.6192C17.1742 5.76459 17.145 5.9085 17.0883 6.04239C17.0317 6.17629 16.9487 6.29745 16.8443 6.39869C16.74 6.49992 16.6164 6.57917 16.4808 6.63173C16.3453 6.6843 16.2005 6.70911 16.0552 6.7047H12.5422C12.5192 6.7034 12.4963 6.70817 12.4758 6.71853C12.4553 6.72888 12.4378 6.74446 12.4252 6.7637C12.1881 8.22109 11.4987 9.56703 10.4546 10.6111C9.41054 11.6552 8.0646 12.3446 6.60721 12.5817C6.58789 12.5945 6.57227 12.6121 6.56192 12.6328C6.55156 12.6535 6.54683 12.6766 6.54821 12.6997V18.4997C6.54681 18.5227 6.55153 18.5456 6.5619 18.5662C6.57226 18.5867 6.5879 18.6042 6.60721 18.6167C8.0659 18.8547 9.41272 19.5456 10.4569 20.5916C11.5011 21.6376 12.1897 22.9856 12.4252 24.4447C12.4378 24.4643 12.4553 24.4802 12.4761 24.4907C12.4968 24.5012 12.52 24.5061 12.5432 24.5047H16.0572C16.3394 24.5133 16.6072 24.6314 16.8037 24.834C17.0003 25.0367 17.1103 25.3079 17.1103 25.5902C17.1103 25.8725 17.0003 26.1437 16.8037 26.3464C16.6072 26.549 16.3394 26.6671 16.0572 26.6757V26.6727Z" fill="white"/>
<path d="M48.3459 26.6737H44.8279C44.5457 26.6651 44.278 26.547 44.0814 26.3443C43.8848 26.1417 43.7749 25.8705 43.7749 25.5882C43.7749 25.3058 43.8848 25.0346 44.0814 24.832C44.278 24.6293 44.5457 24.5112 44.8279 24.5027H48.3459C48.369 24.5039 48.392 24.4989 48.4125 24.4884C48.4331 24.4779 48.4505 24.4621 48.4629 24.4427C48.6992 22.9843 49.3882 21.6372 50.4323 20.592C51.4764 19.5468 52.8228 18.8564 54.2809 18.6187C54.3004 18.6062 54.3163 18.5889 54.3268 18.5683C54.3374 18.5477 54.3422 18.5247 54.3409 18.5017V12.7017C54.3423 12.6785 54.3376 12.6555 54.3272 12.6348C54.3169 12.614 54.3013 12.5964 54.2819 12.5837C52.8247 12.3466 51.4789 11.6574 50.4348 10.6135C49.3907 9.56958 48.7013 8.22387 48.4639 6.76666C48.4516 6.74709 48.4342 6.73119 48.4137 6.72063C48.3931 6.71007 48.37 6.70525 48.3469 6.70665H44.8279C44.6826 6.71107 44.5379 6.68625 44.4023 6.63369C44.2668 6.58112 44.1432 6.50187 44.0388 6.40064C43.9344 6.2994 43.8515 6.17824 43.7948 6.04435C43.7382 5.91045 43.709 5.76655 43.709 5.62116C43.709 5.47577 43.7382 5.33186 43.7948 5.19796C43.8515 5.06407 43.9344 4.94291 44.0388 4.84167C44.1432 4.74044 44.2668 4.66119 44.4023 4.60862C44.5379 4.55606 44.6826 4.53124 44.8279 4.53566H48.3459C48.8851 4.52848 49.4092 4.71416 49.8235 5.05923C50.2379 5.4043 50.5154 5.88606 50.6059 6.41765C50.7696 7.42635 51.2464 8.35805 51.9687 9.08091C52.691 9.80377 53.6224 10.2812 54.6309 10.4457C55.1624 10.5362 55.6441 10.8137 55.989 11.2281C56.3339 11.6425 56.5194 12.1665 56.5119 12.7057V18.5057C56.5191 19.0447 56.3336 19.5686 55.9887 19.983C55.6439 20.3973 55.1623 20.6749 54.6309 20.7657C53.6221 20.9306 52.6906 21.4085 51.9682 22.1319C51.2459 22.8553 50.7694 23.7875 50.6059 24.7967C50.5143 25.3273 50.2364 25.8079 49.8221 26.152C49.4078 26.496 48.8844 26.681 48.3459 26.6737Z" fill="white"/>
<path d="M30.5427 23.1187C34.6561 23.1187 37.9907 19.7841 37.9907 15.6707C37.9907 11.5572 34.6561 8.22266 30.5427 8.22266C26.4293 8.22266 23.0947 11.5572 23.0947 15.6707C23.0947 19.7841 26.4293 23.1187 30.5427 23.1187Z" fill="white"/>
</svg>
