<svg width="25" height="37" viewBox="0 0 25 37" fill="none" xmlns="http://www.w3.org/2000/svg">
<g clip-path="url(#clip0_5208_4823)">
<path d="M7.27825 9.58484C7.45151 6.57531 8.29569 3.51618 11.8623 3.15423C14.0133 2.93559 16.297 3.76238 17.8822 5.21019C18.0481 5.36085 18.214 5.52437 18.4222 5.60705C18.6305 5.68973 18.8996 5.66951 19.0416 5.49497C18.8314 5.28735 18.4093 4.87396 18.4093 4.87396L18.6121 4.50649C18.6121 4.50649 18.0647 3.88181 17.9375 3.78259C15.4399 1.84422 12.0632 1.1295 9.18596 2.91721C6.79533 4.4036 6.26817 6.99973 6.15942 9.583H7.27272L7.27825 9.58484Z" fill="#6CACF6" stroke="#6CACF6" stroke-width="0.283853"/>
<path d="M19.7438 15.0029C20.3041 16.12 20.2101 17.2886 19.6793 18.413C19.2424 19.3427 18.5291 20.1419 17.7347 20.7666C16.6196 21.643 15.2962 22.2217 13.9414 22.648C13.9414 22.2126 13.9672 21.5989 13.9691 21.1635C14.9054 20.7758 15.8805 20.276 16.7394 19.7395C17.9264 18.9973 18.7872 17.8673 18.5605 16.3644L18.378 15.5008" fill="#6CACF6"/>
<path d="M19.7438 15.0029C20.3041 16.12 20.2101 17.2886 19.6793 18.413C19.2424 19.3427 18.5291 20.1419 17.7347 20.7666C16.6196 21.643 15.2962 22.2217 13.9414 22.648C13.9414 22.2126 13.9672 21.5989 13.9691 21.1635C14.9054 20.7758 15.8805 20.276 16.7394 19.7395C17.9264 18.9973 18.7872 17.8673 18.5605 16.3644L18.378 15.5008" stroke="#6CACF6" stroke-width="0.227082"/>
<path d="M18.5782 34.2689H13.2771V29.2549H11.5906V34.2689H6.28954C5.85085 34.2689 5.49512 34.6235 5.49512 35.0608V35.1582C5.49512 35.5955 5.85085 35.9501 6.28954 35.9501H18.5782C19.0168 35.9501 19.3726 35.5955 19.3726 35.1582V35.0608C19.3726 34.6235 19.0168 34.2689 18.5782 34.2689ZM13.2402 18.2365H11.6274V27.0593H13.2402V18.2365Z" fill="#0B56A3" stroke="#0B56A3" stroke-width="0.170312"/>
<path d="M16.7795 34.2688C17.4283 33.6221 17.6882 32.7181 17.6882 31.6837C17.6882 30.4435 17.1039 29.2217 16.1215 28.4555C14.8533 27.4671 13.1576 27.4395 11.6259 27.3936C10.391 27.3568 8.73024 27.0978 8.31736 25.7253C8.21599 25.3854 8.2123 25.0216 8.30262 24.6799C8.52933 23.8182 9.32375 23.4268 10.144 23.267C10.3209 23.2321 10.4979 23.1972 10.6859 23.1586C10.6859 22.5982 10.6859 22.036 10.684 21.4719C10.684 21.4719 8.66757 21.8045 7.8068 22.3667C6.82437 23.0097 6.27325 24.046 6.27325 25.22C6.27325 26.6531 7.13772 27.9172 8.47772 28.4519C10.1219 29.1078 11.8287 28.948 13.5281 29.2676C15.4856 29.6351 16.8661 32.0696 14.9621 33.4935C14.5732 33.7525 13.9244 34.0098 13.2756 34.1402" fill="#6CACF6"/>
<path d="M16.7795 34.2688C17.4283 33.6221 17.6882 32.7181 17.6882 31.6837C17.6882 30.4435 17.1039 29.2217 16.1215 28.4555C14.8533 27.4671 13.1576 27.4395 11.6259 27.3936C10.391 27.3568 8.73024 27.0978 8.31736 25.7253C8.21599 25.3854 8.2123 25.0216 8.30262 24.6799C8.52933 23.8182 9.32375 23.4268 10.144 23.267C10.3209 23.2321 10.4979 23.1972 10.6859 23.1586C10.6859 22.5982 10.6859 22.036 10.684 21.4719C10.684 21.4719 8.66757 21.8045 7.8068 22.3667C6.82437 23.0097 6.27325 24.046 6.27325 25.22C6.27325 26.6531 7.13772 27.9172 8.47772 28.4519C10.1219 29.1078 11.8287 28.948 13.5281 29.2676C15.4856 29.6351 16.8661 32.0696 14.9621 33.4935C14.5732 33.7525 13.9244 34.0098 13.2756 34.1402" stroke="#6CACF6" stroke-width="0.227082"/>
<mask id="mask0_5208_4823" style="mask-type:luminance" maskUnits="userSpaceOnUse" x="4" y="17" width="17" height="20">
<path d="M4.70032 17.4447V36.7403H20.1666V17.4447H4.70032ZM11.0188 26.7838C11.2142 26.804 11.4206 26.8187 11.6437 26.8243L11.7542 26.8279C12.4307 26.8481 13.1459 26.8702 13.8518 26.9749V27.482L13.6675 27.6657H11.2031L11.0188 27.482V26.7838ZM13.8868 29.9606C13.7375 29.8981 13.5827 29.8503 13.4242 29.8209C12.827 29.7088 12.2316 29.6592 11.6031 29.6059C11.3967 29.5894 11.1902 29.571 10.9819 29.5508V28.8288L11.1663 28.645H13.7043L13.8887 28.8288V29.9606H13.8868Z" fill="white"/>
</mask>
<g mask="url(#mask0_5208_4823)">
<path d="M18.5783 34.2689H13.2772V29.2549H11.5907V34.2689H6.28966C5.85098 34.2689 5.49524 34.6235 5.49524 35.0608V35.1582C5.49524 35.5954 5.85098 35.95 6.28966 35.95H18.5783C19.017 35.95 19.3727 35.5954 19.3727 35.1582V35.0608C19.3727 34.6235 19.017 34.2689 18.5783 34.2689ZM13.2404 18.2365H11.6276V27.0593H13.2404V18.2365Z" fill="#0B56A3" stroke="#0B56A3" stroke-width="0.170312"/>
</g>
<path d="M1.89847 10.0336C1.07272 10.0336 0.540035 10.9026 0.912361 11.6375C3.05232 15.8579 7.4336 18.7535 12.5006 18.7535C17.5675 18.7535 21.9488 15.8579 24.0888 11.6375C24.4611 10.9026 23.9284 10.0336 23.1026 10.0336H1.89847Z" fill="#0B56A3"/>
</g>
<defs>
<clipPath id="clip0_5208_4823">
<rect width="24.96" height="36.48" fill="white" transform="translate(0.0200195 0.259995)"/>
</clipPath>
</defs>
</svg>
