<svg width="25" height="25" viewBox="0 0 25 25" fill="none" xmlns="http://www.w3.org/2000/svg">
<path d="M12.5 24.5C19.1274 24.5 24.5 19.1274 24.5 12.5C24.5 5.87258 19.1274 0.5 12.5 0.5C5.87258 0.5 0.5 5.87258 0.5 12.5C0.5 19.1274 5.87258 24.5 12.5 24.5Z" fill="url(#paint0_linear_1787_48695)"/>
<path opacity="0.411" d="M12.6253 21.5329C10.8145 21.5329 9.04438 20.9959 7.53876 19.9899C6.03314 18.9839 4.85964 17.554 4.16668 15.881C3.47372 14.208 3.29241 12.3672 3.64568 10.5912C3.99895 8.81515 4.87093 7.18378 6.15136 5.90336C7.43178 4.62293 9.06315 3.75095 10.8392 3.39768C12.6152 3.04441 14.456 3.22572 16.129 3.91868C17.802 4.61164 19.2319 5.78513 20.2379 7.29076C21.2439 8.79638 21.7809 10.5665 21.7809 12.3773C21.7809 14.8055 20.8163 17.1343 19.0993 18.8513C17.3823 20.5683 15.0535 21.5329 12.6253 21.5329Z" fill="white"/>
<path d="M12.6236 20.9222C10.9332 20.9222 9.28079 20.421 7.8753 19.4818C6.46981 18.5427 5.37436 17.2079 4.72748 15.6462C4.08061 14.0845 3.91136 12.3661 4.24113 10.7082C4.57091 9.05028 5.3849 7.52741 6.58017 6.33214C7.77544 5.13687 9.29831 4.32287 10.9562 3.9931C12.6141 3.66332 14.3325 3.83258 15.8942 4.47945C17.4559 5.12633 18.7907 6.22178 19.7299 7.62727C20.669 9.03276 21.1702 10.6852 21.1702 12.3755C21.1702 14.6423 20.2698 16.8161 18.667 18.4189C17.0642 20.0218 14.8903 20.9222 12.6236 20.9222Z" fill="url(#paint1_linear_1787_48695)"/>
<path d="M6.46 21.2858L5.93555 21.6031L6.07511 21.004L5.612 20.6013L6.22178 20.5489L6.46089 19.9844L6.69822 20.5489L7.30889 20.6013L6.84578 21.004L6.98533 21.6031L6.46 21.2858ZM18.2689 21.2858L17.7444 21.6022L17.8822 21.0022L17.42 20.5995L18.0307 20.5471L18.268 19.9827L18.5062 20.5471L19.1169 20.5995L18.6538 21.0022L18.7933 21.6004L18.2689 21.2858ZM19.8084 19.8173L19.284 20.1347L19.4236 19.5364L18.9604 19.1329L19.5702 19.0804L19.8084 18.5169L20.0467 19.0804L20.6573 19.1329L20.1942 19.5364L20.3338 20.1347L19.8084 19.8173ZM4.92044 19.8173L4.39689 20.1347L4.53555 19.5364L4.07333 19.1338L4.68311 19.0813L4.92133 18.5178L5.15955 19.0813L5.76933 19.1338L5.30711 19.5364L5.44578 20.1347L4.92044 19.8173ZM21.3489 17.98L20.8244 18.2973L20.964 17.6991L20.5009 17.2964L21.1116 17.244L21.3498 16.6795L21.5871 17.244L22.1978 17.2964L21.7356 17.6991L21.8742 18.2973L21.3489 17.98ZM3.38178 17.98L2.86 18.3L2.99867 17.7018L2.53644 17.2982L3.14711 17.2458L3.38444 16.6813L3.62267 17.2458L4.23333 17.2982L3.77022 17.7018L3.90978 18.3L3.38178 17.98ZM22.1187 15.7782L21.5942 16.0947L21.7338 15.4964L21.2707 15.0938L21.8822 15.0467L22.1204 14.4831L22.3578 15.0467L22.9684 15.0991L22.5062 15.5018L22.6449 16.1L22.1187 15.7782ZM2.612 15.7782L2.08844 16.0947L2.22711 15.4964L1.76489 15.0938L2.37467 15.0413L2.61289 14.4778L2.85111 15.0413L3.46178 15.0938L2.99867 15.4964L3.13822 16.0947L2.612 15.7782ZM1.84133 13.5782L1.31778 13.8955L1.45644 13.2964L0.993332 12.8947L1.60311 12.8422L1.84133 12.2787L2.07955 12.8422L2.69022 12.8947L2.22711 13.2973L2.36667 13.8964L1.84133 13.5782ZM22.8858 13.5782L22.3613 13.8947L22.5009 13.2964L22.0378 12.8938L22.6484 12.8413L22.8858 12.2778L23.124 12.8413L23.7347 12.8938L23.2716 13.2964L23.4111 13.8947L22.8858 13.5782ZM22.8858 11.3755L22.3613 11.6929L22.5009 11.0938L22.0378 10.6911L22.6484 10.6387L22.8858 10.0742L23.124 10.6387L23.7347 10.6911L23.2716 11.0938L23.4111 11.6929L22.8858 11.3755ZM1.84133 11.3755L1.31778 11.6929L1.45555 11.0938L0.993332 10.6911L1.60311 10.6387L1.84133 10.0742L2.07955 10.6387L2.69022 10.6911L2.22711 11.0938L2.36667 11.6929L1.84133 11.3755ZM22.1169 9.17288L21.5924 9.49021L21.732 8.89199L21.2689 8.48932L21.8796 8.43688L22.1178 7.87243L22.3551 8.43688L22.9658 8.48932L22.5036 8.89199L22.6422 9.49021L22.1169 9.17288ZM2.61022 9.17288L2.08667 9.4911L2.22533 8.89288L1.76311 8.49021L2.37289 8.43776L2.61111 7.87332L2.84933 8.43776L3.46 8.49021L2.99689 8.89288L3.13644 9.4911L2.61022 9.17288ZM20.9631 7.33821L20.4387 7.65554L20.5782 7.05732L20.1151 6.65376L20.7267 6.60221L20.9649 6.03777L21.2022 6.60221L21.8129 6.65465L21.3507 7.05821L21.4893 7.65643L20.9631 7.33821ZM3.76578 7.33821L3.24222 7.65554L3.38089 7.05732L2.91867 6.65465L3.52755 6.60221L3.76489 6.03777L4.00311 6.60221L4.61378 6.65465L4.15067 7.05732L4.29022 7.65554L3.76578 7.33821ZM19.8076 5.50265L19.2831 5.81999L19.4227 5.22088L18.9596 4.8191L19.5711 4.76665L19.8076 4.20221L20.0458 4.76665L20.6564 4.81821L20.1933 5.22088L20.3329 5.81999L19.8076 5.50265ZM4.91955 5.50265L4.396 5.81999L4.53467 5.22176L4.07155 4.8191L4.68133 4.76665L4.91955 4.20221L5.15778 4.76665L5.76755 4.81821L5.30533 5.22176L5.444 5.81999L4.91955 5.50265Z" fill="white"/>
<g filter="url(#filter0_d_1787_48695)">
<path d="M12.332 18.6351C12.5213 18.6509 12.7117 18.6242 12.8894 18.557C13.0671 18.4898 13.2275 18.3839 13.3591 18.2469C13.4906 18.1099 13.59 17.9453 13.6499 17.765C13.7098 17.5848 13.7287 17.3934 13.7053 17.2049V14.7507L16.8956 9.71337C17.0858 9.43161 17.1876 9.09953 17.188 8.75959C17.1875 8.58482 17.1515 8.41197 17.0821 8.25157C17.0127 8.09117 16.9114 7.94657 16.7844 7.82658C16.6573 7.70658 16.5071 7.6137 16.343 7.55359C16.1789 7.49348 16.0043 7.46739 15.8298 7.47692C15.5555 7.47904 15.2883 7.56404 15.0632 7.72077C14.8381 7.8775 14.6656 8.09864 14.5685 8.35514L12.3845 12.1463H12.332L10.1471 8.35514C9.77912 7.6947 9.45646 7.47692 8.85557 7.47692C8.67723 7.46548 8.49845 7.49079 8.3303 7.55128C8.16215 7.61177 8.00822 7.70615 7.87804 7.82857C7.74787 7.951 7.64422 8.09886 7.57354 8.26298C7.50285 8.42711 7.46663 8.604 7.46712 8.7827C7.46965 9.11657 7.56875 9.44257 7.75246 9.72137L10.9507 14.7507V17.2049C10.9274 17.3941 10.9468 17.586 11.0072 17.7668C11.0677 17.9475 11.1678 18.1124 11.3002 18.2495C11.4326 18.3866 11.5939 18.4924 11.7725 18.5591C11.951 18.6258 12.1422 18.6518 12.332 18.6351Z" fill="url(#paint2_linear_1787_48695)"/>
</g>
<defs>
<filter id="filter0_d_1787_48695" x="1.46712" y="1.47424" width="21.7209" height="23.1658" filterUnits="userSpaceOnUse" color-interpolation-filters="sRGB">
<feFlood flood-opacity="0" result="BackgroundImageFix"/>
<feColorMatrix in="SourceAlpha" type="matrix" values="0 0 0 0 0 0 0 0 0 0 0 0 0 0 0 0 0 0 127 0" result="hardAlpha"/>
<feOffset/>
<feGaussianBlur stdDeviation="3"/>
<feColorMatrix type="matrix" values="0 0 0 0 0.368627 0 0 0 0 0.380392 0 0 0 0 0.392157 0 0 0 1 0"/>
<feBlend mode="normal" in2="BackgroundImageFix" result="effect1_dropShadow_1787_48695"/>
<feBlend mode="normal" in="SourceGraphic" in2="effect1_dropShadow_1787_48695" result="shape"/>
</filter>
<linearGradient id="paint0_linear_1787_48695" x1="12.5" y1="24.5" x2="12.5" y2="0.5" gradientUnits="userSpaceOnUse">
<stop stop-color="#A3833B"/>
<stop offset="1" stop-color="#F5EBB0"/>
</linearGradient>
<linearGradient id="paint1_linear_1787_48695" x1="12.6236" y1="3.82887" x2="12.6236" y2="20.9222" gradientUnits="userSpaceOnUse">
<stop stop-color="#A3833B"/>
<stop offset="1" stop-color="#F5EBB0"/>
</linearGradient>
<linearGradient id="paint2_linear_1787_48695" x1="12.3276" y1="7.47424" x2="12.3276" y2="18.64" gradientUnits="userSpaceOnUse">
<stop stop-color="white"/>
<stop offset="1" stop-color="white" stop-opacity="0.518"/>
</linearGradient>
</defs>
</svg>
