<svg width="31" height="30" viewBox="0 0 31 30" fill="none" xmlns="http://www.w3.org/2000/svg">
<mask id="mask0_5294_15" style="mask-type:luminance" maskUnits="userSpaceOnUse" x="0" y="0" width="31" height="30">
<path d="M15.4635 29.711C23.6083 29.711 30.211 23.1084 30.211 14.9635C30.211 6.81869 23.6083 0.216003 15.4635 0.216003C7.31863 0.216003 0.715942 6.81869 0.715942 14.9635C0.715942 23.1084 7.31863 29.711 15.4635 29.711Z" fill="white"/>
</mask>
<g mask="url(#mask0_5294_15)">
<path d="M15.4636 29.7116C23.6084 29.7116 30.2111 23.1089 30.2111 14.9641C30.2111 6.81924 23.6084 0.216553 15.4636 0.216553C7.31875 0.216553 0.716064 6.81924 0.716064 14.9641C0.716064 23.1089 7.31875 29.7116 15.4636 29.7116Z" fill="#0B56A3"/>
<path d="M15.4637 29.7959C7.28451 29.7959 0.631714 23.1412 0.631714 14.9639C0.631714 6.78662 7.28643 0.131897 15.4637 0.131897C23.641 0.131897 30.2957 6.78662 30.2957 14.9639C30.2957 23.1412 23.641 29.7959 15.4637 29.7959ZM15.4637 0.302777C7.38051 0.302777 0.802594 6.87878 0.802594 14.9639C0.802594 23.049 7.37859 29.625 15.4637 29.625C23.5488 29.625 30.1248 23.049 30.1248 14.9639C30.1248 6.87878 23.5488 0.302777 15.4637 0.302777Z" fill="#4D9CE4"/>
<path d="M7.14824 3.23461C7.55336 3.16165 7.96616 3.14053 8.37512 3.09253C9.05096 3.01381 9.6116 3.07717 9.96872 3.72229C10.2874 4.30021 10.2644 5.05093 9.842 5.57701C9.5252 5.97061 9.1604 6.32581 8.91272 6.77701C8.71496 7.13797 8.78024 7.40101 9.04328 7.65829C9.55976 8.16325 10.059 8.69125 10.6177 9.15205C11.5988 9.95845 11.3857 10.8205 10.6945 11.6461C9.82472 12.6848 8.6612 13.4183 7.56296 14.2151C6.33992 15.1021 5.1956 16.0698 4.2644 17.2314C3.602 18.057 3.83624 18.6541 4.85 19.1015C5.53544 19.4029 6.22856 19.5623 6.9908 19.5911C8.05256 19.6295 9.0356 20.002 9.96296 20.482C11.1188 21.081 12.1806 21.8048 13.1866 22.6132C13.442 22.8186 13.7684 22.9338 14.0007 23.2007C14.5518 23.8304 14.617 24.5082 14.3962 25.2666C14.137 26.1556 13.5918 26.8909 13.0081 27.5975C12.3169 28.4346 11.5681 29.2276 10.5121 29.6845C10.4756 29.6999 10.4641 29.7632 10.441 29.8036C9.72296 29.8439 9.04904 29.7402 8.41736 29.3754C7.98344 29.1258 7.6628 28.8052 7.44008 28.3828C7.5476 27.7741 7.33256 27.1732 7.38056 26.5664C7.43816 25.8426 7.15592 25.3588 6.40328 25.0919C5.52584 24.7808 5.10536 24.1568 5.18216 23.2506C5.21096 22.9108 5.186 22.5652 5.17256 22.2215C5.14952 21.6128 4.994 21.0426 4.50824 20.6087C3.2756 19.5066 2.04104 18.4045 0.309198 18.0263C-0.174642 17.5463 -0.345522 16.9434 -0.360882 16.3117C-0.406962 14.4973 -0.147762 12.7405 0.439758 10.9876C1.01192 9.28069 1.83752 7.73701 2.98568 6.34501C3.83816 5.31205 4.6964 4.26181 5.99816 3.65701C6.37256 3.48421 6.76616 3.38053 7.14824 3.23461Z" fill="#6CACF6"/>
<path d="M25.3191 27.9354C25.2557 27.9181 25.1943 27.8932 25.129 27.8817C23.8637 27.6493 23.7466 27.5341 23.6986 26.3015C23.6698 25.5508 23.6871 24.8001 23.6775 24.0493C23.6602 22.8129 23.0977 21.7146 21.5425 21.4151C19.6877 21.058 19.3249 20.0769 19.0541 18.5677C18.793 17.122 19.9201 15.586 21.3543 15.0196C22.4314 14.5933 23.4893 14.4301 24.6145 14.9101C25.5073 15.2903 26.5076 15.3191 27.4465 15.561C28.2567 15.7684 28.85 16.21 29.2263 16.9338C29.714 17.8689 30.4033 18.6945 30.8794 19.6391C30.9812 19.8426 30.8622 20.1825 31.2442 20.2343C31.5073 21.7837 30.5569 22.9396 29.785 24.1377C29.0804 25.2321 28.1703 26.1767 27.1969 27.0695C26.6631 27.5591 26.018 27.7837 25.321 27.9373L25.3191 27.9354Z" fill="#6CACF6"/>
<path d="M31.7683 18.1204C31.4304 18.0283 31.2979 17.7441 31.1251 17.5002C30.2323 16.2446 29.2934 15.0254 28.0493 14.0519C26.736 13.0228 25.273 12.8231 23.6813 13.3723C23.449 13.4529 23.2166 13.5355 22.9786 13.5988C21.7939 13.9195 20.9338 13.3204 20.8877 12.1454C20.7898 9.58409 21.8995 7.54697 23.9616 5.94953C24.7469 5.34089 25.609 4.82633 26.4883 4.34249C26.6957 4.56137 26.9971 4.37321 27.2371 4.50377C27.5731 4.68809 27.8554 4.92617 28.0896 5.20841C28.9901 6.28937 29.9866 7.30697 30.599 8.57993C31.2634 9.96041 31.895 11.3505 32.16 12.8635C32.423 14.3668 32.521 15.874 32.3366 17.3927C32.2944 17.746 32.1754 18.0283 31.7702 18.1223L31.7683 18.1204Z" fill="#6CACF6"/>
<path d="M17.7601 0.698334C17.7025 1.59689 17.2397 2.34185 16.6714 3.01193C15.89 3.93353 15.097 4.83593 14.4289 5.84201C13.9181 6.61001 12.9543 6.51977 12.4647 5.73641C12.1345 5.20841 12.0097 4.60169 11.7255 4.06025C11.2628 3.17897 10.5409 2.49353 9.77478 1.84457C9.8151 1.44329 10.1031 1.24553 10.4621 1.12649C12.5127 0.442974 14.6247 0.141534 16.7981 0.233694C17.1994 0.250974 17.5469 0.343134 17.7601 0.698334Z" fill="#6CACF6"/>
</g>
</svg>
