<svg width="186" height="27" viewBox="0 0 186 27" fill="none" xmlns="http://www.w3.org/2000/svg">
<path d="M85.6768 15.7856H88.6606C88.8042 17.0059 90.0757 17.8057 91.7163 17.8057C93.3672 17.8057 94.4951 17.0161 94.4951 15.9292C94.4951 14.9653 93.7876 14.4321 92.0034 14.0322L90.0757 13.6118C87.3481 13.0273 86.0049 11.6431 86.0049 9.47949C86.0049 6.75195 88.3633 4.94727 91.665 4.94727C95.1104 4.94727 97.2739 6.72119 97.3252 9.39746H94.4233C94.3208 8.14648 93.2236 7.3877 91.6753 7.3877C90.1475 7.3877 89.1221 8.11572 89.1221 9.21289C89.1221 10.1255 89.8398 10.6382 91.542 11.0278L93.3364 11.4072C96.2998 12.043 97.5918 13.3145 97.5918 15.5703C97.5918 18.4414 95.2642 20.2563 91.5933 20.2563C88.0352 20.2563 85.769 18.5645 85.6768 15.7856ZM109.394 9.00781V20H106.502V18.021H106.441C105.897 19.4053 104.811 20.2051 103.149 20.2051C100.771 20.2051 99.1914 18.6567 99.1914 16.0933V9.00781H102.186V15.4678C102.186 16.9341 102.914 17.7134 104.236 17.7134C105.569 17.7134 106.4 16.7598 106.4 15.3037V9.00781H109.394ZM117.761 8.8335C120.55 8.8335 122.263 10.9561 122.263 14.5039C122.263 18.0415 120.561 20.1743 117.812 20.1743C116.213 20.1743 114.982 19.395 114.398 18.1543H114.336V23.5889H111.342V9.00781H114.295V10.9253H114.357C114.952 9.6333 116.172 8.8335 117.761 8.8335ZM116.756 17.7646C118.253 17.7646 119.197 16.5034 119.197 14.5039C119.197 12.5146 118.253 11.2329 116.756 11.2329C115.29 11.2329 114.326 12.5352 114.326 14.5039C114.326 16.4932 115.29 17.7646 116.756 17.7646ZM128.743 10.9868C127.431 10.9868 126.487 11.9814 126.385 13.3555H131.05C130.989 11.9507 130.076 10.9868 128.743 10.9868ZM131.091 16.6367H133.839C133.511 18.79 131.542 20.2358 128.825 20.2358C125.441 20.2358 123.411 18.0723 123.411 14.5552C123.411 11.0483 125.462 8.77197 128.712 8.77197C131.912 8.77197 133.932 10.9355 133.932 14.2783V15.1909H126.354V15.3755C126.354 16.9443 127.349 18.021 128.876 18.021C129.974 18.021 130.814 17.4775 131.091 16.6367ZM135.48 20V9.00781H138.372V10.9868H138.433C138.823 9.59229 139.756 8.8335 141.048 8.8335C141.396 8.8335 141.694 8.88477 141.899 8.94629V11.5815C141.653 11.479 141.243 11.4072 140.812 11.4072C139.335 11.4072 138.474 12.3096 138.474 13.8579V20H135.48ZM157.239 20L156.111 16.4111H150.912L149.784 20H146.605L151.743 5.20361H155.383L160.53 20H157.239ZM153.476 8.03369L151.579 14.0938H155.444L153.547 8.03369H153.476ZM168.21 8.8335C171 8.8335 172.712 10.9561 172.712 14.5039C172.712 18.0415 171.01 20.1743 168.262 20.1743C166.662 20.1743 165.432 19.395 164.847 18.1543H164.786V23.5889H161.792V9.00781H164.745V10.9253H164.806C165.401 9.6333 166.621 8.8335 168.21 8.8335ZM167.206 17.7646C168.703 17.7646 169.646 16.5034 169.646 14.5039C169.646 12.5146 168.703 11.2329 167.206 11.2329C165.739 11.2329 164.775 12.5352 164.775 14.5039C164.775 16.4932 165.739 17.7646 167.206 17.7646ZM180.679 8.8335C183.468 8.8335 185.181 10.9561 185.181 14.5039C185.181 18.0415 183.479 20.1743 180.73 20.1743C179.131 20.1743 177.9 19.395 177.316 18.1543H177.254V23.5889H174.26V9.00781H177.213V10.9253H177.275C177.87 9.6333 179.09 8.8335 180.679 8.8335ZM179.674 17.7646C181.171 17.7646 182.115 16.5034 182.115 14.5039C182.115 12.5146 181.171 11.2329 179.674 11.2329C178.208 11.2329 177.244 12.5352 177.244 14.5039C177.244 16.4932 178.208 17.7646 179.674 17.7646Z" fill="#324F9D"/>
<path d="M32.9067 20.8855V15.7135L27.2467 6.9395C26.9864 6.55067 26.8472 6.09341 26.8467 5.6255C26.847 5.37842 26.8972 5.13395 26.9943 4.90675C27.0915 4.67956 27.2335 4.47431 27.4118 4.30333C27.5902 4.13234 27.8012 3.99913 28.0323 3.9117C28.2634 3.82427 28.5098 3.7844 28.7567 3.7945C29.1442 3.78245 29.5259 3.89157 29.8486 4.10666C30.1712 4.32175 30.4187 4.63211 30.5567 4.9945L34.8147 11.9945H34.9067L39.1877 5.0075C39.3291 4.65421 39.5729 4.35122 39.8878 4.13742C40.2026 3.92361 40.5741 3.80873 40.9547 3.8075C41.2003 3.79413 41.4462 3.83062 41.6774 3.91478C41.9086 3.99894 42.1203 4.12903 42.2999 4.29721C42.4795 4.4654 42.6232 4.66819 42.7223 4.89338C42.8214 5.11856 42.8739 5.36148 42.8767 5.6075C42.8721 6.08108 42.7292 6.543 42.4657 6.9365L36.8067 15.7245V20.8965C36.806 21.1526 36.7548 21.406 36.6561 21.6423C36.5575 21.8786 36.4132 22.0932 36.2316 22.2738C36.0501 22.4543 35.8347 22.5973 35.5978 22.6947C35.361 22.792 35.1073 22.8417 34.8512 22.841C34.5951 22.8403 34.3417 22.7891 34.1054 22.6905C33.8691 22.5918 33.6545 22.4476 33.4739 22.266C33.2934 22.0844 33.1503 21.869 33.053 21.6322C32.9557 21.3953 32.906 21.1416 32.9067 20.8855Z" fill="#344DA2"/>
<path d="M41.5361 18.6911C41.5361 16.1771 43.4731 14.7191 46.9271 14.5121L50.4121 14.3041V13.3901C50.4121 12.0991 49.5121 11.3511 48.0901 11.3511C47.5541 11.3365 47.0238 11.4635 46.5526 11.7193C46.0813 11.9751 45.6859 12.3506 45.4061 12.8081C45.2242 13.0314 44.9935 13.2102 44.7317 13.3307C44.47 13.4512 44.1842 13.5101 43.8961 13.5031C43.6984 13.516 43.5001 13.4884 43.3135 13.4219C43.1268 13.3554 42.9557 13.2514 42.8107 13.1164C42.6657 12.9813 42.5499 12.818 42.4704 12.6365C42.3908 12.455 42.3492 12.2592 42.3481 12.0611C42.349 11.766 42.4149 11.4748 42.5411 11.2081C43.1871 9.55806 45.4061 8.53906 48.2681 8.53906C51.8171 8.53906 54.1231 10.3701 54.1231 13.1561V21.0391C54.15 21.2887 54.1216 21.5411 54.0399 21.7785C53.9582 22.0159 53.8253 22.2323 53.6505 22.4126C53.4757 22.5928 53.2634 22.7323 53.0287 22.8212C52.7939 22.9101 52.5424 22.9463 52.2921 22.9271C52.0613 22.9465 51.829 22.9174 51.6101 22.8417C51.3912 22.766 51.1906 22.6454 51.0211 22.4875C50.8516 22.3297 50.717 22.1382 50.6259 21.9252C50.5348 21.7123 50.4892 21.4826 50.4921 21.2511V20.5511H50.4131C49.981 21.2821 49.3609 21.8841 48.6174 22.2944C47.8739 22.7046 47.034 22.9083 46.1851 22.8841C43.5371 22.8791 41.5361 21.1791 41.5361 18.6911ZM50.4121 17.5961V16.5881L47.4971 16.7691C46.0891 16.8691 45.2891 17.5241 45.2891 18.4831C45.2891 19.4421 46.1421 20.1591 47.4071 20.1591C47.7735 20.192 48.1427 20.1515 48.4932 20.0399C48.8437 19.9283 49.1684 19.7478 49.4483 19.5091C49.7282 19.2704 49.9576 18.9783 50.1231 18.6498C50.2886 18.3213 50.3869 17.963 50.4121 17.5961Z" fill="#344DA2"/>
<path d="M56.6285 20.9756V5.76062C56.6153 5.50457 56.6543 5.24853 56.7432 5.00805C56.8321 4.76758 56.969 4.54771 57.1456 4.36182C57.3222 4.17593 57.5347 4.0279 57.7703 3.92675C58.0059 3.8256 58.2596 3.77344 58.516 3.77344C58.7724 3.77344 59.0261 3.8256 59.2616 3.92675C59.4972 4.0279 59.7098 4.17593 59.8863 4.36182C60.0629 4.54771 60.1998 4.76758 60.2887 5.00805C60.3776 5.24853 60.4167 5.50457 60.4035 5.76062V20.9756C60.4136 21.2298 60.3723 21.4834 60.282 21.7213C60.1917 21.9591 60.0543 22.1763 59.878 22.3597C59.7018 22.5432 59.4903 22.6891 59.2562 22.7888C59.0222 22.8885 58.7704 22.9399 58.516 22.9399C58.2616 22.9399 58.0098 22.8885 57.7757 22.7888C57.5417 22.6891 57.3302 22.5432 57.1539 22.3597C56.9776 22.1763 56.8402 21.9591 56.7499 21.7213C56.6596 21.4834 56.6183 21.2298 56.6285 20.9756Z" fill="#344DA2"/>
<path d="M63.0289 20.9756V5.76062C63.0157 5.50457 63.0547 5.24853 63.1436 5.00805C63.2325 4.76758 63.3694 4.54771 63.546 4.36182C63.7226 4.17593 63.9351 4.0279 64.1707 3.92675C64.4063 3.8256 64.66 3.77344 64.9164 3.77344C65.1727 3.77344 65.4264 3.8256 65.662 3.92675C65.8976 4.0279 66.1102 4.17593 66.2867 4.36182C66.4633 4.54771 66.6002 4.76758 66.6891 5.00805C66.778 5.24853 66.817 5.50457 66.8039 5.76062V20.9756C66.814 21.2298 66.7727 21.4834 66.6824 21.7213C66.5921 21.9591 66.4547 22.1763 66.2784 22.3597C66.1022 22.5432 65.8907 22.6891 65.6566 22.7888C65.4226 22.8885 65.1708 22.9399 64.9164 22.9399C64.662 22.9399 64.4102 22.8885 64.1761 22.7888C63.9421 22.6891 63.7306 22.5432 63.5543 22.3597C63.378 22.1763 63.2406 21.9591 63.1503 21.7213C63.0601 21.4834 63.0187 21.2298 63.0289 20.9756Z" fill="#344DA2"/>
<path d="M68.7969 18.6911C68.7969 16.1771 70.7299 14.7191 74.1879 14.5121L77.6689 14.3041V13.3901C77.6689 12.0991 76.7689 11.3511 75.3469 11.3511C74.8115 11.3366 74.2817 11.4637 73.8111 11.7195C73.3406 11.9753 72.9458 12.3508 72.6669 12.8081C72.4849 13.0314 72.2542 13.2102 71.9925 13.3307C71.7307 13.4512 71.4449 13.5101 71.1569 13.5031C70.9571 13.5198 70.756 13.4949 70.5662 13.4301C70.3765 13.3653 70.2022 13.2619 70.0544 13.1265C69.9065 12.991 69.7883 12.8265 69.7072 12.6431C69.626 12.4597 69.5837 12.2616 69.5829 12.0611C69.5843 11.7653 69.6527 11.4737 69.7829 11.2081C70.4249 9.55806 72.6449 8.53906 75.5099 8.53906C79.0549 8.53906 81.3649 10.3701 81.3649 13.1561V21.0391C81.3918 21.2887 81.3633 21.5411 81.2816 21.7785C81.2 22.0159 81.067 22.2323 80.8922 22.4126C80.7175 22.5928 80.5052 22.7323 80.2704 22.8212C80.0356 22.9101 79.7842 22.9463 79.5339 22.9271C79.3027 22.9464 79.0701 22.9173 78.8508 22.8417C78.6315 22.7661 78.4303 22.6456 78.2602 22.4879C78.0901 22.3302 77.9547 22.1387 77.8627 21.9258C77.7707 21.7128 77.7241 21.483 77.7259 21.2511V20.5511H77.6499C77.2152 21.2807 76.594 21.8814 75.8503 22.2915C75.1065 22.7015 74.2669 22.906 73.4179 22.8841C70.7939 22.8791 68.7969 21.1791 68.7969 18.6911ZM77.6689 17.5961V16.5881L74.7549 16.7691C73.3549 16.8691 72.5549 17.5241 72.5549 18.4831C72.5549 19.4421 73.4039 20.1591 74.6689 20.1591C75.035 20.1921 75.404 20.1517 75.7543 20.0401C76.1046 19.9285 76.429 19.748 76.7085 19.5092C76.988 19.2704 77.2169 18.9781 77.3819 18.6496C77.5468 18.3211 77.6444 17.9629 77.6689 17.5961Z" fill="#344DA2"/>
<path d="M21.2712 13.3055C21.2571 13.2677 21.239 13.2314 21.2172 13.1971C21.1571 13.0915 21.0763 12.999 20.9797 12.9253L20.9799 12.925L20.9707 12.9189C20.9466 12.9032 20.921 12.8899 20.8944 12.8791L20.1272 12.4245L20.1256 12.4236L6.17962 4.38261L6.17921 4.38237L5.28821 3.87237L5.27744 3.8662L5.2658 3.86189C4.58184 3.60855 3.83803 3.56417 3.1288 3.73438C2.41957 3.90458 1.77692 4.2817 1.28243 4.81786L1.28228 4.81772L1.27723 4.82381C1.07899 5.0629 0.914782 5.32599 0.787698 5.60556L0.787698 4.49655L0.787698 4.49639C0.786866 3.75016 0.982809 3.0169 1.35577 2.37056C1.72872 1.72421 2.26551 1.18763 2.912 0.814915C3.55849 0.442205 4.29182 0.246544 5.03805 0.247661C5.78428 0.248778 6.51702 0.446634 7.16239 0.821278L7.1625 0.821339L12.8023 4.0892L12.8025 4.08934L17.0263 6.5472L17.0266 6.54742L20.0956 8.32142L20.0962 8.32173L20.8133 8.7322C21.3008 9.09732 21.6733 9.59464 21.8867 10.1652C22.0718 10.7592 22.0885 11.393 21.935 11.996C21.8124 12.4775 21.5852 12.9244 21.2712 13.3055Z" fill="#344DA2" stroke="white" stroke-width="0.3"/>
<path d="M4.74666 4.02508L4.70326 3.94732C4.70309 3.94742 4.70292 3.94751 4.70275 3.94761C4.70258 3.9477 4.70242 3.9478 4.70225 3.94789L4.74604 4.02494C4.74624 4.02499 4.74645 4.02504 4.74666 4.02508ZM4.74666 4.02508C4.77796 4.03211 4.80917 4.0396 4.84029 4.04753M4.74666 4.02508L4.77636 4.0783L4.84029 4.04753M4.84029 4.04753C4.90367 4.02217 4.97164 4.00944 5.04036 4.0103M4.84029 4.04753L5.04036 4.0103M5.04036 4.0103H5.22536C5.16443 3.98786 5.103 3.96714 5.04115 3.94816L5.04036 4.0103ZM4.35836 22.5043V22.5215L4.36226 22.5383L4.37087 22.5753C4.47938 23.3064 4.80621 23.9878 5.30861 24.5301C5.81243 25.074 6.46918 25.4524 7.19234 25.6156L7.19231 25.6158L7.19851 25.6169C7.4841 25.6688 7.77379 25.6841 8.06073 25.6633L7.16117 26.1845L7.16107 26.1846C6.51636 26.5587 5.78427 26.756 5.03885 26.7565C4.29342 26.7569 3.5611 26.5605 2.91594 26.1871C2.27078 25.8137 1.73566 25.2766 1.3647 24.63C0.993745 23.9834 0.800103 23.2504 0.803362 22.505V22.5043V6.78382C0.859937 6.14127 1.11034 5.53104 1.52144 5.03393C1.97377 4.542 2.56194 4.19534 3.21148 4.03794C3.67638 3.92528 4.15771 3.91319 4.62382 3.99987C4.56195 4.04785 4.50931 4.10706 4.4688 4.17466C4.40464 4.2695 4.36665 4.37964 4.35872 4.49393L4.35836 4.49391V4.50431V22.5043Z" fill="#EB003B" stroke="white" stroke-width="0.3"/>
<path d="M22.742 9.82726L22.768 9.84244L22.7979 9.84637L22.8061 9.84745C23.4397 10.2189 23.9662 10.7487 24.3338 11.385C24.7062 12.0299 24.9023 12.7614 24.9023 13.5062C24.9023 14.2509 24.7062 14.9824 24.3338 15.6273C23.9613 16.2722 23.4256 16.8076 22.7805 17.1797L22.7802 17.1799L16.9215 20.5797L16.9212 20.5799L13.0485 22.8147L13.0485 22.8148L9.89657 24.6347L9.89647 24.6348L8.92544 25.1944C8.40054 25.3885 7.83317 25.4383 7.2824 25.3386C6.6238 25.1895 6.02478 24.8469 5.56231 24.3547C5.23191 24.0032 4.982 23.5868 4.82683 23.1345C4.90707 23.1617 4.99185 23.1735 5.07673 23.1693C5.17765 23.1643 5.27616 23.1367 5.36499 23.0885L5.36502 23.0886L5.36877 23.0864L6.21441 22.5956L6.21477 22.5954L20.1214 14.5756L20.1215 14.5757L20.1257 14.573L20.9573 14.0557H20.9827L21.0205 14.0306C21.1151 13.9677 21.1915 13.8812 21.2422 13.7799C21.7271 13.3136 22.0745 12.7227 22.246 12.0719C22.4199 11.4118 22.406 10.7163 22.2059 10.0637L22.2061 10.0636L22.203 10.0553C22.0994 9.7772 21.9613 9.51496 21.7928 9.27428L22.742 9.82726Z" fill="#F79E3B" stroke="white" stroke-width="0.3"/>
</svg>
