<svg width="32" height="33" viewBox="0 0 32 33" fill="none" xmlns="http://www.w3.org/2000/svg">
<g clip-path="url(#clip0_5020_2148)">
<path d="M20.4954 1.15588H2.18621C1.1406 1.15588 0.292969 2.00352 0.292969 3.04912V30.1693C0.292969 31.2149 1.1406 32.0626 2.18621 32.0626H20.4954C21.541 32.0626 22.3886 31.2149 22.3886 30.1693V3.04912C22.3886 2.00352 21.541 1.15588 20.4954 1.15588Z" fill="#6CACF6"/>
<path d="M11.3249 7.41174H3.67126C3.26137 7.41174 2.95563 7.10432 2.95563 6.6961C2.95563 6.28789 3.26305 5.98047 3.67126 5.98047H11.3249C11.7347 5.98047 12.0405 6.28789 12.0405 6.6961C12.143 7.106 11.7331 7.41174 11.3249 7.41174Z" fill="#0F74DB"/>
<path d="M18.8289 11.4939H3.67126C3.26137 11.4939 2.95563 11.1865 2.95563 10.7783C2.95563 10.37 3.26305 10.0626 3.67126 10.0626H18.8306C19.2405 10.0626 19.5463 10.37 19.5463 10.7783C19.6487 11.1882 19.2388 11.4939 18.8306 11.4939H18.8289Z" fill="#0F74DB"/>
<path d="M18.8289 15.576H3.67126C3.26137 15.576 2.95563 15.2686 2.95563 14.8604C2.95563 14.4522 3.26305 14.1448 3.67126 14.1448H18.8306C19.2405 14.1448 19.5463 14.4522 19.5463 14.8604C19.6487 15.2703 19.2388 15.576 18.8306 15.576H18.8289Z" fill="#0F74DB"/>
<path d="M18.8289 19.6582H3.67126C3.26137 19.6582 2.95563 19.3508 2.95563 18.9426C2.95563 18.5343 3.26305 18.2269 3.67126 18.2269H18.8306C19.2405 18.2269 19.5463 18.5343 19.5463 18.9426C19.6487 19.3525 19.2388 19.6582 18.8306 19.6582H18.8289Z" fill="#0F74DB"/>
<path d="M18.8289 23.7419H3.67126C3.26137 23.7419 2.95563 23.4345 2.95563 23.0263C2.95563 22.6181 3.26305 22.3107 3.67126 22.3107H18.8306C19.2405 22.3107 19.5463 22.6181 19.5463 23.0263C19.6487 23.4362 19.2388 23.7419 18.8306 23.7419H18.8289Z" fill="#0F74DB"/>
<path d="M18.8289 27.8241H3.67126C3.26137 27.8241 2.95563 27.5167 2.95563 27.1085C2.95563 26.7002 3.26305 26.3928 3.67126 26.3928H18.8306C19.2405 26.3928 19.5463 26.7002 19.5463 27.1085C19.6487 27.5183 19.2388 27.8241 18.8306 27.8241H18.8289Z" fill="#0F74DB"/>
<path d="M30.4371 12.5673H13.4265C12.7177 12.5673 12.1431 13.1419 12.1431 13.8507V23.7973C12.1431 24.5062 12.7177 25.0808 13.4265 25.0808H30.4371C31.1459 25.0808 31.7205 24.5062 31.7205 23.7973V13.8507C31.7205 13.1419 31.1459 12.5673 30.4371 12.5673Z" fill="#0B56A3"/>
<path d="M15.8774 23.3035H13.796C13.5188 23.3035 13.3105 23.0952 13.3105 22.818C13.3105 22.5408 13.5188 22.3325 13.796 22.3325H15.8774C16.1545 22.3325 16.3629 22.5408 16.3629 22.818C16.4317 23.0952 16.1545 23.3035 15.8774 23.3035Z" fill="#6CACF6"/>
<path d="M22.7079 23.3035H17.5187C17.2415 23.3035 17.0332 23.0952 17.0332 22.818C17.0332 22.5408 17.2415 22.3325 17.5187 22.3325H22.7079C22.9851 22.3325 23.1934 22.5408 23.1934 22.818C23.2622 23.0952 22.9851 23.3035 22.7079 23.3035Z" fill="#6CACF6"/>
<path d="M31.7205 15.7172H12.1431V17.9783H31.7205V15.7172Z" fill="#6CACF6"/>
</g>
<defs>
<clipPath id="clip0_5020_2148">
<rect width="31.6667" height="31.6667" fill="white" transform="translate(0.166687 0.775757)"/>
</clipPath>
</defs>
</svg>
