<svg width="24" height="24" viewBox="0 0 24 24" fill="none" xmlns="http://www.w3.org/2000/svg">
<g clip-path="url(#clip0_5020_2118)">
<path d="M12 1.16012C17.9775 1.16012 22.8399 6.02248 22.8399 12C22.8399 17.9775 17.9775 22.8399 12 22.8399C6.02248 22.8399 1.16012 17.9775 1.16012 12C1.16012 6.02248 6.02248 1.16012 12 1.16012ZM12 0C5.37281 0 0 5.37281 0 12C0 18.6272 5.37281 24 12 24C18.6272 24 24 18.6272 24 12C24 5.37281 18.6272 0 12 0Z" fill="#0B56A3"/>
<path d="M11.9999 4.77243C12.5698 4.77243 12.9686 5.12771 12.9686 5.63672C12.9686 6.14572 12.5698 6.50101 11.9999 6.50101C11.43 6.50101 11.0312 6.14572 11.0312 5.63672C11.0312 5.12771 11.43 4.77243 11.9999 4.77243ZM11.9999 9.50862C12.2392 9.50862 12.5611 9.54777 12.7424 9.73629C12.9382 9.93931 12.9788 10.3019 12.9788 10.5716V18.1776C12.9788 18.8273 12.8149 19.229 11.9999 19.229C11.1849 19.229 11.0211 18.8273 11.0211 18.1776V10.5614C11.0211 9.91176 11.1849 9.51007 11.9999 9.51007M11.9999 3.6123C10.7905 3.6123 9.87111 4.4882 9.87111 5.63672C9.87111 6.78524 10.7891 7.66113 11.9999 7.66113C13.2108 7.66113 14.1288 6.78524 14.1288 5.63672C14.1288 4.4882 13.2108 3.6123 11.9999 3.6123ZM11.9999 8.3485C10.644 8.3485 9.86096 9.15188 9.86096 10.56V18.1762C9.86096 19.5843 10.644 20.3877 11.9999 20.3877C13.3558 20.3877 14.1389 19.5843 14.1389 18.1762V10.5701C14.1389 9.16203 13.3558 8.3485 11.9999 8.3485Z" fill="#0B56A3"/>
</g>
<defs>
<clipPath id="clip0_5020_2118">
<rect width="24" height="24" fill="white"/>
</clipPath>
</defs>
</svg>
