<svg width="24" height="24" viewBox="0 0 24 24" fill="none" xmlns="http://www.w3.org/2000/svg">
<g clip-path="url(#clip0_5020_2086)">
<path d="M20.7199 23.8105H3.29356C2.19684 23.8105 1.30541 22.919 1.30541 21.8223V12.4643H1.27097C0.741893 12.4643 0.2762 12.1447 0.0860646 11.6501C-0.104071 11.1568 0.0268194 10.6071 0.41949 10.253L11.1676 0.521653C11.654 0.0821377 12.387 0.0821377 12.8733 0.521653L23.5829 10.2544C23.9742 10.6098 24.1037 11.1596 23.9136 11.6528C23.7235 12.1461 23.2578 12.4643 22.7287 12.4643H22.7094V21.8223C22.7094 22.919 21.818 23.8105 20.7212 23.8105H20.7199ZM11.9061 1.33868L1.15799 11.07C1.08772 11.1334 1.09461 11.205 1.1139 11.2533C1.13319 11.3029 1.1759 11.3607 1.26959 11.3607H2.40627V21.8209C2.40627 22.31 2.80307 22.7069 3.29219 22.7069H20.7185C21.2062 22.7069 21.6044 22.31 21.6044 21.8209V11.3607H22.7259C22.821 11.3607 22.8637 11.3029 22.883 11.2533C22.9023 11.2037 22.9092 11.132 22.8389 11.0686L12.1321 1.33868C12.0687 1.28082 11.9709 1.28082 11.9061 1.33868Z" fill="#0B56A3"/>
<path d="M18.6022 23.8105H5.5022V14.7901C5.5022 13.2842 6.72705 12.058 8.23436 12.058H15.8715C17.3774 12.058 18.6036 13.2828 18.6036 14.7901V23.8105H18.6022ZM6.60443 22.7083H17.5V14.7901C17.5 13.8918 16.7684 13.1602 15.8701 13.1602H8.23298C7.33466 13.1602 6.60305 13.8918 6.60305 14.7901V22.7083H6.60443Z" fill="#0B56A3"/>
</g>
<defs>
<clipPath id="clip0_5020_2086">
<rect width="24" height="24" fill="white"/>
</clipPath>
</defs>
</svg>
