<svg width="30" height="32" viewBox="0 0 30 32" fill="none" xmlns="http://www.w3.org/2000/svg">
<path d="M25.4508 0.155884H22.6521C22.2258 0.155884 21.8802 0.502014 21.8802 0.928989V10.6848C21.8802 11.1118 22.2258 11.4579 22.6521 11.4579H25.4508C25.8771 11.4579 26.2227 11.1118 26.2227 10.6848V0.928989C26.2227 0.502014 25.8771 0.155884 25.4508 0.155884Z" fill="#0B56A3"/>
<path d="M29.6934 7.20664V4.40347C29.6934 3.9765 29.3478 3.63037 28.9215 3.63037L19.1811 3.63037C18.7548 3.63037 18.4093 3.9765 18.4093 4.40347V7.20664C18.4093 7.63361 18.7548 7.97974 19.1811 7.97974L28.9215 7.97974C29.3478 7.97974 29.6934 7.63361 29.6934 7.20664Z" fill="#0B56A3"/>
<path d="M25.9844 13.3845H1.98973C0.990205 13.3845 0.179932 14.1961 0.179932 15.1972V29.2498C0.179932 30.2509 0.990205 31.0625 1.98973 31.0625H25.9844C26.9839 31.0625 27.7942 30.2509 27.7942 29.2498V15.1972C27.7942 14.1961 26.9839 13.3845 25.9844 13.3845Z" fill="#6CACF6"/>
<path d="M5.45004 28.5521H2.51481C2.12274 28.5521 1.83044 28.2575 1.83044 27.8666C1.83044 27.4757 2.12449 27.1812 2.51481 27.1812H5.45004C5.8421 27.1812 6.1344 27.4757 6.1344 27.8666C6.23242 28.2593 5.84035 28.5521 5.45004 28.5521Z" fill="#0B56A3"/>
<path d="M15.0837 28.5521H7.76395C7.37189 28.5521 7.07959 28.2575 7.07959 27.8666C7.07959 27.4757 7.37364 27.1812 7.76395 27.1812H15.0837C15.4757 27.1812 15.768 27.4757 15.768 27.8666C15.866 28.2593 15.474 28.5521 15.0837 28.5521Z" fill="#0B56A3"/>
<path d="M27.7942 17.8337H0.179932V21.0278H27.7942V17.8337Z" fill="#0B56A3"/>
</svg>
