<svg width="28" height="27" viewBox="0 0 28 27" fill="none" xmlns="http://www.w3.org/2000/svg">
<path d="M2.24593 13.6092C2.24593 10.5155 3.43343 7.61666 5.5499 5.43648V6.45019C5.5499 6.87695 5.89626 7.2233 6.32301 7.2233C6.74977 7.2233 7.09613 6.87695 7.09613 6.45019V3.70966C7.09613 3.2829 6.74977 2.93655 6.32301 2.93655H3.58249C3.15573 2.93655 2.80938 3.2829 2.80938 3.70966C2.80938 4.13642 3.15573 4.48277 3.58249 4.48277H4.329C3.43652 5.42968 2.67949 6.50523 2.09997 7.66305C1.171 9.51913 0.699707 11.5193 0.699707 13.6092C0.699707 15.0682 0.934733 16.5031 1.39798 17.8731C1.50684 18.1953 1.80804 18.3988 2.13027 18.3988C2.21253 18.3988 2.29603 18.3858 2.37829 18.358C2.78278 18.2213 2.99987 17.7822 2.86318 17.3777C2.45374 16.1679 2.24655 14.9 2.24655 13.6098L2.24593 13.6092ZM17.937 24.6876C16.6759 25.136 15.3517 25.363 13.9997 25.363C10.9258 25.363 8.04056 24.1891 5.86471 22.0955H6.86914C7.2959 22.0955 7.64225 21.7491 7.64225 21.3224C7.64225 20.8956 7.2959 20.5493 6.86914 20.5493H4.12861C3.70186 20.5493 3.3555 20.8956 3.3555 21.3224V24.0629C3.3555 24.4897 3.70186 24.836 4.12861 24.836C4.55537 24.836 4.90173 24.4897 4.90173 24.0629V23.3121C7.35094 25.6178 10.5714 26.9092 14.0003 26.9092C15.5286 26.9092 17.0278 26.6519 18.4553 26.1448C18.8573 26.0019 19.0676 25.5597 18.9247 25.1576C18.7819 24.7556 18.3397 24.5453 17.9376 24.6882L17.937 24.6876ZM27.2997 13.6092C27.2997 12.0871 27.0443 10.5941 26.5414 9.17154C26.3992 8.76891 25.9576 8.558 25.5549 8.70087C25.1523 8.84312 24.9414 9.28534 25.0843 9.68736C25.529 10.9435 25.7541 12.2634 25.7541 13.6092C25.7541 15.4832 25.3267 17.2738 24.4831 18.9313C23.9265 20.0254 23.1923 21.0342 22.3227 21.9075V20.8666C22.3227 20.4398 21.9764 20.0935 21.5496 20.0935C21.1229 20.0935 20.7765 20.4398 20.7765 20.8666V23.6071C20.7765 24.0338 21.1229 24.3802 21.5496 24.3802H24.2901C24.7169 24.3802 25.0633 24.0338 25.0633 23.6071C25.0633 23.1803 24.7169 22.834 24.2901 22.834H23.5776C24.4911 21.8846 25.2661 20.8022 25.8611 19.6327C26.816 17.7562 27.3003 15.7294 27.3003 13.6098L27.2997 13.6092ZM24.0038 6.84169C24.4305 6.84169 24.7769 6.49534 24.7769 6.06858V3.32805C24.7769 2.90129 24.4305 2.55494 24.0038 2.55494C23.577 2.55494 23.2307 2.90129 23.2307 3.32805V4.03808C22.2813 3.12333 21.1983 2.34713 20.0281 1.7509C18.1498 0.7941 16.1217 0.309204 13.9997 0.309204C12.4974 0.309204 11.0229 0.557837 9.61709 1.0483C9.21383 1.1887 9.00107 1.62968 9.14209 2.03293C9.28249 2.43619 9.72347 2.64895 10.1267 2.50793C11.3687 2.07437 12.6718 1.85481 14.0003 1.85481C15.8762 1.85481 17.668 2.28342 19.3268 3.12828C20.4227 3.68678 21.4327 4.42278 22.3073 5.29547H21.2639C20.8371 5.29547 20.4908 5.64182 20.4908 6.06858C20.4908 6.49534 20.8371 6.84169 21.2639 6.84169H24.0038Z" fill="#6CACF6"/>
<path d="M19.3819 10.9936L18.2383 9.84997L19.3819 8.70638C19.6837 8.40456 19.6837 7.91471 19.3819 7.61289C19.0801 7.31107 18.5902 7.31107 18.2884 7.61289L17.6866 8.21468C18.1171 7.20098 18.02 6.13903 17.3372 5.45622C16.5307 4.64971 15.1737 4.65898 13.9998 5.41602C12.8259 4.65898 11.4689 4.64971 10.6624 5.45622C9.78047 6.33818 9.87448 7.85287 10.8232 9.07871C10.4107 9.09541 10.0817 9.43372 10.0817 9.84997C10.0817 10.0034 10.1268 10.1456 10.2035 10.2656C8.43835 11.4908 7.35352 13.5114 7.35352 15.7225C7.35352 19.3871 10.3346 22.3682 13.9992 22.3682C17.6637 22.3682 20.6449 19.3871 20.6449 15.7225C20.6449 14.347 20.2243 13.0451 19.4821 11.9627C19.6782 11.6628 19.6448 11.257 19.3813 10.9936H19.3819ZM12.6917 18.0821C11.6192 17.5007 12.2952 16.3688 13.0449 17.0152C13.27 17.2879 13.5959 17.4246 14.0221 17.4246C14.6721 17.5124 15.1824 16.8531 14.609 16.4474C13.9986 16.0843 12.6546 16.0064 12.2909 15.1875C11.8499 14.2499 12.5371 13.141 13.5489 13.0414C13.5483 12.6752 13.4562 12.0153 14.0085 12.0314C14.5589 12.0215 14.4451 12.7358 14.4507 13.0909C16.2672 13.6531 15.3865 14.9772 14.6591 14.3526C14.46 14.1262 14.1983 14.0136 13.8736 14.0136C13.3219 13.9506 12.928 14.5728 13.3943 14.9309C13.5304 15.0329 13.792 15.143 14.1779 15.2618C14.7494 15.4448 15.3475 15.6081 15.6901 16.1239C16.2493 17.095 15.5473 18.2874 14.4507 18.3919C14.4501 18.7445 14.5447 19.423 14.0085 19.4137C13.4531 19.4304 13.5489 18.7612 13.5489 18.395C13.2236 18.3462 12.9372 18.2429 12.6917 18.0821Z" fill="#0B56A3"/>
</svg>
