<svg width="25" height="24" viewBox="0 0 25 24" fill="none" xmlns="http://www.w3.org/2000/svg">
<g clip-path="url(#clip0_5020_2093)">
<path d="M6.3394 5.69115L10.2633 1.76728C11.7235 0.307066 14.1871 0.307066 15.6474 1.76728L17.7456 3.95688C18.2937 4.50499 18.6577 5.14303 18.7491 5.87385H6.15527C6.21618 5.81295 6.27708 5.75205 6.33798 5.69115H6.3394Z" fill="#6CACF6" stroke="#6CACF6" stroke-width="0.096"/>
<path d="M5.33597 5.94235C5.61003 5.851 18.9332 5.851 19.2073 5.94235C20.6675 6.12506 21.8536 6.7631 22.6758 7.67662C23.4965 8.58872 23.9533 9.95758 23.9533 11.5091V17.624C23.9533 19.3583 23.4052 20.7272 22.4017 21.7306C21.3983 22.7341 20.0294 23.2822 18.2952 23.2822H6.15814C4.42387 23.2822 3.05501 22.7341 2.05156 21.7306C1.04811 20.7272 0.5 19.3583 0.5 17.624V11.5091C0.5 9.95758 0.956762 8.68007 1.77751 7.67662C2.6896 6.76453 3.87576 6.12506 5.33597 5.94235Z" fill="#0B56A3" stroke="#0B56A3" stroke-width="0.096"/>
<path d="M24.5 12.1486H20.8502C19.4813 12.1486 18.3865 13.2434 18.3865 14.6123C18.3865 15.9811 19.4813 17.0759 20.8502 17.0759H24.5" fill="#6CACF6"/>
</g>
<defs>
<clipPath id="clip0_5020_2093">
<rect width="24" height="24" fill="white" transform="translate(0.5)"/>
</clipPath>
</defs>
</svg>
