<svg width="25" height="24" viewBox="0 0 25 24" fill="none" xmlns="http://www.w3.org/2000/svg">
<g clip-path="url(#clip0_5020_2108)">
<path d="M10.9288 15.7716C8.8284 16.0018 7.30554 16.6782 7.30554 17.4784C7.30554 18.4678 9.63177 19.269 12.5 19.269C15.3683 19.269 17.6934 18.4667 17.6934 17.4784C17.6934 16.6868 16.2028 16.0157 14.1369 15.7791L10.9298 15.7716" stroke="#0B56A3" stroke-width="0.768" stroke-miterlimit="10"/>
<path d="M12.608 17.8733C12.281 17.8733 11.9756 17.7259 11.7713 17.471C11.2486 16.8193 9.96663 15.1986 9.34717 14.2328C8.61263 13.0896 8.05124 12.04 7.63073 11.0247C7.31562 10.2654 7.10268 9.56747 6.97792 8.891C6.94243 8.69634 6.91985 8.50383 6.89834 8.31778L6.87683 8.11452L6.88113 7.30039C6.88759 7.25307 6.89296 7.20468 6.89834 7.15736C6.91125 7.04658 6.92415 6.93151 6.94458 6.81536C7.3296 4.50849 9.05679 2.70602 11.3454 2.22206C11.554 2.17797 11.7594 2.15216 11.9584 2.12742L12.1047 2.11237H12.9446L13.0027 2.12527C13.905 2.20486 14.7395 2.48555 15.4838 2.95875C16.798 3.79546 17.6454 4.99138 18.0014 6.511C18.0616 6.76696 18.0907 7.0197 18.1186 7.26383L18.1262 7.35524V8.17044L18.1143 8.23497C18.1143 8.23497 18.1143 8.23497 18.1143 8.23282C18.0756 8.72968 17.9788 9.24805 17.8175 9.81482C17.5368 10.8042 17.1174 11.798 16.4979 12.9412C15.7429 14.335 13.6092 17.271 13.4501 17.4689C13.2436 17.7248 12.9371 17.8722 12.609 17.8722L12.608 17.8733ZM7.73612 8.08871L7.75118 8.21776C7.77269 8.39844 7.79205 8.56836 7.82324 8.73613C7.93616 9.35237 8.13297 9.99335 8.42442 10.6967C8.82557 11.6646 9.3633 12.6691 10.0699 13.7682C10.685 14.7265 12.0412 16.4332 12.4423 16.9333C12.4983 17.0032 12.5703 17.0129 12.609 17.014C12.6478 17.014 12.722 17.0032 12.779 16.9322C12.9349 16.7386 15.0095 13.8854 15.7408 12.5336C16.3291 11.4474 16.7259 10.5085 16.9894 9.58145C17.1357 9.06738 17.2228 8.60278 17.2572 8.16076C17.2593 8.13818 17.2615 8.11667 17.2658 8.09408L17.2636 7.36277C17.2368 7.13262 17.212 6.91538 17.1625 6.70674C16.856 5.39467 16.1548 4.40633 15.0213 3.68362C14.39 3.28139 13.6781 3.04479 12.9069 2.98026C12.8854 2.97811 12.8672 2.97596 12.851 2.97273H12.1315L12.0649 2.98134C11.8756 3.005 11.6971 3.02651 11.5228 3.06415C9.58269 3.4739 8.11899 5.00213 7.79312 6.95732C7.77699 7.05304 7.76516 7.15305 7.75333 7.25737C7.74903 7.29932 7.74365 7.34018 7.73828 7.38213V8.08978L7.73612 8.08871ZM12.5004 10.8655C11.6626 10.8655 10.8754 10.5397 10.286 9.95033C9.69669 9.3599 9.3719 8.57266 9.3719 7.7338C9.3719 6.89494 9.69884 6.10771 10.2914 5.51835C10.8829 4.93008 11.6712 4.60529 12.5112 4.60529H12.5133C14.233 4.60636 15.6311 6.01414 15.63 7.74241C15.63 9.46422 14.2244 10.8645 12.5004 10.8645V10.8655ZM12.4993 10.0052C13.7501 10.0052 14.7686 8.98994 14.7696 7.74241C14.7696 6.48842 13.7576 5.46673 12.5133 5.46565H12.5112C11.9003 5.46565 11.3271 5.70118 10.898 6.12814C10.4689 6.5551 10.2323 7.12509 10.2323 7.7338C10.2323 8.34251 10.4678 8.91358 10.8948 9.34162C11.3217 9.76965 11.8917 10.0052 12.5004 10.0052H12.4993Z" fill="#0B56A3"/>
<path d="M12.5 21.8942C9.36288 21.8942 6.40751 21.4716 4.17808 20.7037C1.80561 19.8863 0.5 18.741 0.5 17.4773C0.5 15.0973 4.98575 13.6142 9.43171 13.2002L9.51129 14.0563C7.14958 14.2767 5.02554 14.7628 3.52958 15.4275C2.1304 16.048 1.36037 16.7761 1.36037 17.4773C1.36037 18.3194 2.51864 19.2217 4.45877 19.8896C6.60002 20.6273 9.45537 21.0339 12.5 21.0339C15.5446 21.0339 18.3989 20.6273 20.5401 19.8896C22.4803 19.2206 23.6386 18.3194 23.6386 17.4773C23.6386 16.7793 22.8739 16.0545 21.4855 15.435C20.0003 14.7725 17.8902 14.2853 15.5425 14.0616L15.6242 13.2056C18.0623 13.4379 20.2691 13.9498 21.8372 14.6499C23.5794 15.4275 24.5 16.4051 24.5 17.4773C24.5 18.7399 23.1933 19.8863 20.8219 20.7037C18.5936 21.4716 15.6382 21.8942 12.5011 21.8942H12.5Z" fill="#0B56A3"/>
<path d="M12.5 20.9263C8.04546 20.9263 3.31128 19.7175 3.31128 17.4773C3.31128 15.8555 5.95799 14.5488 10.0555 14.1466L10.1394 15.0027C6.26342 15.3834 4.17165 16.5621 4.17165 17.4773C4.17165 18.0688 5.02234 18.7141 6.44733 19.2056C8.05729 19.7605 10.2071 20.0659 12.5 20.0659C14.7929 20.0659 16.9428 19.7605 18.5527 19.2056C19.9777 18.7141 20.8273 18.0688 20.8273 17.4773C20.8273 16.5997 18.8377 15.4447 15.151 15.0328L15.2468 14.1778C17.0395 14.3778 18.5893 14.7639 19.7282 15.2952C21.3478 16.0502 21.6877 16.8987 21.6877 17.4773C21.6877 18.1882 21.1919 19.2056 18.8323 20.0186C17.1342 20.6037 14.8854 20.9263 12.5 20.9263Z" fill="#0B56A3"/>
</g>
<defs>
<clipPath id="clip0_5020_2108">
<rect width="24" height="24" fill="white" transform="translate(0.5)"/>
</clipPath>
</defs>
</svg>
