<svg width="28" height="32" viewBox="0 0 28 32" fill="none" xmlns="http://www.w3.org/2000/svg">
<path d="M26.7179 5.11855H24.7581V0.830778C24.7581 0.459148 24.4565 0.155884 24.0832 0.155884H19.4781C19.1065 0.155884 18.8032 0.457395 18.8032 0.830778V5.11855H16.8434C16.2631 5.11855 15.9546 5.80221 16.3368 6.23695L21.2714 11.2136C21.5396 11.5187 22.0164 11.5187 22.2846 11.2136L27.2192 6.23695C27.6014 5.80221 27.2929 5.11855 26.7126 5.11855H26.7179Z" fill="#0B56A3"/>
<path d="M26.0377 13.3855H2.00618C1.00512 13.3855 0.193604 14.197 0.193604 15.1981V29.2499C0.193604 30.251 1.00512 31.0625 2.00618 31.0625H26.0377C27.0387 31.0625 27.8503 30.251 27.8503 29.2499V15.1981C27.8503 14.197 27.0387 13.3855 26.0377 13.3855Z" fill="#6CACF6"/>
<path d="M5.47171 28.5522H2.53197C2.1393 28.5522 1.84656 28.2577 1.84656 27.8668C1.84656 27.4759 2.14106 27.1814 2.53197 27.1814H5.47171C5.86437 27.1814 6.15712 27.4759 6.15712 27.8668C6.25529 28.2595 5.86262 28.5522 5.47171 28.5522Z" fill="#0B56A3"/>
<path d="M15.1201 28.5522H7.78917C7.39651 28.5522 7.10376 28.2577 7.10376 27.8668C7.10376 27.4759 7.39826 27.1814 7.78917 27.1814H15.1201C15.5128 27.1814 15.8055 27.4759 15.8055 27.8668C15.9037 28.2595 15.511 28.5522 15.1201 28.5522Z" fill="#0B56A3"/>
<path d="M27.8503 17.8345H0.193604V21.0284H27.8503V17.8345Z" fill="#0B56A3"/>
</svg>
