<svg width="28" height="31" viewBox="0 0 28 31" fill="none" xmlns="http://www.w3.org/2000/svg">
<path d="M0.719604 25.293H27.173V30.4891H0.719604V25.293ZM11.7256 6.56651C12.1908 6.98407 12.9013 6.96538 13.344 6.52398L15.3599 4.50818H13.7839L11.7256 6.56651ZM16.1782 6.52421L17.4191 5.28324L16.799 4.50818H16.6955L14.6023 6.60137C15.0697 6.98362 15.7505 6.95027 16.1782 6.52421Z" fill="#6CACF6"/>
<path d="M23.8662 2.61864L21.2131 1.10253C20.7848 0.857826 20.3001 0.729117 19.8069 0.729126L13.6221 0.729126C13.2499 0.729118 12.8813 0.802424 12.5374 0.944857C12.1936 1.08729 11.8811 1.29606 11.6179 1.55925L8.19663 4.98059C7.67483 5.50239 7.67483 6.34836 8.19663 6.8701C8.71844 7.3919 9.5644 7.3919 10.0861 6.8701L13.3928 3.56342H17.2529L18.6142 5.26502C18.9149 5.64094 18.8849 6.18284 18.5445 6.52322L16.3082 8.75961H13.2377C12.5855 8.75961 12.0567 9.28835 12.0567 9.94059C12.0567 10.5928 12.5855 11.1216 13.2377 11.1216H19.8069C20.3002 11.1216 20.7849 10.9929 21.2131 10.7481L23.8663 9.23206H27.173V2.61864H23.8662ZM23.3939 18.2072H18.3005C16.7376 20.612 13.5213 21.2944 11.1165 19.7316C10.5073 19.3357 9.98801 18.8164 9.5921 18.2072H4.49864L0.989502 24.3482H26.903L23.3939 18.2072ZM18.67 22.4586H9.22244C9.09716 22.4586 8.977 22.4089 8.88841 22.3203C8.79982 22.2317 8.75005 22.1115 8.75005 21.9862C8.75005 21.861 8.79982 21.7408 8.88841 21.6522C8.977 21.5636 9.09716 21.5138 9.22244 21.5138H18.67C18.7953 21.5138 18.9155 21.5636 19.0041 21.6522C19.0927 21.7408 19.1424 21.861 19.1424 21.9862C19.1424 22.1115 19.0927 22.2317 19.0041 22.3203C18.9155 22.4089 18.7953 22.4586 18.67 22.4586Z" fill="#0B56A3"/>
<path d="M10.94 18.3792C12.6003 20.0395 15.2922 20.0395 16.9525 18.3792C18.6128 16.7188 18.6128 14.027 16.9525 12.3667C16.8408 12.2602 16.7234 12.1599 16.6007 12.0663H13.2377C12.7737 12.0646 12.3233 11.9097 11.9565 11.6256C11.5822 11.82 11.2395 12.0698 10.94 12.3667C9.27978 14.027 9.27973 16.7188 10.94 18.3792ZM11.9635 13.3899C12.5806 12.7741 13.5797 12.7741 14.1968 13.3899C14.2415 13.4336 14.2771 13.4857 14.3015 13.5433C14.3259 13.6008 14.3387 13.6626 14.339 13.7251C14.3394 13.7876 14.3273 13.8495 14.3036 13.9073C14.2798 13.9651 14.2449 14.0176 14.2007 14.0618C14.1565 14.106 14.104 14.141 14.0462 14.1647C13.9884 14.1885 13.9264 14.2005 13.8639 14.2002C13.8014 14.1998 13.7396 14.1871 13.6821 14.1627C13.6246 14.1382 13.5725 14.1027 13.5288 14.058C13.2818 13.8093 12.8801 13.8079 12.6314 14.0548C12.3827 14.3018 12.3813 14.7035 12.6283 14.9522L12.6316 14.9555C12.7032 15.0279 12.7949 15.0769 12.8949 15.0962C12.9948 15.1154 13.0982 15.104 13.1916 15.0635L14.1622 14.6474C14.4289 14.532 14.7243 14.4997 15.0096 14.5546C15.295 14.6096 15.5572 14.7493 15.762 14.9555C16.3787 15.5722 16.3787 16.5721 15.762 17.1888C15.1453 17.8055 14.1455 17.8055 13.5288 17.1888C13.4439 17.0995 13.3972 16.9805 13.3988 16.8573C13.4003 16.7341 13.45 16.6164 13.5371 16.5292C13.6242 16.4421 13.742 16.3925 13.8652 16.3909C13.9884 16.3894 14.1073 16.436 14.1966 16.5209C14.4445 16.7688 14.8463 16.7688 15.0941 16.5209C15.342 16.2731 15.342 15.8713 15.0941 15.6234C15.0224 15.5512 14.9307 15.5023 14.8308 15.483C14.7308 15.4638 14.6274 15.4751 14.5341 15.5155L13.5635 15.9316C13.2967 16.0471 13.0014 16.0794 12.716 16.0245C12.4306 15.9695 12.1684 15.8297 11.9636 15.6234C11.3479 15.0062 11.3479 14.0071 11.9635 13.3899Z" fill="#6CACF6"/>
</svg>
