<svg width="30" height="32" viewBox="0 0 30 32" fill="none" xmlns="http://www.w3.org/2000/svg">
<path d="M26.6579 13.3854H2.6263C1.62524 13.3854 0.813721 14.1969 0.813721 15.198V29.2498C0.813721 30.2509 1.62524 31.0624 2.6263 31.0624H26.6579C27.6589 31.0624 28.4705 30.2509 28.4705 29.2498V15.198C28.4705 14.1969 27.6589 13.3854 26.6579 13.3854Z" fill="#6CACF6"/>
<path d="M6.09183 28.5522H3.15209C2.75942 28.5522 2.46667 28.2577 2.46667 27.8668C2.46667 27.4759 2.76118 27.1814 3.15209 27.1814H6.09183C6.4845 27.1814 6.77725 27.4759 6.77725 27.8668C6.87542 28.2595 6.48275 28.5522 6.09183 28.5522Z" fill="#0B56A3"/>
<path d="M15.7402 28.5522H8.40929C8.01662 28.5522 7.72388 28.2577 7.72388 27.8668C7.72388 27.4759 8.01838 27.1814 8.40929 27.1814H15.7402C16.1329 27.1814 16.4257 27.4759 16.4257 27.8668C16.5238 28.2595 16.1312 28.5522 15.7402 28.5522Z" fill="#0B56A3"/>
<path d="M28.4705 17.8345H0.813721V21.0284H28.4705V17.8345Z" fill="#0B56A3"/>
<path d="M28.337 6.46653H26.3771V10.7543C26.3771 11.1259 26.0756 11.4292 25.7022 11.4292H21.0972C20.7256 11.4292 20.4223 11.1277 20.4223 10.7543V6.46653H18.4625C17.8822 6.46653 17.5737 5.78287 17.9559 5.34813L22.8905 0.371442C23.1587 0.0664247 23.6355 0.0664247 23.9037 0.371442L28.8383 5.34813C29.2205 5.78287 28.9119 6.46653 28.3317 6.46653H28.337Z" fill="#0B56A3"/>
</svg>
