<?xml version="1.0" encoding="utf-8"?>
<!-- Generator: Adobe Illustrator 25.2.0, SVG Export Plug-In . SVG Version: 6.00 Build 0)  -->
<svg version="1.1" id="Layer_1" xmlns="http://www.w3.org/2000/svg" xmlns:xlink="http://www.w3.org/1999/xlink" x="0px" y="0px"
	 viewBox="0 0 744.5 247.2" style="enable-background:new 0 0 744.5 247.2;" xml:space="preserve">
<style type="text/css">
	.st0{fill:#344DA2;}
	.st1{fill:#EB003B;}
	.st2{fill:#F79E3B;}
	.st3{fill:url(#SVGID_1_);}
</style>
<path class="st0" d="M297.4,191.7V144l-52.3-80.9c-2.4-3.6-3.7-7.8-3.7-12.1c0-9.8,7.6-16.9,18-16.9c7.7,0,11.9,2.9,16.6,11.1
	l39.2,64.6h0.8l39.4-64.6c4.5-7.9,9.2-11.1,16.3-11.1c10.1,0,17.7,7.1,17.7,16.6c0,4.4-1.4,8.6-3.8,12.3l-52.3,81v47.7
	c0,11.8-6.7,18.7-18,18.7C304.1,210.3,297.4,203.4,297.4,191.7z"/>
<path class="st0" d="M377.2,171.4c0-23.2,17.8-36.6,49.7-38.5L459,131v-8.5c0-11.9-8.3-18.8-21.4-18.8c-10.6,0-17,3.5-24.7,13.4
	c-3.8,4.3-8.2,6.4-13.8,6.4c-8.4,0-14.5-5.5-14.5-13.3c0-2.7,0.6-5.4,1.8-7.9c5.9-15.2,26.4-24.6,52.8-24.6c32.7,0,54,16.9,54,42.6
	v72.7c0,11.5-7,17.5-16.9,17.5c-9.4,0-15.9-5.2-16.7-15.5v-6.5h-0.7c-7.1,13.6-23.1,21.5-39,21.5
	C395.6,210.1,377.2,194.4,377.2,171.4z M459,161.3v-9.3l-26.9,1.7c-13,1-20.3,6.8-20.3,15.8c0,9.5,7.9,15.5,19.5,15.5
	C446.5,185,459,175.1,459,161.3L459,161.3z"/>
<path class="st0" d="M516.3,192.5V52c0-11.9,7.2-18.2,17.4-18.2s17.4,6.3,17.4,18.2v140.5c0,11.9-7.1,18.1-17.4,18.1
	S516.3,204.4,516.3,192.5z"/>
<path class="st0" d="M575.4,192.5V52c0-11.9,7.2-18.2,17.4-18.2s17.4,6.3,17.4,18.2v140.5c0,11.9-7.1,18.1-17.4,18.1
	S575.4,204.4,575.4,192.5z"/>
<path class="st0" d="M628.5,171.4c0-23.2,17.8-36.6,49.7-38.5l32.1-1.9v-8.5c0-11.9-8.3-18.8-21.4-18.8c-10.6,0-17,3.5-24.7,13.4
	c-3.8,4.3-8.2,6.4-13.8,6.4c-8.5,0-14.5-5.5-14.5-13.3c0-2.7,0.6-5.4,1.8-7.9c6-15.2,26.4-24.6,52.8-24.6c32.7,0,54,16.9,54,42.6
	v72.7c0,11.5-7,17.5-16.9,17.5c-9.4,0-15.9-5.2-16.7-15.5v-6.5h-0.7c-7.1,13.6-23.1,21.5-39,21.5C647,210.1,628.5,194.4,628.5,171.4
	z M710.4,161.3v-9.3l-26.9,1.7c-13,1-20.3,6.8-20.3,15.8c0,9.5,7.8,15.5,19.5,15.5C697.9,185,710.4,175.1,710.4,161.3z"/>
<path class="st0" d="M197.3,92.4c-2-5.6-5.6-10.4-10.3-14l-6.6-3.9l-28.3-16.3l0,0l-39.1-22.6L60.7,5.5C41.4-5.7,16.6,1,5.4,20.3
	C1.9,26.5,0,33.5,0,40.6v21c0.6-6.3,3-12.2,7.1-17c8.1-9.7,23.2-13,35.2-8.5l0,0l8,4.6l0,0L178.9,115l7.2,4.1c0,0,0.4,0.2,0.6,0.3
	c0.7,0.6,1.4,1.3,1.8,2.1c0.8,1.2,0.9,2.6,0.3,3.9C197.5,117,201.3,103.5,197.3,92.4z"/>
<path class="st1" d="M35.7,206.6v-166c0-0.9,0.2-1.7,0.7-2.5c0,0,0-0.1,0.1-0.1c0.9-1.4,2.5-2.3,4.1-2.3c0.1,0,0.2,0,0.2,0
	c0.2,0,0.4,0,0.6,0.1c0.1,0,0.2,0,0.2,0l0,0l0.3,0.1l0.3,0.1l0.1,0.1l0,0c-12.1-4.5-27.1-1.2-35.2,8.5C3,49.3,0.5,55.3,0,61.5v145.1
	c-0.1,14.5,7.7,27.9,20.2,35.1c12.5,7.3,28,7.3,40.5,0l15.9-9.2c-5.1,1.9-10.6,2.4-16,1.4c-12.6-2.2-23.1-14-25-26.9L35.7,206.6z"/>
<path class="st2" d="M204.5,88.5l-17.6-10.2c4.7,3.6,8.3,8.4,10.3,14c4,11.1,0.2,24.6-8.4,33.1c-0.4,0.8-0.9,1.5-1.7,2h-0.1
	c-0.1,0.1-0.1,0.1-0.2,0.2l0,0l-0.1,0.1l-7.8,4.5l-128.2,74l-7.8,4.6c-1.5,0.9-3.3,0.9-4.8,0c-1.1-0.6-2-1.7-2.3-3
	c0-0.1,0-0.1,0-0.2c0-0.1-0.1-0.2-0.1-0.4h-0.1c2,12.8,12.5,24.4,25,26.6c5.4,1,10.9,0.5,16-1.4l9-5.2l29.1-16.8l35.7-20.6l54-31.2
	c19.4-11.2,26-35.9,14.8-55.3c-3.6-6.2-8.7-11.3-14.8-14.8L204.5,88.5z"/>
<linearGradient id="SVGID_1_" gradientUnits="userSpaceOnUse" x1="55.18" y1="-126.11" x2="55.18" y2="-126.11" gradientTransform="matrix(1 0 0 -1 -44.11 81.19)">
	<stop  offset="0" style="stop-color:#7E1416"/>
	<stop  offset="0" style="stop-color:#801516;stop-opacity:0.98"/>
	<stop  offset="7.000000e-02" style="stop-color:#9C211E;stop-opacity:0.72"/>
	<stop  offset="0.15" style="stop-color:#B32B25;stop-opacity:0.5"/>
	<stop  offset="0.23" style="stop-color:#C7342B;stop-opacity:0.31"/>
	<stop  offset="0.33" style="stop-color:#D63A2F;stop-opacity:0.17"/>
	<stop  offset="0.45" style="stop-color:#E03F32;stop-opacity:7.000000e-02"/>
	<stop  offset="0.61" style="stop-color:#E64134;stop-opacity:2.000000e-02"/>
	<stop  offset="0.97" style="stop-color:#E84234;stop-opacity:0"/>
</linearGradient>
<path class="st3" d="M11.1,207.3"/>
</svg>
